G04 EAGLE Gerber RS-274X export*
G75*
%MOMM*%
%FSLAX34Y34*%
%LPD*%
%INSilkscreen Bottom*%
%IPPOS*%
%AMOC8*
5,1,8,0,0,1.08239X$1,22.5*%
G01*
%ADD10C,0.152400*%
%ADD11C,0.127000*%
%ADD12C,0.203200*%

G36*
X119152Y120786D02*
X119152Y120786D01*
X122870Y121448D01*
X128518Y122453D01*
X134194Y123305D01*
X139878Y124078D01*
X161874Y127070D01*
X184066Y128704D01*
X206252Y129281D01*
X245206Y130294D01*
X248522Y130078D01*
X288910Y125557D01*
X299503Y124371D01*
X310127Y122995D01*
X320592Y120939D01*
X326772Y119726D01*
X326773Y119727D01*
X326774Y119726D01*
X333312Y121475D01*
X333314Y121477D01*
X333316Y121479D01*
X334032Y128506D01*
X334243Y130579D01*
X334243Y130580D01*
X334243Y130581D01*
X333899Y133057D01*
X333897Y133058D01*
X333898Y133059D01*
X332727Y134773D01*
X330658Y137803D01*
X330656Y137804D01*
X330655Y137805D01*
X329265Y138227D01*
X332387Y142684D01*
X332387Y142685D01*
X334182Y147052D01*
X336690Y153160D01*
X336689Y153162D01*
X336690Y153162D01*
X336689Y153162D01*
X336689Y153163D01*
X336689Y153165D01*
X330354Y159754D01*
X326389Y163533D01*
X320049Y169575D01*
X322370Y171396D01*
X322371Y171397D01*
X325615Y175795D01*
X328373Y180017D01*
X334787Y189833D01*
X334787Y189834D01*
X334788Y189835D01*
X338063Y201434D01*
X338063Y201435D01*
X338063Y201436D01*
X337724Y210914D01*
X337808Y210919D01*
X337813Y210924D01*
X337812Y210924D01*
X337813Y210925D01*
X337695Y212481D01*
X337678Y212706D01*
X337661Y212931D01*
X337644Y213142D01*
X337644Y213154D01*
X337643Y213154D01*
X337643Y213155D01*
X337603Y213693D01*
X337695Y214412D01*
X339024Y224774D01*
X339023Y224774D01*
X339024Y224774D01*
X339905Y235212D01*
X340489Y245639D01*
X340960Y254036D01*
X341187Y262468D01*
X340787Y270873D01*
X340489Y277130D01*
X340000Y283791D01*
X339999Y283792D01*
X337514Y289618D01*
X337337Y290031D01*
X337335Y290032D01*
X337335Y290034D01*
X336790Y290276D01*
X336788Y290275D01*
X336788Y290276D01*
X305727Y290276D01*
X305727Y297872D01*
X313508Y296370D01*
X321896Y294752D01*
X330284Y293132D01*
X331978Y292805D01*
X331980Y292806D01*
X331981Y292806D01*
X332608Y293153D01*
X332608Y293155D01*
X332609Y293155D01*
X333814Y294609D01*
X335924Y297156D01*
X335924Y297157D01*
X335925Y297158D01*
X336950Y300445D01*
X336949Y300445D01*
X336950Y300445D01*
X337502Y303652D01*
X338273Y308129D01*
X338273Y308130D01*
X338141Y312929D01*
X338140Y312929D01*
X338141Y312929D01*
X337308Y317396D01*
X337199Y317976D01*
X337197Y317977D01*
X337197Y317979D01*
X336581Y318359D01*
X336580Y318359D01*
X336579Y318359D01*
X336579Y318360D01*
X336339Y318364D01*
X336338Y318364D01*
X336092Y318369D01*
X336091Y318369D01*
X336027Y318371D01*
X335845Y318374D01*
X335843Y318374D01*
X335597Y318379D01*
X335596Y318379D01*
X335350Y318384D01*
X335348Y318384D01*
X335102Y318389D01*
X335100Y318389D01*
X334854Y318394D01*
X334853Y318394D01*
X334607Y318399D01*
X334605Y318399D01*
X334359Y318404D01*
X334357Y318404D01*
X334111Y318409D01*
X334110Y318409D01*
X333864Y318414D01*
X333862Y318414D01*
X333616Y318419D01*
X333614Y318419D01*
X333368Y318424D01*
X333367Y318424D01*
X333121Y318429D01*
X333120Y318429D01*
X333119Y318429D01*
X332873Y318434D01*
X332871Y318434D01*
X332625Y318439D01*
X332624Y318439D01*
X332377Y318444D01*
X332376Y318444D01*
X332130Y318449D01*
X332128Y318449D01*
X331882Y318454D01*
X331881Y318454D01*
X331634Y318459D01*
X331633Y318459D01*
X331387Y318464D01*
X331385Y318464D01*
X331139Y318469D01*
X331138Y318469D01*
X330891Y318474D01*
X330890Y318474D01*
X330644Y318479D01*
X330642Y318479D01*
X330396Y318484D01*
X330395Y318484D01*
X330148Y318489D01*
X330147Y318489D01*
X329901Y318494D01*
X329899Y318494D01*
X329653Y318499D01*
X329652Y318499D01*
X329405Y318504D01*
X329404Y318504D01*
X329158Y318508D01*
X329158Y318509D01*
X329156Y318509D01*
X328910Y318513D01*
X328909Y318513D01*
X328662Y318518D01*
X328661Y318518D01*
X328415Y318523D01*
X328413Y318523D01*
X328167Y318528D01*
X328165Y318528D01*
X327919Y318533D01*
X327918Y318533D01*
X327672Y318538D01*
X327670Y318538D01*
X327424Y318543D01*
X327422Y318543D01*
X327176Y318548D01*
X327175Y318548D01*
X327005Y318552D01*
X326929Y318553D01*
X326927Y318553D01*
X326681Y318558D01*
X326679Y318558D01*
X326433Y318563D01*
X326432Y318563D01*
X326185Y318568D01*
X326184Y318568D01*
X325938Y318573D01*
X325936Y318573D01*
X325690Y318578D01*
X325688Y318578D01*
X325442Y318583D01*
X325441Y318583D01*
X325194Y318588D01*
X325193Y318588D01*
X324947Y318593D01*
X324945Y318593D01*
X324699Y318598D01*
X324697Y318598D01*
X324451Y318603D01*
X324450Y318603D01*
X324204Y318608D01*
X324203Y318608D01*
X324202Y318608D01*
X323956Y318613D01*
X323954Y318613D01*
X323708Y318618D01*
X323707Y318618D01*
X323460Y318623D01*
X323459Y318623D01*
X323213Y318628D01*
X323211Y318628D01*
X322965Y318633D01*
X322963Y318633D01*
X322717Y318638D01*
X322716Y318638D01*
X322469Y318643D01*
X322468Y318643D01*
X322222Y318648D01*
X322220Y318648D01*
X321974Y318653D01*
X321972Y318653D01*
X321726Y318658D01*
X321725Y318658D01*
X321478Y318663D01*
X321477Y318663D01*
X321231Y318667D01*
X321231Y318668D01*
X321229Y318668D01*
X320983Y318672D01*
X320981Y318672D01*
X320735Y318677D01*
X320734Y318677D01*
X320487Y318682D01*
X320486Y318682D01*
X320240Y318687D01*
X320238Y318687D01*
X319992Y318692D01*
X319991Y318692D01*
X319744Y318697D01*
X319743Y318697D01*
X319497Y318702D01*
X319495Y318702D01*
X319249Y318707D01*
X319247Y318707D01*
X319001Y318712D01*
X319000Y318712D01*
X318753Y318717D01*
X318752Y318717D01*
X318506Y318722D01*
X318504Y318722D01*
X318258Y318727D01*
X318256Y318727D01*
X318010Y318732D01*
X318009Y318732D01*
X317982Y318733D01*
X317762Y318737D01*
X317761Y318737D01*
X317515Y318742D01*
X317513Y318742D01*
X317267Y318747D01*
X317266Y318747D01*
X317019Y318752D01*
X317018Y318752D01*
X316772Y318757D01*
X316770Y318757D01*
X316524Y318762D01*
X316522Y318762D01*
X316276Y318767D01*
X316275Y318767D01*
X316028Y318772D01*
X316027Y318772D01*
X315781Y318777D01*
X315779Y318777D01*
X315533Y318782D01*
X315532Y318782D01*
X315285Y318787D01*
X315284Y318787D01*
X315038Y318792D01*
X315036Y318792D01*
X314790Y318797D01*
X314788Y318797D01*
X314542Y318802D01*
X314541Y318802D01*
X314295Y318807D01*
X314293Y318807D01*
X314047Y318812D01*
X314045Y318812D01*
X313799Y318817D01*
X313798Y318817D01*
X313551Y318822D01*
X313550Y318822D01*
X313304Y318826D01*
X313304Y318827D01*
X313302Y318827D01*
X313056Y318831D01*
X313055Y318831D01*
X312808Y318836D01*
X312807Y318836D01*
X312561Y318841D01*
X312559Y318841D01*
X312313Y318846D01*
X312311Y318846D01*
X312065Y318851D01*
X312064Y318851D01*
X311818Y318856D01*
X311817Y318856D01*
X311816Y318856D01*
X311570Y318861D01*
X311568Y318861D01*
X311322Y318866D01*
X311321Y318866D01*
X311074Y318871D01*
X311073Y318871D01*
X310827Y318876D01*
X310825Y318876D01*
X310579Y318881D01*
X310577Y318881D01*
X310331Y318886D01*
X310330Y318886D01*
X310084Y318891D01*
X310082Y318891D01*
X309836Y318896D01*
X309834Y318896D01*
X309588Y318901D01*
X309587Y318901D01*
X309563Y318902D01*
X309871Y322688D01*
X309871Y322689D01*
X308733Y331842D01*
X316215Y334503D01*
X325259Y337720D01*
X334302Y340935D01*
X334915Y341153D01*
X334916Y341155D01*
X334917Y341155D01*
X335200Y341583D01*
X335200Y341584D01*
X335201Y341585D01*
X335277Y342215D01*
X336322Y350946D01*
X336320Y350948D01*
X336321Y350949D01*
X331200Y359501D01*
X331198Y359501D01*
X331198Y359502D01*
X324209Y364472D01*
X323820Y364750D01*
X323817Y364749D01*
X323816Y364751D01*
X323266Y364679D01*
X323265Y364678D01*
X323265Y364679D01*
X322869Y364473D01*
X314353Y360045D01*
X305836Y355618D01*
X298553Y351831D01*
X293943Y356571D01*
X288926Y361729D01*
X291702Y369533D01*
X294833Y378336D01*
X297963Y387137D01*
X298698Y389203D01*
X298697Y389206D01*
X298696Y389208D01*
X296712Y390704D01*
X295270Y392028D01*
X292511Y394564D01*
X292510Y394564D01*
X292510Y394565D01*
X289004Y396173D01*
X289003Y396173D01*
X285463Y397284D01*
X281138Y398640D01*
X281137Y398640D01*
X276269Y399263D01*
X276268Y399262D01*
X276268Y399263D01*
X276223Y399260D01*
X276140Y399255D01*
X276057Y399250D01*
X275975Y399245D01*
X275974Y399245D01*
X275892Y399240D01*
X275809Y399235D01*
X275726Y399230D01*
X275644Y399225D01*
X275643Y399225D01*
X275561Y399220D01*
X275478Y399215D01*
X275395Y399210D01*
X275313Y399205D01*
X275230Y399201D01*
X275147Y399196D01*
X275064Y399191D01*
X274982Y399186D01*
X274899Y399181D01*
X274816Y399176D01*
X274734Y399171D01*
X274733Y399171D01*
X274651Y399166D01*
X274568Y399161D01*
X274485Y399156D01*
X274403Y399151D01*
X274402Y399151D01*
X274320Y399146D01*
X274237Y399141D01*
X274154Y399136D01*
X274072Y399131D01*
X274071Y399131D01*
X273989Y399126D01*
X273906Y399121D01*
X273823Y399116D01*
X273741Y399111D01*
X273740Y399111D01*
X273658Y399106D01*
X273575Y399101D01*
X273492Y399096D01*
X273410Y399091D01*
X273327Y399086D01*
X273244Y399081D01*
X273162Y399076D01*
X273161Y399076D01*
X273079Y399071D01*
X272996Y399066D01*
X272913Y399061D01*
X272831Y399056D01*
X272830Y399056D01*
X272748Y399051D01*
X272665Y399046D01*
X272582Y399042D01*
X272500Y399037D01*
X272499Y399037D01*
X272417Y399032D01*
X272334Y399027D01*
X272251Y399022D01*
X272169Y399017D01*
X272168Y399017D01*
X272086Y399012D01*
X272003Y399007D01*
X271920Y399002D01*
X271838Y398997D01*
X271837Y398997D01*
X271755Y398992D01*
X271729Y398990D01*
X271672Y398987D01*
X271590Y398982D01*
X271507Y398977D01*
X271425Y398972D01*
X271424Y398972D01*
X271342Y398967D01*
X271259Y398962D01*
X271193Y398958D01*
X271192Y398957D01*
X271191Y398957D01*
X270541Y398615D01*
X270540Y398612D01*
X270538Y398611D01*
X270449Y398015D01*
X269027Y388523D01*
X267605Y379031D01*
X266364Y370753D01*
X263007Y371218D01*
X259569Y371695D01*
X259568Y371695D01*
X256003Y372031D01*
X256002Y372031D01*
X255951Y372028D01*
X255881Y372023D01*
X255810Y372018D01*
X255740Y372013D01*
X255670Y372008D01*
X255600Y372003D01*
X255530Y371998D01*
X255529Y371998D01*
X255459Y371993D01*
X255389Y371988D01*
X255319Y371983D01*
X255249Y371978D01*
X255178Y371973D01*
X255108Y371968D01*
X255038Y371963D01*
X254968Y371958D01*
X254898Y371953D01*
X254827Y371948D01*
X254757Y371943D01*
X254687Y371938D01*
X254617Y371933D01*
X254547Y371928D01*
X254546Y371928D01*
X254476Y371923D01*
X254406Y371918D01*
X254336Y371913D01*
X254266Y371908D01*
X254196Y371904D01*
X254195Y371904D01*
X254125Y371899D01*
X254055Y371894D01*
X253985Y371889D01*
X253915Y371884D01*
X253844Y371879D01*
X253774Y371874D01*
X253704Y371869D01*
X253634Y371864D01*
X253564Y371859D01*
X253513Y371855D01*
X253513Y371895D01*
X253509Y371900D01*
X253508Y371900D01*
X253135Y371898D01*
X253129Y371898D01*
X252192Y371893D01*
X252187Y371893D01*
X252186Y371893D01*
X251801Y371891D01*
X251253Y371888D01*
X251248Y371888D01*
X250317Y371883D01*
X250311Y371883D01*
X249380Y371878D01*
X249374Y371878D01*
X248709Y371875D01*
X246905Y381295D01*
X245099Y390721D01*
X243294Y400148D01*
X243213Y400571D01*
X243211Y400572D01*
X243211Y400574D01*
X242785Y400987D01*
X242783Y400987D01*
X242782Y400988D01*
X242366Y401076D01*
X233067Y403055D01*
X233065Y403054D01*
X233064Y403055D01*
X222677Y399589D01*
X222677Y399588D01*
X222676Y399588D01*
X214643Y394895D01*
X214177Y394623D01*
X214177Y394621D01*
X214175Y394621D01*
X213811Y393939D01*
X213812Y393936D01*
X213811Y393935D01*
X214033Y393395D01*
X217683Y384518D01*
X221334Y375641D01*
X224416Y368142D01*
X222799Y367676D01*
X222798Y367674D01*
X222797Y367675D01*
X211509Y358087D01*
X209963Y356773D01*
X203956Y362430D01*
X196968Y369010D01*
X189980Y375589D01*
X189565Y375980D01*
X189563Y375980D01*
X189562Y375982D01*
X188877Y376131D01*
X188876Y376131D01*
X188875Y376131D01*
X188874Y376130D01*
X188873Y376131D01*
X188371Y375797D01*
X180533Y370584D01*
X180532Y370584D01*
X171301Y362330D01*
X171301Y362329D01*
X171300Y362328D01*
X171300Y362327D01*
X170123Y354012D01*
X164635Y357234D01*
X162991Y358200D01*
X161374Y359216D01*
X159804Y360298D01*
X159391Y360583D01*
X158983Y360874D01*
X158580Y361172D01*
X158418Y361293D01*
X158405Y361303D01*
X157892Y361712D01*
X157890Y361712D01*
X157889Y361713D01*
X157402Y361778D01*
X157400Y361777D01*
X157399Y361778D01*
X156797Y361510D01*
X123290Y346610D01*
X123289Y346607D01*
X123287Y346607D01*
X111349Y307382D01*
X111350Y307382D01*
X111349Y307381D01*
X106972Y273916D01*
X104418Y254390D01*
X104418Y254389D01*
X103719Y234044D01*
X105777Y214413D01*
X105822Y213978D01*
X104894Y212002D01*
X104895Y212001D01*
X104894Y212000D01*
X104894Y211999D01*
X105488Y208573D01*
X105750Y205550D01*
X106248Y199807D01*
X106248Y199806D01*
X107735Y194139D01*
X110010Y188849D01*
X113243Y181332D01*
X113244Y181332D01*
X113244Y181331D01*
X118093Y173671D01*
X118094Y173671D01*
X118094Y173670D01*
X123028Y169511D01*
X117845Y164844D01*
X113309Y160762D01*
X107768Y155009D01*
X107768Y155006D01*
X107767Y155004D01*
X108930Y148365D01*
X109759Y143642D01*
X109760Y143641D01*
X109760Y143639D01*
X113993Y138952D01*
X111676Y138378D01*
X107343Y136624D01*
X107342Y136622D01*
X107340Y136621D01*
X106095Y133037D01*
X104424Y128221D01*
X104424Y128220D01*
X104424Y128219D01*
X104424Y128218D01*
X106306Y122529D01*
X106309Y122527D01*
X106310Y122525D01*
X111354Y120830D01*
X115045Y119589D01*
X115047Y119590D01*
X115048Y119589D01*
X119152Y120786D01*
G37*
%LPC*%
G36*
X257412Y195955D02*
X257412Y195955D01*
X257319Y195984D01*
X257214Y196072D01*
X256838Y196391D01*
X256459Y196705D01*
X256079Y197018D01*
X254614Y198225D01*
X254614Y198226D01*
X253119Y199397D01*
X251613Y200552D01*
X247637Y203600D01*
X243490Y206514D01*
X243490Y206513D01*
X243490Y206514D01*
X239014Y208784D01*
X234293Y211178D01*
X234292Y211178D01*
X234291Y211178D01*
X228793Y212067D01*
X228792Y212067D01*
X228762Y212069D01*
X228690Y212074D01*
X228619Y212079D01*
X228547Y212084D01*
X228475Y212089D01*
X228403Y212094D01*
X228331Y212099D01*
X228259Y212104D01*
X228188Y212109D01*
X228187Y212109D01*
X228116Y212114D01*
X228044Y212119D01*
X227972Y212124D01*
X227900Y212129D01*
X227828Y212134D01*
X227756Y212139D01*
X227685Y212144D01*
X227684Y212144D01*
X227613Y212149D01*
X227541Y212154D01*
X227469Y212158D01*
X227397Y212163D01*
X227325Y212168D01*
X227253Y212173D01*
X227182Y212178D01*
X227110Y212183D01*
X227038Y212188D01*
X226966Y212193D01*
X226894Y212198D01*
X226822Y212203D01*
X226751Y212208D01*
X226750Y212208D01*
X226679Y212213D01*
X226607Y212218D01*
X226535Y212223D01*
X226463Y212228D01*
X226391Y212233D01*
X226319Y212238D01*
X226248Y212243D01*
X226247Y212243D01*
X226176Y212248D01*
X226104Y212253D01*
X226032Y212258D01*
X225960Y212263D01*
X225888Y212268D01*
X225816Y212273D01*
X225745Y212278D01*
X225673Y212283D01*
X225601Y212288D01*
X225529Y212293D01*
X225457Y212298D01*
X225385Y212303D01*
X225314Y212308D01*
X225313Y212308D01*
X225242Y212313D01*
X225170Y212317D01*
X225098Y212322D01*
X225026Y212327D01*
X224954Y212332D01*
X224882Y212337D01*
X224811Y212342D01*
X224810Y212342D01*
X224739Y212347D01*
X224667Y212352D01*
X224595Y212357D01*
X224523Y212362D01*
X224451Y212367D01*
X224379Y212372D01*
X224308Y212377D01*
X224236Y212382D01*
X224164Y212387D01*
X224092Y212392D01*
X224020Y212397D01*
X223948Y212402D01*
X223877Y212407D01*
X223876Y212407D01*
X223805Y212412D01*
X223733Y212417D01*
X223661Y212422D01*
X223589Y212427D01*
X223566Y212428D01*
X223517Y212432D01*
X223446Y212437D01*
X223374Y212442D01*
X223302Y212447D01*
X223230Y212452D01*
X223159Y212457D01*
X223087Y212462D01*
X223015Y212467D01*
X222943Y212472D01*
X222872Y212476D01*
X222800Y212481D01*
X222728Y212486D01*
X222657Y212491D01*
X222656Y212491D01*
X222585Y212496D01*
X222513Y212501D01*
X222441Y212506D01*
X222370Y212511D01*
X222369Y212511D01*
X222298Y212516D01*
X222226Y212521D01*
X222154Y212526D01*
X222083Y212531D01*
X222011Y212536D01*
X221939Y212541D01*
X221867Y212546D01*
X221796Y212551D01*
X221724Y212556D01*
X221652Y212561D01*
X221581Y212566D01*
X221580Y212566D01*
X221509Y212571D01*
X221437Y212576D01*
X221365Y212581D01*
X221294Y212586D01*
X221293Y212586D01*
X221222Y212591D01*
X221150Y212596D01*
X221078Y212601D01*
X221007Y212606D01*
X220935Y212611D01*
X220863Y212616D01*
X220791Y212621D01*
X220720Y212626D01*
X220648Y212631D01*
X220576Y212635D01*
X220504Y212640D01*
X220433Y212645D01*
X220361Y212650D01*
X220289Y212655D01*
X220218Y212660D01*
X220217Y212660D01*
X220146Y212665D01*
X220074Y212670D01*
X220002Y212675D01*
X219931Y212680D01*
X219930Y212680D01*
X219859Y212685D01*
X219787Y212690D01*
X219715Y212695D01*
X219644Y212700D01*
X219572Y212705D01*
X219502Y212710D01*
X219500Y212710D01*
X219499Y212710D01*
X219391Y212715D01*
X219390Y212715D01*
X219282Y212720D01*
X219174Y212725D01*
X219173Y212725D01*
X219065Y212730D01*
X218957Y212735D01*
X218956Y212735D01*
X218848Y212740D01*
X218847Y212740D01*
X218739Y212745D01*
X218631Y212750D01*
X218630Y212750D01*
X218522Y212755D01*
X218413Y212760D01*
X218305Y212765D01*
X218304Y212765D01*
X218196Y212770D01*
X218088Y212775D01*
X218087Y212775D01*
X217979Y212780D01*
X217870Y212785D01*
X217762Y212789D01*
X217762Y212790D01*
X217761Y212790D01*
X217653Y212794D01*
X217545Y212799D01*
X217544Y212799D01*
X217436Y212804D01*
X217327Y212809D01*
X217219Y212814D01*
X217218Y212814D01*
X217110Y212819D01*
X217002Y212824D01*
X217001Y212824D01*
X216893Y212829D01*
X216892Y212829D01*
X216784Y212834D01*
X216676Y212839D01*
X216675Y212839D01*
X216567Y212844D01*
X216459Y212849D01*
X216458Y212849D01*
X216350Y212854D01*
X216349Y212854D01*
X216241Y212859D01*
X216133Y212864D01*
X216132Y212864D01*
X216024Y212869D01*
X215916Y212874D01*
X215915Y212874D01*
X215807Y212879D01*
X215806Y212879D01*
X215698Y212884D01*
X215590Y212889D01*
X215589Y212889D01*
X215481Y212894D01*
X215373Y212899D01*
X215372Y212899D01*
X215264Y212904D01*
X215263Y212904D01*
X215155Y212909D01*
X215047Y212914D01*
X215046Y212914D01*
X214938Y212919D01*
X214829Y212924D01*
X214721Y212929D01*
X214720Y212929D01*
X214612Y212934D01*
X214504Y212939D01*
X214503Y212939D01*
X214395Y212944D01*
X214297Y212948D01*
X214296Y212947D01*
X214295Y212948D01*
X210331Y211660D01*
X206069Y210275D01*
X202403Y208654D01*
X202403Y208653D01*
X202402Y208654D01*
X198593Y206186D01*
X194842Y203757D01*
X194842Y203756D01*
X191277Y201029D01*
X191277Y201028D01*
X191277Y201029D01*
X187810Y198213D01*
X187144Y197673D01*
X186483Y197126D01*
X185831Y196568D01*
X185256Y196075D01*
X183555Y195925D01*
X183554Y195925D01*
X182737Y195756D01*
X181156Y195427D01*
X181105Y195424D01*
X181034Y195419D01*
X181033Y195419D01*
X180962Y195414D01*
X180891Y195409D01*
X180890Y195409D01*
X180819Y195404D01*
X180748Y195399D01*
X180676Y195394D01*
X180605Y195389D01*
X180533Y195384D01*
X180462Y195379D01*
X180390Y195374D01*
X180319Y195369D01*
X180247Y195364D01*
X180176Y195359D01*
X180104Y195354D01*
X180033Y195349D01*
X179961Y195344D01*
X179890Y195339D01*
X179818Y195334D01*
X179747Y195329D01*
X179675Y195324D01*
X179604Y195319D01*
X179543Y195315D01*
X179516Y195314D01*
X179515Y195314D01*
X179329Y195309D01*
X179328Y195309D01*
X179143Y195304D01*
X179142Y195304D01*
X178956Y195300D01*
X178955Y195300D01*
X178955Y195299D01*
X178769Y195295D01*
X178768Y195295D01*
X178583Y195290D01*
X178582Y195290D01*
X178396Y195285D01*
X178395Y195285D01*
X178209Y195280D01*
X178208Y195280D01*
X178023Y195275D01*
X178022Y195275D01*
X177932Y195272D01*
X177836Y195270D01*
X177835Y195270D01*
X177648Y195265D01*
X177647Y195265D01*
X177461Y195260D01*
X177460Y195260D01*
X177274Y195255D01*
X177273Y195255D01*
X177087Y195250D01*
X177086Y195250D01*
X176900Y195245D01*
X176899Y195245D01*
X176713Y195240D01*
X176712Y195240D01*
X176525Y195235D01*
X176524Y195235D01*
X176338Y195230D01*
X176337Y195230D01*
X176151Y195225D01*
X176150Y195225D01*
X175964Y195220D01*
X175963Y195220D01*
X175777Y195215D01*
X175776Y195215D01*
X175590Y195210D01*
X175588Y195210D01*
X175402Y195205D01*
X175401Y195205D01*
X175215Y195200D01*
X175214Y195200D01*
X175028Y195195D01*
X175027Y195195D01*
X174841Y195190D01*
X174840Y195190D01*
X174654Y195185D01*
X174653Y195185D01*
X174466Y195180D01*
X174465Y195180D01*
X174279Y195175D01*
X174278Y195175D01*
X174092Y195170D01*
X174091Y195170D01*
X173905Y195165D01*
X173904Y195165D01*
X173718Y195160D01*
X173717Y195160D01*
X173531Y195155D01*
X173530Y195155D01*
X173343Y195150D01*
X173342Y195150D01*
X173156Y195145D01*
X173155Y195145D01*
X172969Y195141D01*
X172968Y195141D01*
X172968Y195140D01*
X172782Y195136D01*
X172781Y195136D01*
X172595Y195131D01*
X172594Y195131D01*
X172408Y195126D01*
X172407Y195126D01*
X172406Y195126D01*
X172352Y195124D01*
X166830Y196625D01*
X161672Y198634D01*
X153125Y201965D01*
X145215Y207247D01*
X138200Y213110D01*
X137478Y213714D01*
X136767Y214331D01*
X136069Y214961D01*
X135934Y215082D01*
X135915Y215100D01*
X135796Y215531D01*
X135794Y215533D01*
X135793Y215535D01*
X135106Y215875D01*
X134587Y216269D01*
X130133Y219658D01*
X125146Y222671D01*
X125144Y222671D01*
X119453Y223168D01*
X113636Y223675D01*
X113635Y223674D01*
X113633Y223674D01*
X108622Y219937D01*
X108621Y219936D01*
X108620Y219935D01*
X107993Y218601D01*
X106080Y236852D01*
X107156Y260257D01*
X110910Y282449D01*
X115990Y312482D01*
X128316Y345955D01*
X157272Y358832D01*
X161772Y355246D01*
X161773Y355246D01*
X161773Y355245D01*
X168026Y352141D01*
X169745Y351343D01*
X169678Y350869D01*
X169682Y350864D01*
X169682Y350863D01*
X172231Y350144D01*
X172237Y350147D01*
X172236Y350148D01*
X172237Y350148D01*
X172242Y350184D01*
X174068Y349337D01*
X191036Y341463D01*
X191036Y341462D01*
X209372Y336723D01*
X209373Y336723D01*
X227825Y333957D01*
X246437Y331167D01*
X246438Y331167D01*
X265322Y330531D01*
X265323Y330531D01*
X281614Y331265D01*
X281998Y330845D01*
X288300Y323964D01*
X288218Y323960D01*
X288217Y323960D01*
X288106Y323955D01*
X287995Y323950D01*
X287994Y323950D01*
X287883Y323946D01*
X287882Y323946D01*
X287882Y323945D01*
X287771Y323941D01*
X287660Y323936D01*
X287659Y323936D01*
X287548Y323931D01*
X287547Y323931D01*
X287436Y323926D01*
X287325Y323921D01*
X287324Y323921D01*
X287213Y323916D01*
X287101Y323911D01*
X286990Y323906D01*
X286989Y323906D01*
X286878Y323901D01*
X286766Y323896D01*
X286717Y323894D01*
X286716Y323893D01*
X286715Y323893D01*
X283674Y323037D01*
X280803Y322551D01*
X275207Y321602D01*
X269611Y320650D01*
X264015Y319698D01*
X257843Y318648D01*
X251852Y317560D01*
X251851Y317560D01*
X246181Y314796D01*
X234079Y308895D01*
X234079Y308894D01*
X234077Y308893D01*
X228232Y295873D01*
X228233Y295871D01*
X228232Y295870D01*
X230029Y282831D01*
X230086Y282412D01*
X230147Y281991D01*
X230236Y281577D01*
X230512Y280289D01*
X230517Y280286D01*
X230517Y280285D01*
X230518Y280285D01*
X232487Y280329D01*
X232491Y280332D01*
X232492Y280333D01*
X232797Y281577D01*
X235166Y291258D01*
X242914Y297583D01*
X251966Y300890D01*
X255130Y302046D01*
X258412Y302651D01*
X261692Y303348D01*
X275008Y306178D01*
X288323Y309008D01*
X299772Y311441D01*
X303072Y307839D01*
X303072Y288227D01*
X303073Y288225D01*
X303073Y288224D01*
X303675Y287622D01*
X303677Y287622D01*
X303678Y287621D01*
X303678Y287620D01*
X335501Y287620D01*
X337654Y282574D01*
X337917Y275846D01*
X338183Y269743D01*
X338543Y261514D01*
X338261Y253257D01*
X337800Y245039D01*
X337227Y234813D01*
X336342Y224575D01*
X335466Y217741D01*
X333178Y220187D01*
X333177Y220187D01*
X333176Y220188D01*
X329294Y221752D01*
X325469Y223293D01*
X325467Y223292D01*
X325466Y223293D01*
X321093Y222389D01*
X321092Y222388D01*
X317427Y220870D01*
X314578Y219689D01*
X314578Y219688D01*
X314577Y219688D01*
X311984Y218012D01*
X309506Y216194D01*
X308744Y215634D01*
X307295Y214942D01*
X307294Y214939D01*
X307292Y214937D01*
X307292Y214373D01*
X301972Y209520D01*
X295891Y205294D01*
X289531Y201767D01*
X279917Y196434D01*
X268321Y192548D01*
X257412Y195955D01*
G37*
%LPD*%
%LPC*%
G36*
X266977Y150175D02*
X266977Y150175D01*
X266976Y150175D01*
X266897Y150176D01*
X266896Y150176D01*
X266605Y150181D01*
X266603Y150181D01*
X266313Y150186D01*
X266311Y150186D01*
X266021Y150191D01*
X266019Y150191D01*
X265729Y150196D01*
X265727Y150196D01*
X265437Y150201D01*
X265435Y150201D01*
X265144Y150206D01*
X265143Y150206D01*
X264852Y150211D01*
X264850Y150211D01*
X264560Y150216D01*
X264558Y150216D01*
X264268Y150221D01*
X264266Y150221D01*
X263976Y150226D01*
X263974Y150226D01*
X263684Y150231D01*
X263682Y150231D01*
X263391Y150236D01*
X263390Y150236D01*
X263099Y150241D01*
X263098Y150241D01*
X262807Y150246D01*
X262805Y150246D01*
X262515Y150251D01*
X262513Y150251D01*
X262223Y150256D01*
X262221Y150256D01*
X261931Y150261D01*
X261929Y150261D01*
X261639Y150266D01*
X261637Y150266D01*
X261346Y150271D01*
X261345Y150271D01*
X261054Y150276D01*
X261052Y150276D01*
X260762Y150281D01*
X260760Y150281D01*
X260470Y150286D01*
X260468Y150286D01*
X260178Y150291D01*
X260176Y150291D01*
X259886Y150296D01*
X259884Y150296D01*
X259594Y150301D01*
X259593Y150301D01*
X259592Y150301D01*
X259301Y150306D01*
X259300Y150306D01*
X259009Y150311D01*
X259007Y150311D01*
X258717Y150316D01*
X258715Y150316D01*
X258425Y150321D01*
X258423Y150321D01*
X258133Y150326D01*
X258131Y150326D01*
X257841Y150330D01*
X257841Y150331D01*
X257839Y150331D01*
X257548Y150335D01*
X257547Y150335D01*
X257256Y150340D01*
X257255Y150340D01*
X256964Y150345D01*
X256962Y150345D01*
X256672Y150350D01*
X256670Y150350D01*
X256380Y150355D01*
X256378Y150355D01*
X256088Y150360D01*
X256086Y150360D01*
X255796Y150365D01*
X255794Y150365D01*
X255503Y150370D01*
X255502Y150370D01*
X255211Y150375D01*
X255209Y150375D01*
X254919Y150380D01*
X254917Y150380D01*
X254627Y150385D01*
X254625Y150385D01*
X254335Y150390D01*
X254333Y150390D01*
X254043Y150395D01*
X254041Y150395D01*
X253751Y150400D01*
X253750Y150400D01*
X253749Y150400D01*
X253458Y150405D01*
X253457Y150405D01*
X253166Y150410D01*
X253164Y150410D01*
X252874Y150415D01*
X252872Y150415D01*
X252582Y150420D01*
X252580Y150420D01*
X252290Y150425D01*
X252288Y150425D01*
X251998Y150430D01*
X251996Y150430D01*
X251705Y150435D01*
X251704Y150435D01*
X251413Y150440D01*
X251412Y150440D01*
X251121Y150445D01*
X251119Y150445D01*
X250829Y150450D01*
X250827Y150450D01*
X250537Y150455D01*
X250535Y150455D01*
X250245Y150460D01*
X250243Y150460D01*
X249953Y150465D01*
X249951Y150465D01*
X249660Y150470D01*
X249659Y150470D01*
X249368Y150475D01*
X249366Y150475D01*
X249076Y150480D01*
X249074Y150480D01*
X248784Y150485D01*
X248782Y150485D01*
X248492Y150489D01*
X248492Y150490D01*
X248490Y150490D01*
X248200Y150494D01*
X248198Y150494D01*
X247907Y150499D01*
X247906Y150499D01*
X247615Y150504D01*
X247614Y150504D01*
X247323Y150509D01*
X247321Y150509D01*
X247031Y150514D01*
X247029Y150514D01*
X246739Y150519D01*
X246737Y150519D01*
X246447Y150524D01*
X246445Y150524D01*
X246155Y150529D01*
X246153Y150529D01*
X245862Y150534D01*
X245861Y150534D01*
X245570Y150539D01*
X245568Y150539D01*
X245278Y150544D01*
X245276Y150544D01*
X244986Y150549D01*
X244984Y150549D01*
X244694Y150554D01*
X244692Y150554D01*
X244402Y150559D01*
X244400Y150559D01*
X244110Y150564D01*
X244109Y150564D01*
X244108Y150564D01*
X243817Y150569D01*
X243816Y150569D01*
X243525Y150574D01*
X243523Y150574D01*
X243233Y150579D01*
X243231Y150579D01*
X242941Y150584D01*
X242939Y150584D01*
X242649Y150589D01*
X242647Y150589D01*
X242357Y150594D01*
X242355Y150594D01*
X242064Y150599D01*
X242063Y150599D01*
X241772Y150604D01*
X241771Y150604D01*
X241480Y150609D01*
X241478Y150609D01*
X241188Y150614D01*
X241186Y150614D01*
X240896Y150619D01*
X240894Y150619D01*
X240604Y150624D01*
X240602Y150624D01*
X240312Y150629D01*
X240310Y150629D01*
X240019Y150634D01*
X240018Y150634D01*
X239727Y150639D01*
X239725Y150639D01*
X239435Y150644D01*
X239433Y150644D01*
X239143Y150648D01*
X239143Y150649D01*
X239141Y150649D01*
X238851Y150653D01*
X238849Y150653D01*
X238559Y150658D01*
X238557Y150658D01*
X238267Y150663D01*
X238266Y150663D01*
X238265Y150663D01*
X237974Y150668D01*
X237973Y150668D01*
X237682Y150673D01*
X237680Y150673D01*
X237390Y150678D01*
X237388Y150678D01*
X237098Y150683D01*
X237096Y150683D01*
X236806Y150688D01*
X236804Y150688D01*
X236514Y150693D01*
X236512Y150693D01*
X236221Y150698D01*
X236220Y150698D01*
X235929Y150703D01*
X235928Y150703D01*
X235637Y150708D01*
X235635Y150708D01*
X235345Y150713D01*
X235343Y150713D01*
X235053Y150718D01*
X235051Y150718D01*
X234761Y150723D01*
X234759Y150723D01*
X234469Y150728D01*
X234467Y150728D01*
X234176Y150733D01*
X234175Y150733D01*
X233884Y150738D01*
X233882Y150738D01*
X233592Y150743D01*
X233590Y150743D01*
X233300Y150748D01*
X233298Y150748D01*
X233008Y150753D01*
X233006Y150753D01*
X232716Y150758D01*
X232714Y150758D01*
X232423Y150763D01*
X232422Y150763D01*
X232131Y150768D01*
X232130Y150768D01*
X231839Y150773D01*
X231837Y150773D01*
X231547Y150778D01*
X231545Y150778D01*
X231255Y150783D01*
X231253Y150783D01*
X230963Y150788D01*
X230961Y150788D01*
X230671Y150793D01*
X230669Y150793D01*
X230378Y150798D01*
X230377Y150798D01*
X230086Y150803D01*
X230084Y150803D01*
X229794Y150807D01*
X229794Y150808D01*
X229792Y150808D01*
X229502Y150812D01*
X229500Y150812D01*
X229210Y150817D01*
X229208Y150817D01*
X228918Y150822D01*
X228916Y150822D01*
X228626Y150827D01*
X228625Y150827D01*
X228624Y150827D01*
X228333Y150832D01*
X228332Y150832D01*
X228041Y150837D01*
X228039Y150837D01*
X227749Y150842D01*
X227747Y150842D01*
X227457Y150847D01*
X227455Y150847D01*
X227165Y150852D01*
X227163Y150852D01*
X226873Y150857D01*
X226871Y150857D01*
X226580Y150862D01*
X226579Y150862D01*
X226288Y150867D01*
X226287Y150867D01*
X225996Y150872D01*
X225994Y150872D01*
X225704Y150877D01*
X225702Y150877D01*
X225412Y150882D01*
X225410Y150882D01*
X225120Y150887D01*
X225118Y150887D01*
X224828Y150892D01*
X224826Y150892D01*
X224535Y150897D01*
X224534Y150897D01*
X224243Y150902D01*
X224241Y150902D01*
X223951Y150907D01*
X223949Y150907D01*
X223659Y150912D01*
X223657Y150912D01*
X223367Y150917D01*
X223365Y150917D01*
X223075Y150922D01*
X223073Y150922D01*
X222783Y150927D01*
X222782Y150927D01*
X222781Y150927D01*
X222490Y150932D01*
X222489Y150932D01*
X222198Y150937D01*
X222196Y150937D01*
X221906Y150942D01*
X221904Y150942D01*
X221614Y150947D01*
X221612Y150947D01*
X221322Y150952D01*
X221320Y150952D01*
X221030Y150957D01*
X221028Y150957D01*
X220737Y150962D01*
X220736Y150962D01*
X220445Y150966D01*
X220445Y150967D01*
X220444Y150967D01*
X220153Y150971D01*
X220151Y150971D01*
X219861Y150976D01*
X219859Y150976D01*
X219569Y150981D01*
X219567Y150981D01*
X219277Y150986D01*
X219275Y150986D01*
X218985Y150991D01*
X218983Y150991D01*
X218692Y150996D01*
X218691Y150996D01*
X218400Y151001D01*
X218398Y151001D01*
X218108Y151006D01*
X218106Y151006D01*
X217816Y151011D01*
X217814Y151011D01*
X217524Y151016D01*
X217522Y151016D01*
X217232Y151021D01*
X217230Y151021D01*
X216939Y151026D01*
X216938Y151026D01*
X216647Y151031D01*
X216646Y151031D01*
X216355Y151036D01*
X216353Y151036D01*
X216063Y151041D01*
X216061Y151041D01*
X215771Y151046D01*
X215769Y151046D01*
X215479Y151051D01*
X215477Y151051D01*
X215187Y151056D01*
X215185Y151056D01*
X214894Y151061D01*
X214893Y151061D01*
X214602Y151066D01*
X214600Y151066D01*
X214310Y151071D01*
X214308Y151071D01*
X214018Y151076D01*
X214016Y151076D01*
X213726Y151081D01*
X213724Y151081D01*
X213434Y151086D01*
X213432Y151086D01*
X213142Y151091D01*
X213141Y151091D01*
X213140Y151091D01*
X212849Y151096D01*
X212848Y151096D01*
X212557Y151101D01*
X212555Y151101D01*
X212265Y151106D01*
X212263Y151106D01*
X211973Y151111D01*
X211971Y151111D01*
X211681Y151116D01*
X211679Y151116D01*
X211389Y151121D01*
X211387Y151121D01*
X211096Y151125D01*
X211096Y151126D01*
X211095Y151126D01*
X210804Y151130D01*
X210803Y151130D01*
X210512Y151135D01*
X210510Y151135D01*
X210220Y151140D01*
X210218Y151140D01*
X209928Y151145D01*
X209926Y151145D01*
X209636Y151150D01*
X209634Y151150D01*
X209344Y151155D01*
X209342Y151155D01*
X209051Y151160D01*
X209050Y151160D01*
X208796Y151165D01*
X208796Y151164D01*
X208795Y151165D01*
X191587Y149231D01*
X191571Y149230D01*
X191500Y149225D01*
X191430Y149220D01*
X191359Y149215D01*
X191288Y149210D01*
X191217Y149205D01*
X191146Y149200D01*
X191076Y149196D01*
X191005Y149191D01*
X190934Y149186D01*
X190863Y149181D01*
X190793Y149176D01*
X190792Y149176D01*
X190722Y149171D01*
X190651Y149166D01*
X190580Y149161D01*
X190509Y149156D01*
X190439Y149151D01*
X190438Y149151D01*
X190368Y149146D01*
X190297Y149141D01*
X190226Y149136D01*
X190155Y149131D01*
X190085Y149126D01*
X190014Y149121D01*
X189943Y149116D01*
X189872Y149111D01*
X189801Y149106D01*
X189731Y149101D01*
X189660Y149096D01*
X189589Y149091D01*
X189518Y149086D01*
X189447Y149081D01*
X189377Y149076D01*
X189306Y149071D01*
X189235Y149066D01*
X189164Y149061D01*
X189094Y149056D01*
X189093Y149056D01*
X189023Y149051D01*
X188952Y149046D01*
X188881Y149041D01*
X188810Y149037D01*
X188740Y149032D01*
X188739Y149032D01*
X188669Y149027D01*
X188598Y149022D01*
X188527Y149017D01*
X188456Y149012D01*
X188386Y149007D01*
X188315Y149002D01*
X188244Y148997D01*
X188173Y148992D01*
X188102Y148987D01*
X188032Y148982D01*
X187961Y148977D01*
X187890Y148972D01*
X187819Y148967D01*
X187748Y148962D01*
X187678Y148957D01*
X187607Y148952D01*
X187536Y148947D01*
X187465Y148942D01*
X187395Y148937D01*
X187394Y148937D01*
X187324Y148932D01*
X187253Y148927D01*
X187182Y148922D01*
X187111Y148917D01*
X187041Y148912D01*
X187040Y148912D01*
X186970Y148907D01*
X186899Y148902D01*
X186828Y148897D01*
X186757Y148892D01*
X186687Y148887D01*
X186616Y148882D01*
X186545Y148878D01*
X186474Y148873D01*
X186403Y148868D01*
X186333Y148863D01*
X186262Y148858D01*
X186191Y148853D01*
X186120Y148848D01*
X186049Y148843D01*
X185979Y148838D01*
X185908Y148833D01*
X185837Y148828D01*
X185766Y148823D01*
X185696Y148818D01*
X185695Y148818D01*
X185625Y148813D01*
X185554Y148808D01*
X185483Y148803D01*
X185412Y148798D01*
X185342Y148793D01*
X185341Y148793D01*
X185271Y148788D01*
X185200Y148783D01*
X185129Y148778D01*
X185058Y148773D01*
X184988Y148768D01*
X184917Y148763D01*
X184846Y148758D01*
X184775Y148753D01*
X184704Y148748D01*
X184634Y148743D01*
X184563Y148738D01*
X184492Y148733D01*
X184421Y148728D01*
X184350Y148723D01*
X184280Y148719D01*
X184209Y148714D01*
X184138Y148709D01*
X184067Y148704D01*
X183997Y148699D01*
X183996Y148699D01*
X183926Y148694D01*
X183855Y148689D01*
X183784Y148684D01*
X183713Y148679D01*
X183643Y148674D01*
X183642Y148674D01*
X183572Y148669D01*
X183501Y148664D01*
X183430Y148659D01*
X183359Y148654D01*
X183289Y148649D01*
X183218Y148644D01*
X183147Y148639D01*
X183076Y148634D01*
X183005Y148629D01*
X182935Y148624D01*
X182864Y148619D01*
X182793Y148614D01*
X182722Y148609D01*
X182651Y148604D01*
X182581Y148599D01*
X182510Y148594D01*
X182439Y148589D01*
X182368Y148584D01*
X182298Y148579D01*
X182297Y148579D01*
X182227Y148574D01*
X182156Y148569D01*
X182085Y148564D01*
X182014Y148560D01*
X181944Y148555D01*
X181943Y148555D01*
X181873Y148550D01*
X181802Y148545D01*
X181731Y148540D01*
X181660Y148535D01*
X181590Y148530D01*
X181519Y148525D01*
X181448Y148520D01*
X181377Y148515D01*
X181306Y148510D01*
X181236Y148505D01*
X181165Y148500D01*
X181094Y148495D01*
X181023Y148490D01*
X180952Y148485D01*
X180882Y148480D01*
X180811Y148475D01*
X180740Y148470D01*
X180669Y148465D01*
X180599Y148460D01*
X180598Y148460D01*
X180528Y148455D01*
X180457Y148450D01*
X180386Y148445D01*
X180315Y148440D01*
X180245Y148435D01*
X180244Y148435D01*
X180174Y148430D01*
X180103Y148425D01*
X180032Y148420D01*
X179961Y148415D01*
X179891Y148410D01*
X179890Y148410D01*
X179820Y148405D01*
X179749Y148401D01*
X179678Y148396D01*
X179607Y148391D01*
X179537Y148386D01*
X179466Y148381D01*
X179395Y148376D01*
X179324Y148371D01*
X179253Y148366D01*
X179183Y148361D01*
X179112Y148356D01*
X179041Y148351D01*
X178970Y148346D01*
X178899Y148341D01*
X178829Y148336D01*
X178758Y148331D01*
X178687Y148326D01*
X178616Y148321D01*
X178546Y148316D01*
X178545Y148316D01*
X178475Y148311D01*
X178404Y148306D01*
X178333Y148301D01*
X178262Y148296D01*
X178192Y148291D01*
X178191Y148291D01*
X178121Y148286D01*
X178050Y148281D01*
X177979Y148276D01*
X177908Y148271D01*
X177838Y148266D01*
X177767Y148261D01*
X177696Y148256D01*
X177625Y148251D01*
X177554Y148246D01*
X177484Y148242D01*
X177413Y148237D01*
X177342Y148232D01*
X177271Y148227D01*
X177200Y148222D01*
X177130Y148217D01*
X177059Y148212D01*
X176988Y148207D01*
X176917Y148202D01*
X176847Y148197D01*
X176846Y148197D01*
X176776Y148192D01*
X176705Y148187D01*
X176634Y148182D01*
X176563Y148177D01*
X176493Y148172D01*
X176492Y148172D01*
X176422Y148167D01*
X176351Y148162D01*
X176280Y148157D01*
X176209Y148152D01*
X176139Y148147D01*
X176068Y148142D01*
X175997Y148137D01*
X175926Y148132D01*
X175855Y148127D01*
X175785Y148122D01*
X175714Y148117D01*
X175643Y148112D01*
X175572Y148107D01*
X175501Y148102D01*
X175431Y148097D01*
X175360Y148092D01*
X175289Y148087D01*
X175218Y148083D01*
X175148Y148078D01*
X175147Y148078D01*
X175077Y148073D01*
X175006Y148068D01*
X174935Y148063D01*
X174864Y148058D01*
X174794Y148053D01*
X174793Y148053D01*
X174723Y148048D01*
X174652Y148043D01*
X174581Y148038D01*
X174510Y148033D01*
X174440Y148028D01*
X174369Y148023D01*
X174298Y148018D01*
X174227Y148013D01*
X174156Y148008D01*
X174086Y148003D01*
X174015Y147998D01*
X173944Y147993D01*
X173873Y147988D01*
X173802Y147983D01*
X173732Y147978D01*
X173661Y147973D01*
X173590Y147968D01*
X173519Y147963D01*
X173449Y147958D01*
X173448Y147958D01*
X173378Y147953D01*
X173307Y147948D01*
X173236Y147943D01*
X173165Y147938D01*
X173095Y147933D01*
X173094Y147933D01*
X173024Y147928D01*
X172953Y147924D01*
X172882Y147919D01*
X172811Y147914D01*
X172741Y147909D01*
X172670Y147904D01*
X172599Y147899D01*
X172528Y147894D01*
X172457Y147889D01*
X172387Y147884D01*
X172316Y147879D01*
X172245Y147874D01*
X172174Y147869D01*
X172103Y147864D01*
X172033Y147859D01*
X171962Y147854D01*
X171891Y147849D01*
X171820Y147844D01*
X171750Y147839D01*
X171749Y147839D01*
X171679Y147834D01*
X171608Y147829D01*
X171537Y147824D01*
X171466Y147819D01*
X171396Y147814D01*
X171395Y147814D01*
X171325Y147809D01*
X171254Y147804D01*
X171183Y147799D01*
X171112Y147794D01*
X171042Y147789D01*
X170971Y147784D01*
X170900Y147779D01*
X170829Y147774D01*
X170758Y147769D01*
X170688Y147765D01*
X170617Y147760D01*
X170546Y147755D01*
X170475Y147750D01*
X170404Y147745D01*
X170334Y147740D01*
X170263Y147735D01*
X170192Y147730D01*
X170121Y147725D01*
X170051Y147720D01*
X170050Y147720D01*
X169980Y147715D01*
X169909Y147710D01*
X169838Y147705D01*
X169767Y147700D01*
X169697Y147695D01*
X169696Y147695D01*
X169626Y147690D01*
X169555Y147685D01*
X169484Y147680D01*
X169413Y147675D01*
X169343Y147670D01*
X169272Y147665D01*
X169201Y147660D01*
X169130Y147655D01*
X169059Y147650D01*
X168989Y147645D01*
X168918Y147640D01*
X168847Y147635D01*
X168776Y147630D01*
X168705Y147625D01*
X168635Y147620D01*
X168564Y147615D01*
X168493Y147610D01*
X168422Y147606D01*
X168352Y147601D01*
X168351Y147601D01*
X168281Y147596D01*
X168210Y147591D01*
X168139Y147586D01*
X168068Y147581D01*
X167998Y147576D01*
X167997Y147576D01*
X167927Y147571D01*
X167856Y147566D01*
X167785Y147561D01*
X167714Y147556D01*
X167644Y147551D01*
X167573Y147546D01*
X167502Y147541D01*
X167431Y147536D01*
X167360Y147531D01*
X167290Y147526D01*
X167219Y147521D01*
X167148Y147516D01*
X167077Y147511D01*
X167006Y147506D01*
X166936Y147501D01*
X166865Y147496D01*
X166794Y147491D01*
X166723Y147486D01*
X166653Y147481D01*
X166652Y147481D01*
X166582Y147476D01*
X166511Y147471D01*
X166440Y147466D01*
X166369Y147461D01*
X166299Y147456D01*
X166298Y147456D01*
X166228Y147451D01*
X166157Y147447D01*
X166086Y147442D01*
X166015Y147437D01*
X165945Y147432D01*
X165874Y147427D01*
X165803Y147422D01*
X165732Y147417D01*
X165661Y147412D01*
X165591Y147407D01*
X165520Y147402D01*
X165449Y147397D01*
X165378Y147392D01*
X165307Y147387D01*
X165237Y147382D01*
X165166Y147377D01*
X165095Y147372D01*
X165024Y147367D01*
X164954Y147362D01*
X164953Y147362D01*
X164883Y147357D01*
X164812Y147352D01*
X164741Y147347D01*
X164670Y147342D01*
X164600Y147337D01*
X164599Y147337D01*
X164529Y147332D01*
X164458Y147327D01*
X164387Y147322D01*
X164316Y147317D01*
X164246Y147312D01*
X164175Y147307D01*
X164104Y147302D01*
X164033Y147297D01*
X163962Y147292D01*
X163892Y147288D01*
X163821Y147283D01*
X163750Y147278D01*
X163679Y147273D01*
X163608Y147268D01*
X163538Y147263D01*
X163467Y147258D01*
X163396Y147253D01*
X163325Y147248D01*
X163255Y147243D01*
X163254Y147243D01*
X163184Y147238D01*
X163113Y147233D01*
X163042Y147228D01*
X162971Y147223D01*
X162901Y147218D01*
X162900Y147218D01*
X162830Y147213D01*
X162759Y147208D01*
X162688Y147203D01*
X162617Y147198D01*
X162547Y147193D01*
X162476Y147188D01*
X162405Y147183D01*
X162334Y147178D01*
X162263Y147173D01*
X162193Y147168D01*
X162122Y147163D01*
X162051Y147158D01*
X161980Y147153D01*
X161909Y147148D01*
X161839Y147143D01*
X161768Y147138D01*
X161697Y147133D01*
X161626Y147129D01*
X161556Y147124D01*
X161555Y147124D01*
X161485Y147119D01*
X161414Y147114D01*
X161343Y147109D01*
X161272Y147104D01*
X161202Y147099D01*
X161201Y147099D01*
X161131Y147094D01*
X161060Y147089D01*
X160989Y147084D01*
X160918Y147079D01*
X160848Y147074D01*
X160777Y147069D01*
X160706Y147064D01*
X160635Y147059D01*
X160564Y147054D01*
X160494Y147049D01*
X160423Y147044D01*
X160352Y147039D01*
X160281Y147034D01*
X160210Y147029D01*
X160140Y147024D01*
X160069Y147019D01*
X159998Y147014D01*
X159927Y147009D01*
X159857Y147004D01*
X159856Y147004D01*
X159786Y146999D01*
X159715Y146994D01*
X159644Y146989D01*
X159573Y146984D01*
X159503Y146979D01*
X159502Y146979D01*
X159432Y146974D01*
X159361Y146970D01*
X159290Y146965D01*
X159219Y146960D01*
X159149Y146955D01*
X159078Y146950D01*
X159007Y146945D01*
X158936Y146940D01*
X158865Y146935D01*
X158795Y146930D01*
X158724Y146925D01*
X158653Y146920D01*
X158582Y146915D01*
X158511Y146910D01*
X158441Y146905D01*
X158370Y146900D01*
X158299Y146895D01*
X158228Y146890D01*
X158158Y146885D01*
X158157Y146885D01*
X158087Y146880D01*
X158016Y146875D01*
X157945Y146870D01*
X157874Y146865D01*
X157804Y146860D01*
X157803Y146860D01*
X157733Y146855D01*
X157662Y146850D01*
X157591Y146845D01*
X157520Y146840D01*
X157450Y146835D01*
X157379Y146830D01*
X157308Y146825D01*
X157237Y146820D01*
X157166Y146815D01*
X157096Y146811D01*
X157025Y146806D01*
X156954Y146801D01*
X156883Y146796D01*
X156812Y146791D01*
X156742Y146786D01*
X156671Y146781D01*
X156600Y146776D01*
X156529Y146771D01*
X156459Y146766D01*
X156458Y146766D01*
X156388Y146761D01*
X156317Y146756D01*
X156246Y146751D01*
X156175Y146746D01*
X156105Y146741D01*
X156104Y146741D01*
X156034Y146736D01*
X155963Y146731D01*
X155892Y146726D01*
X155821Y146721D01*
X155751Y146716D01*
X155750Y146716D01*
X155680Y146711D01*
X155609Y146706D01*
X155538Y146701D01*
X155467Y146696D01*
X155397Y146691D01*
X155326Y146686D01*
X155255Y146681D01*
X155184Y146676D01*
X155113Y146671D01*
X155043Y146666D01*
X154972Y146661D01*
X154901Y146656D01*
X154830Y146652D01*
X154760Y146647D01*
X154759Y146647D01*
X154689Y146642D01*
X154618Y146637D01*
X154547Y146632D01*
X154476Y146627D01*
X154406Y146622D01*
X154405Y146622D01*
X154335Y146617D01*
X154264Y146612D01*
X154247Y146611D01*
X154247Y146610D01*
X154247Y146611D01*
X130173Y142131D01*
X129586Y142054D01*
X126332Y141416D01*
X121271Y140475D01*
X121203Y140478D01*
X121102Y140483D01*
X121101Y140483D01*
X121000Y140488D01*
X120899Y140493D01*
X120898Y140493D01*
X120797Y140498D01*
X120696Y140503D01*
X120695Y140503D01*
X120594Y140508D01*
X120493Y140513D01*
X120492Y140513D01*
X120391Y140518D01*
X120290Y140523D01*
X120289Y140523D01*
X120188Y140527D01*
X120188Y140528D01*
X120086Y140532D01*
X119985Y140537D01*
X119984Y140537D01*
X119883Y140542D01*
X119782Y140547D01*
X119781Y140547D01*
X119760Y140548D01*
X119680Y140552D01*
X119578Y140557D01*
X119477Y140562D01*
X119476Y140562D01*
X119375Y140567D01*
X119374Y140567D01*
X119273Y140572D01*
X119171Y140577D01*
X119070Y140582D01*
X119069Y140582D01*
X118968Y140587D01*
X118967Y140587D01*
X118866Y140592D01*
X118764Y140597D01*
X118663Y140602D01*
X118662Y140602D01*
X118561Y140607D01*
X118560Y140607D01*
X118459Y140612D01*
X118357Y140617D01*
X118256Y140622D01*
X118255Y140622D01*
X118154Y140627D01*
X118153Y140627D01*
X118052Y140632D01*
X117950Y140637D01*
X117848Y140642D01*
X117747Y140647D01*
X117746Y140647D01*
X117645Y140652D01*
X117543Y140657D01*
X117441Y140662D01*
X117340Y140667D01*
X117339Y140667D01*
X117238Y140672D01*
X117237Y140672D01*
X117136Y140677D01*
X117034Y140682D01*
X116933Y140686D01*
X116933Y140687D01*
X116932Y140687D01*
X116831Y140691D01*
X116830Y140691D01*
X116729Y140696D01*
X116627Y140701D01*
X116526Y140706D01*
X116525Y140706D01*
X116424Y140711D01*
X116423Y140711D01*
X116322Y140716D01*
X116220Y140721D01*
X116119Y140726D01*
X116118Y140726D01*
X116017Y140731D01*
X116016Y140731D01*
X115915Y140736D01*
X115813Y140741D01*
X115712Y140746D01*
X115711Y140746D01*
X115610Y140751D01*
X115609Y140751D01*
X115508Y140756D01*
X115406Y140761D01*
X115305Y140766D01*
X115304Y140766D01*
X115203Y140771D01*
X115202Y140771D01*
X115101Y140776D01*
X114999Y140781D01*
X114898Y140786D01*
X114897Y140786D01*
X114796Y140791D01*
X114795Y140791D01*
X114694Y140796D01*
X114592Y140801D01*
X114561Y140802D01*
X110277Y148323D01*
X111898Y153024D01*
X113685Y158213D01*
X118857Y162384D01*
X122950Y165731D01*
X125266Y167625D01*
X125722Y167241D01*
X125723Y167241D01*
X125726Y167241D01*
X125728Y167241D01*
X127610Y169103D01*
X127610Y169109D01*
X127610Y169110D01*
X127350Y169329D01*
X127615Y169546D01*
X132687Y172878D01*
X137832Y176007D01*
X140091Y177382D01*
X142673Y178494D01*
X142673Y178495D01*
X142674Y178495D01*
X144795Y180071D01*
X145595Y180666D01*
X145596Y180668D01*
X145597Y180669D01*
X145745Y182286D01*
X145742Y182291D01*
X145741Y182291D01*
X144477Y182498D01*
X137854Y183582D01*
X131373Y187537D01*
X128432Y192757D01*
X128521Y192918D01*
X128943Y193179D01*
X129497Y193524D01*
X130051Y193868D01*
X131108Y194524D01*
X132166Y195180D01*
X133223Y195837D01*
X134066Y196359D01*
X134067Y196362D01*
X134069Y196364D01*
X134094Y197607D01*
X134092Y197610D01*
X134091Y197612D01*
X133223Y198129D01*
X122577Y204479D01*
X117254Y207654D01*
X116018Y208392D01*
X116011Y208391D01*
X114933Y206981D01*
X114933Y206978D01*
X114933Y206976D01*
X115437Y205838D01*
X118880Y198077D01*
X122322Y190316D01*
X125765Y182555D01*
X126320Y181302D01*
X126326Y181299D01*
X126326Y181300D01*
X126326Y181299D01*
X128236Y181988D01*
X128238Y181992D01*
X128240Y181993D01*
X128240Y187686D01*
X129389Y185646D01*
X129391Y185645D01*
X129391Y185644D01*
X136501Y181127D01*
X136502Y181127D01*
X136503Y181126D01*
X140833Y180417D01*
X140816Y180405D01*
X137609Y179003D01*
X137609Y179002D01*
X137608Y179002D01*
X134811Y177269D01*
X128857Y173578D01*
X125272Y171080D01*
X122125Y173733D01*
X118739Y178375D01*
X115942Y183019D01*
X113057Y187808D01*
X110954Y193008D01*
X109607Y198429D01*
X108832Y201546D01*
X108416Y204733D01*
X108235Y207936D01*
X108148Y209473D01*
X108148Y209474D01*
X107777Y211602D01*
X108201Y212715D01*
X108605Y212712D01*
X108610Y212716D01*
X108610Y212717D01*
X108610Y212718D01*
X108522Y213558D01*
X110289Y218201D01*
X115440Y221354D01*
X121147Y220273D01*
X123896Y219752D01*
X126436Y218459D01*
X128821Y217044D01*
X129557Y216607D01*
X130265Y216124D01*
X130972Y215643D01*
X131044Y215595D01*
X133375Y213964D01*
X133377Y213964D01*
X133377Y213963D01*
X133379Y213964D01*
X133382Y213965D01*
X133382Y213967D01*
X133383Y213968D01*
X133383Y213977D01*
X133574Y213649D01*
X133575Y213649D01*
X133575Y213648D01*
X133871Y213373D01*
X135496Y211867D01*
X137220Y210463D01*
X138961Y209094D01*
X146532Y203143D01*
X154914Y198039D01*
X154915Y198039D01*
X164068Y194943D01*
X171273Y192507D01*
X171274Y192507D01*
X171274Y192506D01*
X182520Y190405D01*
X182521Y190405D01*
X182522Y190405D01*
X182522Y190406D01*
X182524Y190406D01*
X188907Y195694D01*
X192275Y198483D01*
X195774Y201118D01*
X199410Y203548D01*
X201427Y204896D01*
X203511Y206145D01*
X205676Y207243D01*
X207494Y208165D01*
X209322Y208541D01*
X211222Y209158D01*
X212537Y209586D01*
X214146Y209568D01*
X215509Y209683D01*
X219135Y209990D01*
X222780Y209910D01*
X226394Y209522D01*
X231814Y208941D01*
X236661Y207257D01*
X241309Y204468D01*
X245432Y201993D01*
X249306Y199082D01*
X249307Y199082D01*
X253052Y196075D01*
X253889Y195402D01*
X254719Y194718D01*
X255538Y194023D01*
X256802Y192948D01*
X256804Y192948D01*
X256805Y192947D01*
X258950Y192741D01*
X260519Y192454D01*
X271017Y190531D01*
X271019Y190532D01*
X271020Y190531D01*
X281780Y194520D01*
X281781Y194521D01*
X281781Y194520D01*
X290872Y199473D01*
X297367Y203012D01*
X297367Y203013D01*
X297368Y203013D01*
X303510Y207418D01*
X303511Y207418D01*
X309019Y212358D01*
X309460Y212755D01*
X309946Y213122D01*
X309947Y213125D01*
X309948Y213126D01*
X309948Y213285D01*
X312283Y214935D01*
X312348Y214982D01*
X313047Y215476D01*
X313773Y215930D01*
X314500Y216382D01*
X316034Y217337D01*
X317662Y218147D01*
X319350Y218795D01*
X323075Y220223D01*
X327129Y220382D01*
X330540Y218135D01*
X332588Y216786D01*
X334387Y214232D01*
X334841Y212866D01*
X334823Y212725D01*
X334823Y212724D01*
X334826Y212719D01*
X334827Y212720D01*
X334828Y212719D01*
X334889Y212719D01*
X335017Y212336D01*
X335395Y201792D01*
X332195Y190902D01*
X326080Y181358D01*
X323483Y177305D01*
X320310Y173132D01*
X317971Y171297D01*
X309488Y176683D01*
X303645Y179797D01*
X307186Y180377D01*
X307187Y180378D01*
X307188Y180378D01*
X314299Y184895D01*
X314299Y184896D01*
X314300Y184896D01*
X315450Y186938D01*
X315450Y181244D01*
X315453Y181241D01*
X315454Y181239D01*
X317363Y180550D01*
X317364Y180551D01*
X317364Y180550D01*
X317365Y180550D01*
X317366Y180552D01*
X317369Y180553D01*
X317925Y181805D01*
X321367Y189567D01*
X324810Y197328D01*
X328252Y205089D01*
X328757Y206227D01*
X328757Y206228D01*
X328758Y206228D01*
X328756Y206229D01*
X328756Y206230D01*
X328757Y206232D01*
X327679Y207641D01*
X327672Y207643D01*
X327672Y207642D01*
X327672Y207643D01*
X326436Y206905D01*
X321112Y203730D01*
X315790Y200555D01*
X310466Y197380D01*
X309598Y196862D01*
X309597Y196860D01*
X309596Y196858D01*
X309596Y196857D01*
X309621Y195614D01*
X309623Y195612D01*
X309623Y195610D01*
X310466Y195087D01*
X311524Y194431D01*
X312581Y193775D01*
X313638Y193118D01*
X314193Y192774D01*
X314747Y192430D01*
X315168Y192169D01*
X315258Y192007D01*
X312318Y186788D01*
X305836Y182832D01*
X299214Y181748D01*
X298068Y181561D01*
X298065Y181557D01*
X298064Y181556D01*
X297943Y179832D01*
X297945Y179830D01*
X297946Y179828D01*
X298896Y179321D01*
X306440Y175300D01*
X313763Y170586D01*
X315391Y169273D01*
X315144Y169079D01*
X315143Y169076D01*
X315143Y169075D01*
X315143Y169073D01*
X315143Y169072D01*
X317030Y167213D01*
X317036Y167212D01*
X317498Y167575D01*
X320415Y165223D01*
X324594Y161853D01*
X328996Y157954D01*
X331281Y152992D01*
X333473Y148233D01*
X328898Y140300D01*
X328872Y140298D01*
X328871Y140298D01*
X328770Y140293D01*
X328668Y140288D01*
X328567Y140283D01*
X328566Y140283D01*
X328465Y140279D01*
X328465Y140278D01*
X328363Y140274D01*
X328262Y140269D01*
X328261Y140269D01*
X328160Y140264D01*
X328159Y140264D01*
X328058Y140259D01*
X327956Y140254D01*
X327855Y140249D01*
X327854Y140249D01*
X327753Y140244D01*
X327651Y140239D01*
X327550Y140234D01*
X327549Y140234D01*
X327448Y140229D01*
X327447Y140229D01*
X327346Y140224D01*
X327244Y140219D01*
X327143Y140214D01*
X327142Y140214D01*
X327041Y140209D01*
X326939Y140204D01*
X326838Y140199D01*
X326837Y140199D01*
X326736Y140194D01*
X326634Y140189D01*
X326533Y140184D01*
X326532Y140184D01*
X326431Y140179D01*
X326430Y140179D01*
X326329Y140174D01*
X326227Y140169D01*
X326126Y140164D01*
X326125Y140164D01*
X326024Y140159D01*
X325922Y140154D01*
X325821Y140149D01*
X325820Y140149D01*
X325719Y140144D01*
X325718Y140144D01*
X325617Y140139D01*
X325515Y140134D01*
X325414Y140129D01*
X325413Y140129D01*
X325312Y140124D01*
X325210Y140120D01*
X325210Y140119D01*
X325109Y140115D01*
X325108Y140115D01*
X325007Y140110D01*
X324905Y140105D01*
X324804Y140100D01*
X324803Y140100D01*
X324702Y140095D01*
X324701Y140095D01*
X324600Y140090D01*
X324498Y140085D01*
X324397Y140080D01*
X324396Y140080D01*
X324295Y140075D01*
X324193Y140070D01*
X324092Y140065D01*
X324091Y140065D01*
X323990Y140060D01*
X323989Y140060D01*
X323888Y140055D01*
X323786Y140050D01*
X323685Y140045D01*
X323684Y140045D01*
X323605Y140041D01*
X323583Y140040D01*
X323481Y140035D01*
X323380Y140030D01*
X323379Y140030D01*
X323278Y140025D01*
X323177Y140020D01*
X323176Y140020D01*
X323075Y140015D01*
X322974Y140010D01*
X322973Y140010D01*
X322872Y140005D01*
X322770Y140000D01*
X322669Y139995D01*
X322668Y139995D01*
X322567Y139990D01*
X322466Y139985D01*
X322465Y139985D01*
X322461Y139985D01*
X266977Y150175D01*
G37*
%LPD*%
G36*
X247284Y215890D02*
X247284Y215890D01*
X247285Y215890D01*
X271431Y227744D01*
X272705Y228238D01*
X280165Y231252D01*
X284909Y233168D01*
X284909Y233169D01*
X289610Y235221D01*
X294211Y237458D01*
X295368Y238020D01*
X295369Y238023D01*
X295370Y238024D01*
X295492Y240644D01*
X295715Y241680D01*
X296675Y246142D01*
X297350Y250664D01*
X297666Y253451D01*
X302053Y269609D01*
X302053Y269610D01*
X302053Y269611D01*
X302053Y269612D01*
X299133Y279675D01*
X298938Y284781D01*
X298937Y284781D01*
X298937Y284782D01*
X294924Y298935D01*
X294714Y299676D01*
X294711Y299677D01*
X294711Y299679D01*
X294007Y299990D01*
X294005Y299990D01*
X294004Y299991D01*
X293290Y299863D01*
X279705Y297428D01*
X265887Y294809D01*
X258035Y292215D01*
X248547Y290517D01*
X248545Y290515D01*
X248543Y290515D01*
X247540Y288930D01*
X244650Y288239D01*
X244648Y288237D01*
X244646Y288236D01*
X243599Y284540D01*
X242031Y279010D01*
X242031Y279009D01*
X241766Y275827D01*
X239018Y268289D01*
X239018Y268288D01*
X239018Y268287D01*
X240773Y257155D01*
X240645Y254496D01*
X240645Y254495D01*
X241932Y241521D01*
X241932Y241520D01*
X243916Y228777D01*
X244994Y222910D01*
X244999Y222906D01*
X246160Y222987D01*
X247278Y215893D01*
X247279Y215893D01*
X247280Y215892D01*
X247283Y215889D01*
X247284Y215890D01*
G37*
G36*
X200065Y216239D02*
X200065Y216239D01*
X200069Y216240D01*
X200069Y216241D01*
X200070Y216242D01*
X202157Y229477D01*
X208330Y268635D01*
X208330Y268636D01*
X208330Y268637D01*
X202156Y285571D01*
X202156Y285572D01*
X198805Y290863D01*
X198802Y290864D01*
X198801Y290866D01*
X153706Y298935D01*
X153701Y298932D01*
X145295Y269960D01*
X145296Y269958D01*
X145295Y269957D01*
X153701Y239001D01*
X153703Y239000D01*
X153703Y238998D01*
X200063Y216238D01*
X200064Y216238D01*
X200065Y216239D01*
G37*
%LPC*%
G36*
X305960Y308613D02*
X305960Y308613D01*
X305727Y308867D01*
X305727Y312211D01*
X305974Y313483D01*
X305973Y313485D01*
X305973Y313487D01*
X305191Y314242D01*
X298477Y320721D01*
X291762Y327200D01*
X285048Y333679D01*
X284224Y334475D01*
X284220Y334475D01*
X284218Y334476D01*
X282955Y333980D01*
X282933Y333979D01*
X282932Y333979D01*
X282822Y333974D01*
X282734Y333970D01*
X282722Y333984D01*
X282719Y333984D01*
X282718Y333984D01*
X282715Y333984D01*
X282714Y333984D01*
X282699Y333969D01*
X282602Y333965D01*
X282601Y333964D01*
X282492Y333960D01*
X282491Y333960D01*
X282381Y333955D01*
X282271Y333950D01*
X282161Y333945D01*
X282160Y333945D01*
X282051Y333940D01*
X282050Y333940D01*
X281940Y333935D01*
X281830Y333930D01*
X281720Y333925D01*
X281719Y333925D01*
X281610Y333920D01*
X281609Y333920D01*
X281499Y333915D01*
X281389Y333910D01*
X281279Y333905D01*
X281278Y333905D01*
X281169Y333900D01*
X281168Y333900D01*
X281058Y333895D01*
X280948Y333890D01*
X280838Y333885D01*
X280837Y333885D01*
X280728Y333880D01*
X280727Y333880D01*
X280617Y333875D01*
X280507Y333870D01*
X280397Y333865D01*
X280396Y333865D01*
X280287Y333860D01*
X280286Y333860D01*
X280176Y333855D01*
X280066Y333850D01*
X279956Y333845D01*
X279955Y333845D01*
X279845Y333840D01*
X279735Y333835D01*
X279625Y333830D01*
X279624Y333830D01*
X279515Y333825D01*
X279514Y333825D01*
X279404Y333820D01*
X279294Y333815D01*
X279184Y333810D01*
X279183Y333810D01*
X279074Y333806D01*
X279073Y333806D01*
X279073Y333805D01*
X278963Y333801D01*
X278853Y333796D01*
X278743Y333791D01*
X278742Y333791D01*
X278633Y333786D01*
X278632Y333786D01*
X278522Y333781D01*
X278412Y333776D01*
X278302Y333771D01*
X278301Y333771D01*
X278192Y333766D01*
X278191Y333766D01*
X278081Y333761D01*
X277971Y333756D01*
X277861Y333751D01*
X277860Y333751D01*
X277751Y333746D01*
X277750Y333746D01*
X277640Y333741D01*
X277530Y333736D01*
X277420Y333731D01*
X277419Y333731D01*
X277310Y333726D01*
X277309Y333726D01*
X277199Y333721D01*
X277089Y333716D01*
X277088Y333716D01*
X276979Y333711D01*
X276978Y333711D01*
X276868Y333706D01*
X276758Y333701D01*
X276648Y333696D01*
X276647Y333696D01*
X276538Y333691D01*
X276537Y333691D01*
X276427Y333686D01*
X276317Y333681D01*
X276207Y333676D01*
X276206Y333676D01*
X276097Y333671D01*
X276096Y333671D01*
X275986Y333666D01*
X275876Y333661D01*
X275766Y333656D01*
X275765Y333656D01*
X275656Y333651D01*
X275655Y333651D01*
X275545Y333647D01*
X275545Y333646D01*
X275435Y333642D01*
X275325Y333637D01*
X275324Y333637D01*
X275215Y333632D01*
X275214Y333632D01*
X275104Y333627D01*
X274994Y333622D01*
X274884Y333617D01*
X274883Y333617D01*
X274774Y333612D01*
X274773Y333612D01*
X274663Y333607D01*
X274553Y333602D01*
X274443Y333597D01*
X274442Y333597D01*
X274332Y333592D01*
X274222Y333587D01*
X274112Y333582D01*
X274111Y333582D01*
X274002Y333577D01*
X274001Y333577D01*
X273891Y333572D01*
X273781Y333567D01*
X273671Y333562D01*
X273670Y333562D01*
X273561Y333557D01*
X273560Y333557D01*
X273450Y333552D01*
X273340Y333547D01*
X273230Y333542D01*
X273229Y333542D01*
X273120Y333537D01*
X273119Y333537D01*
X273009Y333532D01*
X272899Y333527D01*
X272789Y333522D01*
X272788Y333522D01*
X272679Y333517D01*
X272678Y333517D01*
X272568Y333512D01*
X272458Y333507D01*
X272348Y333502D01*
X272347Y333502D01*
X272238Y333497D01*
X272237Y333497D01*
X272127Y333492D01*
X272017Y333488D01*
X272017Y333487D01*
X271907Y333483D01*
X271906Y333483D01*
X271797Y333478D01*
X271796Y333478D01*
X271686Y333473D01*
X271576Y333468D01*
X271466Y333463D01*
X271465Y333463D01*
X271355Y333458D01*
X271245Y333453D01*
X271135Y333448D01*
X271134Y333448D01*
X271025Y333443D01*
X271024Y333443D01*
X270914Y333438D01*
X270804Y333433D01*
X270694Y333428D01*
X270693Y333428D01*
X270584Y333423D01*
X270583Y333423D01*
X270473Y333418D01*
X270363Y333413D01*
X270253Y333408D01*
X270252Y333408D01*
X270143Y333403D01*
X270142Y333403D01*
X270032Y333398D01*
X269922Y333393D01*
X269812Y333388D01*
X269811Y333388D01*
X269702Y333383D01*
X269701Y333383D01*
X269591Y333378D01*
X269481Y333373D01*
X269371Y333368D01*
X269370Y333368D01*
X269261Y333363D01*
X269260Y333363D01*
X269150Y333358D01*
X269040Y333353D01*
X268930Y333348D01*
X268929Y333348D01*
X268820Y333343D01*
X268819Y333343D01*
X268709Y333338D01*
X268599Y333333D01*
X268489Y333329D01*
X268488Y333329D01*
X268488Y333328D01*
X268378Y333324D01*
X268268Y333319D01*
X268158Y333314D01*
X268157Y333314D01*
X268048Y333309D01*
X268047Y333309D01*
X267937Y333304D01*
X267827Y333299D01*
X267717Y333294D01*
X267716Y333294D01*
X267607Y333289D01*
X267606Y333289D01*
X267496Y333284D01*
X267386Y333279D01*
X267276Y333274D01*
X267275Y333274D01*
X267166Y333269D01*
X267165Y333269D01*
X267055Y333264D01*
X266945Y333259D01*
X266835Y333254D01*
X266834Y333254D01*
X266725Y333249D01*
X266724Y333249D01*
X266614Y333244D01*
X266504Y333239D01*
X266394Y333234D01*
X266393Y333234D01*
X266284Y333229D01*
X266283Y333229D01*
X266173Y333224D01*
X266063Y333219D01*
X265953Y333214D01*
X265952Y333214D01*
X265842Y333209D01*
X265732Y333204D01*
X265622Y333199D01*
X265621Y333199D01*
X265512Y333194D01*
X265511Y333194D01*
X265401Y333189D01*
X265291Y333184D01*
X265181Y333179D01*
X265180Y333179D01*
X265071Y333174D01*
X265070Y333174D01*
X264960Y333170D01*
X264960Y333169D01*
X264850Y333165D01*
X264740Y333160D01*
X264739Y333160D01*
X264630Y333155D01*
X264629Y333155D01*
X264519Y333150D01*
X264409Y333145D01*
X264299Y333140D01*
X264298Y333140D01*
X264189Y333135D01*
X264188Y333135D01*
X264078Y333130D01*
X263968Y333125D01*
X263858Y333120D01*
X263857Y333120D01*
X263748Y333115D01*
X263747Y333115D01*
X263637Y333110D01*
X263527Y333105D01*
X263417Y333100D01*
X263416Y333100D01*
X263307Y333095D01*
X263306Y333095D01*
X263196Y333090D01*
X263086Y333085D01*
X262976Y333080D01*
X262975Y333080D01*
X262865Y333075D01*
X262755Y333070D01*
X262645Y333065D01*
X262644Y333065D01*
X262535Y333060D01*
X262534Y333060D01*
X262424Y333055D01*
X262314Y333050D01*
X262204Y333045D01*
X262203Y333045D01*
X262094Y333040D01*
X262093Y333040D01*
X261983Y333035D01*
X261873Y333030D01*
X261763Y333025D01*
X261762Y333025D01*
X261653Y333020D01*
X261652Y333020D01*
X261542Y333015D01*
X261432Y333011D01*
X261432Y333010D01*
X261322Y333006D01*
X261321Y333006D01*
X261212Y333001D01*
X261211Y333001D01*
X261101Y332996D01*
X260991Y332991D01*
X260881Y332986D01*
X260880Y332986D01*
X260771Y332981D01*
X260770Y332981D01*
X260660Y332976D01*
X260550Y332971D01*
X260440Y332966D01*
X260439Y332966D01*
X260330Y332961D01*
X260329Y332961D01*
X260219Y332956D01*
X260109Y332951D01*
X259999Y332946D01*
X259998Y332946D01*
X259888Y332941D01*
X259778Y332936D01*
X259668Y332931D01*
X259667Y332931D01*
X259558Y332926D01*
X259557Y332926D01*
X259447Y332921D01*
X259337Y332916D01*
X259227Y332911D01*
X259226Y332911D01*
X259117Y332906D01*
X259116Y332906D01*
X259006Y332901D01*
X258896Y332896D01*
X258786Y332891D01*
X258785Y332891D01*
X258676Y332886D01*
X258675Y332886D01*
X258565Y332881D01*
X258455Y332876D01*
X258345Y332871D01*
X258344Y332871D01*
X258235Y332866D01*
X258234Y332866D01*
X258124Y332861D01*
X258014Y332856D01*
X257904Y332852D01*
X257903Y332852D01*
X257903Y332851D01*
X257794Y332847D01*
X257793Y332847D01*
X257683Y332842D01*
X257573Y332837D01*
X257489Y332833D01*
X257433Y332837D01*
X257359Y332842D01*
X257285Y332847D01*
X257211Y332852D01*
X257137Y332856D01*
X257063Y332861D01*
X256989Y332866D01*
X256915Y332871D01*
X256841Y332876D01*
X256767Y332881D01*
X256693Y332886D01*
X256692Y332886D01*
X256618Y332891D01*
X256544Y332896D01*
X256470Y332901D01*
X256396Y332906D01*
X256322Y332911D01*
X256248Y332916D01*
X256174Y332921D01*
X256100Y332926D01*
X256026Y332931D01*
X255952Y332936D01*
X255878Y332941D01*
X255877Y332941D01*
X255804Y332946D01*
X255803Y332946D01*
X255729Y332951D01*
X255655Y332956D01*
X255581Y332961D01*
X255507Y332966D01*
X255433Y332971D01*
X255359Y332976D01*
X255285Y332981D01*
X255211Y332986D01*
X255137Y332991D01*
X255063Y332996D01*
X254989Y333001D01*
X254988Y333001D01*
X254914Y333006D01*
X254840Y333011D01*
X254766Y333015D01*
X254692Y333020D01*
X254618Y333025D01*
X254544Y333030D01*
X254470Y333035D01*
X254396Y333040D01*
X254322Y333045D01*
X254248Y333050D01*
X254174Y333055D01*
X254173Y333055D01*
X254100Y333060D01*
X254099Y333060D01*
X254025Y333065D01*
X253951Y333070D01*
X253877Y333075D01*
X253803Y333080D01*
X253729Y333085D01*
X253655Y333090D01*
X253581Y333095D01*
X253507Y333100D01*
X253433Y333105D01*
X253359Y333110D01*
X253285Y333115D01*
X253284Y333115D01*
X253211Y333120D01*
X253210Y333120D01*
X253136Y333125D01*
X253062Y333130D01*
X252988Y333135D01*
X252914Y333140D01*
X252840Y333145D01*
X252766Y333150D01*
X252692Y333155D01*
X252618Y333160D01*
X252544Y333165D01*
X252470Y333170D01*
X252396Y333174D01*
X252395Y333174D01*
X252321Y333179D01*
X252247Y333184D01*
X252173Y333189D01*
X252099Y333194D01*
X252025Y333199D01*
X251951Y333204D01*
X251877Y333209D01*
X251803Y333214D01*
X251729Y333219D01*
X251655Y333224D01*
X251581Y333229D01*
X251580Y333229D01*
X251507Y333234D01*
X251506Y333234D01*
X251432Y333239D01*
X251358Y333244D01*
X251284Y333249D01*
X251210Y333254D01*
X251136Y333259D01*
X251062Y333264D01*
X250988Y333269D01*
X250914Y333274D01*
X250840Y333279D01*
X250766Y333284D01*
X250692Y333289D01*
X250691Y333289D01*
X250617Y333294D01*
X250543Y333299D01*
X250469Y333304D01*
X250395Y333309D01*
X250321Y333314D01*
X250247Y333319D01*
X250173Y333324D01*
X250099Y333329D01*
X250025Y333333D01*
X249951Y333338D01*
X249877Y333343D01*
X249876Y333343D01*
X249803Y333348D01*
X249802Y333348D01*
X249728Y333353D01*
X249654Y333358D01*
X249580Y333363D01*
X249506Y333368D01*
X249432Y333373D01*
X249358Y333378D01*
X249284Y333383D01*
X249210Y333388D01*
X249136Y333393D01*
X249062Y333398D01*
X248988Y333403D01*
X248987Y333403D01*
X248914Y333408D01*
X248913Y333408D01*
X248839Y333413D01*
X248765Y333418D01*
X248691Y333423D01*
X248617Y333428D01*
X248543Y333433D01*
X248469Y333438D01*
X248395Y333443D01*
X248321Y333448D01*
X248247Y333453D01*
X248173Y333458D01*
X248099Y333463D01*
X248098Y333463D01*
X248024Y333468D01*
X247950Y333473D01*
X247876Y333478D01*
X247802Y333483D01*
X247728Y333488D01*
X247654Y333492D01*
X247580Y333497D01*
X247506Y333502D01*
X247432Y333507D01*
X247358Y333512D01*
X247284Y333517D01*
X247283Y333517D01*
X247210Y333522D01*
X247209Y333522D01*
X247135Y333527D01*
X247061Y333532D01*
X246987Y333537D01*
X246913Y333542D01*
X246839Y333547D01*
X246765Y333552D01*
X246691Y333557D01*
X246617Y333562D01*
X246543Y333567D01*
X246469Y333572D01*
X246395Y333577D01*
X246394Y333577D01*
X246321Y333582D01*
X246320Y333582D01*
X246246Y333587D01*
X246172Y333592D01*
X246098Y333597D01*
X246024Y333602D01*
X245950Y333607D01*
X245876Y333612D01*
X245802Y333617D01*
X245728Y333622D01*
X245654Y333627D01*
X245580Y333632D01*
X245506Y333637D01*
X245505Y333637D01*
X245431Y333642D01*
X245357Y333647D01*
X245283Y333651D01*
X245209Y333656D01*
X245135Y333661D01*
X245061Y333666D01*
X244987Y333671D01*
X244913Y333676D01*
X244839Y333681D01*
X244765Y333686D01*
X244691Y333691D01*
X244690Y333691D01*
X244617Y333696D01*
X244616Y333696D01*
X244542Y333701D01*
X244468Y333706D01*
X244394Y333711D01*
X244320Y333716D01*
X244246Y333721D01*
X244172Y333726D01*
X244098Y333731D01*
X244024Y333736D01*
X243950Y333741D01*
X243876Y333746D01*
X243802Y333751D01*
X243801Y333751D01*
X243727Y333756D01*
X243653Y333761D01*
X243579Y333766D01*
X243505Y333771D01*
X243431Y333776D01*
X243357Y333781D01*
X243283Y333786D01*
X243209Y333791D01*
X243135Y333796D01*
X243061Y333801D01*
X242987Y333806D01*
X242986Y333806D01*
X242913Y333810D01*
X242912Y333810D01*
X242838Y333815D01*
X242764Y333820D01*
X242690Y333825D01*
X242616Y333830D01*
X242542Y333835D01*
X242468Y333840D01*
X242394Y333845D01*
X242320Y333850D01*
X242246Y333855D01*
X242172Y333860D01*
X242098Y333865D01*
X242097Y333865D01*
X242024Y333870D01*
X242023Y333870D01*
X241949Y333875D01*
X241875Y333880D01*
X241801Y333885D01*
X241727Y333890D01*
X241653Y333895D01*
X241579Y333900D01*
X241505Y333905D01*
X241431Y333910D01*
X241357Y333915D01*
X241283Y333920D01*
X241209Y333925D01*
X241208Y333925D01*
X241134Y333930D01*
X241060Y333935D01*
X240986Y333940D01*
X240912Y333945D01*
X240838Y333950D01*
X240764Y333955D01*
X240690Y333960D01*
X240616Y333965D01*
X240542Y333969D01*
X240468Y333974D01*
X240394Y333979D01*
X240393Y333979D01*
X240320Y333984D01*
X240319Y333984D01*
X240245Y333989D01*
X240171Y333994D01*
X240097Y333999D01*
X240023Y334004D01*
X239949Y334009D01*
X239875Y334014D01*
X239801Y334019D01*
X239727Y334024D01*
X239653Y334029D01*
X239579Y334034D01*
X239505Y334039D01*
X239504Y334039D01*
X239430Y334044D01*
X239356Y334049D01*
X239282Y334054D01*
X239208Y334059D01*
X239134Y334064D01*
X239060Y334069D01*
X238986Y334074D01*
X238912Y334079D01*
X238838Y334084D01*
X238764Y334089D01*
X238690Y334094D01*
X238689Y334094D01*
X238616Y334099D01*
X238615Y334099D01*
X238541Y334104D01*
X238467Y334109D01*
X238393Y334114D01*
X238319Y334119D01*
X238245Y334124D01*
X238171Y334128D01*
X238097Y334133D01*
X238023Y334138D01*
X237949Y334143D01*
X237875Y334148D01*
X237801Y334153D01*
X237800Y334153D01*
X237727Y334158D01*
X237726Y334158D01*
X237652Y334163D01*
X237578Y334168D01*
X237504Y334173D01*
X237430Y334178D01*
X237356Y334183D01*
X237282Y334188D01*
X237208Y334193D01*
X237134Y334198D01*
X237060Y334203D01*
X236986Y334208D01*
X236912Y334213D01*
X236911Y334213D01*
X236837Y334218D01*
X236763Y334223D01*
X236689Y334228D01*
X236615Y334233D01*
X236541Y334238D01*
X236467Y334243D01*
X236393Y334248D01*
X236319Y334253D01*
X236245Y334258D01*
X236171Y334263D01*
X236097Y334268D01*
X236096Y334268D01*
X236023Y334273D01*
X236022Y334273D01*
X235948Y334278D01*
X235874Y334283D01*
X235800Y334287D01*
X235726Y334292D01*
X235652Y334297D01*
X235578Y334302D01*
X235504Y334307D01*
X235430Y334312D01*
X235356Y334317D01*
X235282Y334322D01*
X235208Y334327D01*
X235207Y334327D01*
X235133Y334332D01*
X235059Y334337D01*
X234985Y334342D01*
X234911Y334347D01*
X234837Y334352D01*
X234763Y334357D01*
X234689Y334362D01*
X234615Y334367D01*
X234541Y334372D01*
X234467Y334377D01*
X234393Y334382D01*
X234392Y334382D01*
X234319Y334387D01*
X234318Y334387D01*
X234244Y334392D01*
X234170Y334397D01*
X234096Y334402D01*
X234022Y334407D01*
X233948Y334412D01*
X233874Y334417D01*
X233800Y334422D01*
X233726Y334427D01*
X233652Y334432D01*
X233578Y334437D01*
X233504Y334442D01*
X233503Y334442D01*
X233430Y334446D01*
X233429Y334446D01*
X233355Y334451D01*
X233281Y334456D01*
X233207Y334461D01*
X233133Y334466D01*
X233059Y334471D01*
X232985Y334476D01*
X232911Y334481D01*
X232837Y334486D01*
X232763Y334491D01*
X232689Y334496D01*
X232615Y334501D01*
X232614Y334501D01*
X232540Y334506D01*
X232466Y334511D01*
X232392Y334516D01*
X232318Y334521D01*
X232244Y334526D01*
X232170Y334531D01*
X232096Y334536D01*
X232022Y334541D01*
X231948Y334546D01*
X231874Y334551D01*
X231800Y334556D01*
X231799Y334556D01*
X231726Y334561D01*
X231725Y334561D01*
X231651Y334566D01*
X231577Y334571D01*
X231503Y334576D01*
X231429Y334581D01*
X231355Y334586D01*
X231281Y334591D01*
X231207Y334596D01*
X231133Y334601D01*
X231059Y334605D01*
X230985Y334610D01*
X230911Y334615D01*
X230910Y334615D01*
X230836Y334620D01*
X230762Y334625D01*
X230688Y334630D01*
X230616Y334635D01*
X204758Y341320D01*
X202085Y342011D01*
X202140Y342136D01*
X204369Y347171D01*
X208324Y351617D01*
X209970Y353121D01*
X210307Y352803D01*
X210309Y352803D01*
X210310Y352802D01*
X210311Y352802D01*
X210312Y352803D01*
X210314Y352803D01*
X210314Y352804D01*
X212188Y354671D01*
X212189Y354675D01*
X212189Y354678D01*
X212188Y354678D01*
X211935Y354916D01*
X212336Y355283D01*
X223073Y365090D01*
X225401Y365747D01*
X225623Y365208D01*
X225629Y365205D01*
X228190Y365886D01*
X228193Y365891D01*
X228193Y365892D01*
X228193Y365893D01*
X227956Y366468D01*
X237492Y369159D01*
X250818Y369230D01*
X250817Y369013D01*
X250822Y369008D01*
X250822Y369009D01*
X250823Y369008D01*
X252527Y369129D01*
X258890Y369580D01*
X265549Y368449D01*
X265999Y368316D01*
X265933Y367870D01*
X265936Y367864D01*
X268485Y367147D01*
X268487Y367147D01*
X268488Y367148D01*
X268491Y367150D01*
X268491Y367151D01*
X268553Y367562D01*
X271624Y366655D01*
X284886Y362740D01*
X286107Y361709D01*
X286011Y361438D01*
X285438Y359827D01*
X285440Y359820D01*
X285441Y359821D01*
X285441Y359820D01*
X287998Y359133D01*
X288004Y359136D01*
X288270Y359883D01*
X295551Y353733D01*
X296794Y350917D01*
X295806Y350403D01*
X295804Y350397D01*
X295804Y350396D01*
X297142Y348113D01*
X297148Y348111D01*
X297868Y348485D01*
X301159Y341028D01*
X305310Y331625D01*
X305554Y330717D01*
X305560Y330713D01*
X305560Y330714D01*
X305561Y330713D01*
X305692Y330760D01*
X306205Y329597D01*
X306716Y316542D01*
X306062Y308502D01*
X305960Y308613D01*
G37*
%LPD*%
%LPC*%
G36*
X325023Y122785D02*
X325023Y122785D01*
X325068Y122947D01*
X325065Y122953D01*
X325064Y122954D01*
X323388Y123262D01*
X266978Y133622D01*
X266977Y133621D01*
X266977Y133622D01*
X266751Y133626D01*
X266749Y133626D01*
X266459Y133631D01*
X266457Y133631D01*
X266167Y133635D01*
X266167Y133636D01*
X266165Y133636D01*
X265874Y133640D01*
X265873Y133640D01*
X265582Y133645D01*
X265580Y133645D01*
X265290Y133650D01*
X265288Y133650D01*
X264998Y133655D01*
X264996Y133655D01*
X264706Y133660D01*
X264704Y133660D01*
X264414Y133665D01*
X264412Y133665D01*
X264122Y133670D01*
X264120Y133670D01*
X263829Y133675D01*
X263828Y133675D01*
X263537Y133680D01*
X263535Y133680D01*
X263245Y133685D01*
X263243Y133685D01*
X262953Y133690D01*
X262951Y133690D01*
X262661Y133695D01*
X262659Y133695D01*
X262369Y133700D01*
X262367Y133700D01*
X262077Y133705D01*
X262075Y133705D01*
X261784Y133710D01*
X261783Y133710D01*
X261492Y133715D01*
X261491Y133715D01*
X261200Y133720D01*
X261198Y133720D01*
X260908Y133725D01*
X260906Y133725D01*
X260616Y133730D01*
X260614Y133730D01*
X260324Y133735D01*
X260322Y133735D01*
X260032Y133740D01*
X260030Y133740D01*
X259739Y133745D01*
X259738Y133745D01*
X259447Y133750D01*
X259446Y133750D01*
X259155Y133755D01*
X259153Y133755D01*
X258863Y133760D01*
X258861Y133760D01*
X258571Y133765D01*
X258569Y133765D01*
X258279Y133770D01*
X258277Y133770D01*
X257987Y133775D01*
X257985Y133775D01*
X257694Y133780D01*
X257693Y133780D01*
X257402Y133785D01*
X257401Y133785D01*
X257110Y133790D01*
X257108Y133790D01*
X256818Y133794D01*
X256818Y133795D01*
X256816Y133795D01*
X256526Y133799D01*
X256524Y133799D01*
X256234Y133804D01*
X256232Y133804D01*
X255942Y133809D01*
X255940Y133809D01*
X255649Y133814D01*
X255648Y133814D01*
X255357Y133819D01*
X255356Y133819D01*
X255065Y133824D01*
X255063Y133824D01*
X254773Y133829D01*
X254771Y133829D01*
X254481Y133834D01*
X254479Y133834D01*
X254189Y133839D01*
X254187Y133839D01*
X253897Y133844D01*
X253895Y133844D01*
X253604Y133849D01*
X253603Y133849D01*
X253312Y133854D01*
X253311Y133854D01*
X253020Y133859D01*
X253018Y133859D01*
X252728Y133864D01*
X252726Y133864D01*
X252436Y133869D01*
X252434Y133869D01*
X252144Y133874D01*
X252142Y133874D01*
X251852Y133879D01*
X251850Y133879D01*
X251559Y133884D01*
X251558Y133884D01*
X251267Y133889D01*
X251266Y133889D01*
X250975Y133894D01*
X250973Y133894D01*
X250683Y133899D01*
X250681Y133899D01*
X250391Y133904D01*
X250389Y133904D01*
X250099Y133909D01*
X250097Y133909D01*
X249807Y133914D01*
X249805Y133914D01*
X249514Y133919D01*
X249513Y133919D01*
X249222Y133924D01*
X249221Y133924D01*
X248930Y133929D01*
X248928Y133929D01*
X248638Y133934D01*
X248636Y133934D01*
X248346Y133939D01*
X248344Y133939D01*
X248054Y133944D01*
X248052Y133944D01*
X247762Y133949D01*
X247760Y133949D01*
X247469Y133953D01*
X247469Y133954D01*
X247468Y133954D01*
X247177Y133958D01*
X247176Y133958D01*
X246885Y133963D01*
X246883Y133963D01*
X246593Y133968D01*
X246591Y133968D01*
X246301Y133973D01*
X246299Y133973D01*
X246009Y133978D01*
X246007Y133978D01*
X245717Y133983D01*
X245715Y133983D01*
X245425Y133988D01*
X245424Y133988D01*
X245423Y133988D01*
X245132Y133993D01*
X245131Y133993D01*
X244840Y133998D01*
X244838Y133998D01*
X244548Y134003D01*
X244546Y134003D01*
X244256Y134008D01*
X244254Y134008D01*
X243964Y134013D01*
X243962Y134013D01*
X243672Y134018D01*
X243670Y134018D01*
X243380Y134023D01*
X243379Y134023D01*
X243378Y134023D01*
X243087Y134028D01*
X243086Y134028D01*
X242795Y134033D01*
X242793Y134033D01*
X242503Y134038D01*
X242501Y134038D01*
X242211Y134043D01*
X242209Y134043D01*
X241919Y134048D01*
X241917Y134048D01*
X241627Y134053D01*
X241625Y134053D01*
X241335Y134058D01*
X241334Y134058D01*
X241333Y134058D01*
X241042Y134063D01*
X241041Y134063D01*
X240750Y134068D01*
X240748Y134068D01*
X240458Y134073D01*
X240456Y134073D01*
X240166Y134078D01*
X240164Y134078D01*
X239874Y134083D01*
X239872Y134083D01*
X239582Y134088D01*
X239580Y134088D01*
X239290Y134093D01*
X239288Y134093D01*
X238997Y134098D01*
X238996Y134098D01*
X238705Y134103D01*
X238703Y134103D01*
X238413Y134108D01*
X238411Y134108D01*
X238121Y134112D01*
X238121Y134113D01*
X238119Y134113D01*
X237829Y134117D01*
X237827Y134117D01*
X237537Y134122D01*
X237535Y134122D01*
X237245Y134127D01*
X237243Y134127D01*
X236952Y134132D01*
X236951Y134132D01*
X236660Y134137D01*
X236658Y134137D01*
X236368Y134142D01*
X236366Y134142D01*
X236076Y134147D01*
X236074Y134147D01*
X235784Y134152D01*
X235782Y134152D01*
X235492Y134157D01*
X235490Y134157D01*
X235200Y134162D01*
X235198Y134162D01*
X234907Y134167D01*
X234906Y134167D01*
X234615Y134172D01*
X234613Y134172D01*
X234323Y134177D01*
X234321Y134177D01*
X234031Y134182D01*
X234029Y134182D01*
X233739Y134187D01*
X233737Y134187D01*
X233447Y134192D01*
X233445Y134192D01*
X233155Y134197D01*
X233153Y134197D01*
X232862Y134202D01*
X232861Y134202D01*
X232570Y134207D01*
X232568Y134207D01*
X232278Y134212D01*
X232276Y134212D01*
X231986Y134217D01*
X231984Y134217D01*
X231694Y134222D01*
X231692Y134222D01*
X231402Y134227D01*
X231400Y134227D01*
X231110Y134232D01*
X231108Y134232D01*
X230817Y134237D01*
X230816Y134237D01*
X230525Y134242D01*
X230523Y134242D01*
X230233Y134247D01*
X230231Y134247D01*
X229941Y134252D01*
X229939Y134252D01*
X229649Y134257D01*
X229647Y134257D01*
X229357Y134262D01*
X229355Y134262D01*
X229065Y134267D01*
X229063Y134267D01*
X228772Y134271D01*
X228772Y134272D01*
X228771Y134272D01*
X228480Y134276D01*
X228479Y134276D01*
X228188Y134281D01*
X228186Y134281D01*
X227896Y134286D01*
X227894Y134286D01*
X227604Y134291D01*
X227602Y134291D01*
X227312Y134296D01*
X227310Y134296D01*
X227020Y134301D01*
X227018Y134301D01*
X226727Y134306D01*
X226726Y134306D01*
X226435Y134311D01*
X226434Y134311D01*
X226143Y134316D01*
X226141Y134316D01*
X225851Y134321D01*
X225849Y134321D01*
X225559Y134326D01*
X225557Y134326D01*
X225267Y134331D01*
X225265Y134331D01*
X224975Y134336D01*
X224973Y134336D01*
X224682Y134341D01*
X224681Y134341D01*
X224390Y134346D01*
X224389Y134346D01*
X224098Y134351D01*
X224096Y134351D01*
X223806Y134356D01*
X223804Y134356D01*
X223514Y134361D01*
X223512Y134361D01*
X223222Y134366D01*
X223220Y134366D01*
X222930Y134371D01*
X222928Y134371D01*
X222637Y134376D01*
X222636Y134376D01*
X222345Y134381D01*
X222344Y134381D01*
X222053Y134386D01*
X222051Y134386D01*
X221761Y134391D01*
X221759Y134391D01*
X221469Y134396D01*
X221467Y134396D01*
X221177Y134401D01*
X221175Y134401D01*
X220885Y134406D01*
X220883Y134406D01*
X220592Y134411D01*
X220591Y134411D01*
X220300Y134416D01*
X220299Y134416D01*
X220008Y134421D01*
X220006Y134421D01*
X219716Y134426D01*
X219714Y134426D01*
X219424Y134430D01*
X219424Y134431D01*
X219422Y134431D01*
X219132Y134435D01*
X219130Y134435D01*
X218840Y134440D01*
X218838Y134440D01*
X218547Y134445D01*
X218546Y134445D01*
X218255Y134450D01*
X218254Y134450D01*
X217963Y134455D01*
X217961Y134455D01*
X217671Y134460D01*
X217669Y134460D01*
X217379Y134465D01*
X217377Y134465D01*
X217087Y134470D01*
X217085Y134470D01*
X216795Y134475D01*
X216793Y134475D01*
X216502Y134480D01*
X216501Y134480D01*
X216210Y134485D01*
X216209Y134485D01*
X215918Y134490D01*
X215916Y134490D01*
X215626Y134495D01*
X215624Y134495D01*
X215334Y134500D01*
X215332Y134500D01*
X215042Y134505D01*
X215040Y134505D01*
X214750Y134510D01*
X214748Y134510D01*
X214457Y134515D01*
X214456Y134515D01*
X214165Y134520D01*
X214164Y134520D01*
X213873Y134525D01*
X213871Y134525D01*
X213581Y134530D01*
X213579Y134530D01*
X213289Y134535D01*
X213287Y134535D01*
X212997Y134540D01*
X212995Y134540D01*
X212705Y134545D01*
X212703Y134545D01*
X212413Y134550D01*
X212412Y134550D01*
X212411Y134550D01*
X212120Y134555D01*
X212119Y134555D01*
X211828Y134560D01*
X211826Y134560D01*
X211536Y134565D01*
X211534Y134565D01*
X211244Y134570D01*
X211242Y134570D01*
X210952Y134575D01*
X210950Y134575D01*
X210660Y134580D01*
X210658Y134580D01*
X210368Y134585D01*
X210367Y134585D01*
X210366Y134585D01*
X210075Y134589D01*
X210075Y134590D01*
X210074Y134590D01*
X209783Y134594D01*
X209781Y134594D01*
X209491Y134599D01*
X209489Y134599D01*
X209199Y134604D01*
X209197Y134604D01*
X208907Y134609D01*
X208905Y134609D01*
X208797Y134611D01*
X208796Y134611D01*
X182957Y131708D01*
X182713Y131706D01*
X182711Y131706D01*
X182711Y131705D01*
X182303Y131701D01*
X182301Y131701D01*
X181894Y131696D01*
X181891Y131696D01*
X181484Y131691D01*
X181482Y131691D01*
X181075Y131686D01*
X181072Y131686D01*
X180665Y131681D01*
X180662Y131681D01*
X180255Y131676D01*
X180253Y131676D01*
X179846Y131671D01*
X179843Y131671D01*
X179436Y131666D01*
X179434Y131666D01*
X179178Y131663D01*
X179178Y131662D01*
X179178Y131663D01*
X147461Y128787D01*
X147461Y128786D01*
X147461Y128787D01*
X130316Y125596D01*
X129587Y125501D01*
X129587Y125500D01*
X129587Y125501D01*
X125545Y124709D01*
X116270Y122983D01*
X115163Y122777D01*
X115100Y122774D01*
X115099Y122774D01*
X115013Y122769D01*
X114927Y122764D01*
X114926Y122764D01*
X114840Y122759D01*
X114754Y122754D01*
X114753Y122754D01*
X114667Y122749D01*
X114580Y122744D01*
X114494Y122739D01*
X114407Y122734D01*
X114321Y122729D01*
X114234Y122724D01*
X114148Y122719D01*
X114061Y122714D01*
X113975Y122709D01*
X113974Y122709D01*
X113888Y122704D01*
X113802Y122699D01*
X113801Y122699D01*
X113715Y122694D01*
X113629Y122689D01*
X113628Y122689D01*
X113542Y122684D01*
X113456Y122679D01*
X113455Y122679D01*
X113369Y122674D01*
X113282Y122669D01*
X113196Y122665D01*
X113109Y122660D01*
X113023Y122655D01*
X112936Y122650D01*
X112852Y122645D01*
X110449Y124158D01*
X108418Y125438D01*
X108058Y128207D01*
X108289Y130388D01*
X108823Y135432D01*
X115066Y136502D01*
X119235Y137326D01*
X126069Y138675D01*
X131023Y139596D01*
X141326Y140929D01*
X152425Y142175D01*
X177157Y144953D01*
X202067Y146190D01*
X226951Y146019D01*
X255702Y145821D01*
X288871Y142108D01*
X299464Y140923D01*
X310088Y139546D01*
X320553Y137491D01*
X322037Y137200D01*
X322037Y137199D01*
X323892Y136903D01*
X325592Y136354D01*
X328917Y135281D01*
X331160Y133205D01*
X331391Y130132D01*
X331870Y123771D01*
X326050Y122588D01*
X325023Y122785D01*
G37*
%LPD*%
G36*
X217208Y281794D02*
X217208Y281794D01*
X217209Y281795D01*
X217213Y281798D01*
X217212Y281799D01*
X217213Y281800D01*
X215851Y288549D01*
X215867Y288640D01*
X215867Y288645D01*
X215868Y288645D01*
X215868Y288650D01*
X215869Y288655D01*
X215870Y288660D01*
X215871Y288665D01*
X215872Y288670D01*
X215873Y288675D01*
X215874Y288680D01*
X215874Y288685D01*
X215875Y288685D01*
X215966Y289201D01*
X215966Y289202D01*
X215966Y289206D01*
X215966Y289207D01*
X215967Y289211D01*
X215968Y289216D01*
X215969Y289221D01*
X215970Y289226D01*
X215971Y289231D01*
X215972Y289236D01*
X215973Y289241D01*
X215973Y289246D01*
X215974Y289251D01*
X216064Y289763D01*
X216065Y289768D01*
X216066Y289773D01*
X216067Y289778D01*
X216068Y289783D01*
X216069Y289788D01*
X216070Y289793D01*
X216071Y289798D01*
X216071Y289803D01*
X216072Y289808D01*
X216073Y289813D01*
X216163Y290324D01*
X216164Y290329D01*
X216165Y290334D01*
X216166Y290339D01*
X216167Y290344D01*
X216168Y290349D01*
X216169Y290354D01*
X216169Y290359D01*
X216170Y290364D01*
X216171Y290369D01*
X216172Y290374D01*
X216262Y290886D01*
X216263Y290891D01*
X216264Y290896D01*
X216265Y290901D01*
X216266Y290906D01*
X216267Y290911D01*
X216267Y290916D01*
X216268Y290916D01*
X216268Y290921D01*
X216269Y290926D01*
X216270Y290931D01*
X216271Y290936D01*
X216325Y291242D01*
X216324Y291243D01*
X216325Y291244D01*
X213656Y303507D01*
X213655Y303508D01*
X213655Y303509D01*
X205886Y310221D01*
X202169Y313433D01*
X202168Y313433D01*
X202167Y313434D01*
X197596Y315484D01*
X197595Y315483D01*
X197595Y315484D01*
X192811Y316520D01*
X187203Y317736D01*
X181573Y318859D01*
X175954Y320021D01*
X173461Y320536D01*
X170969Y321052D01*
X168603Y321536D01*
X169311Y324079D01*
X169308Y324085D01*
X169307Y324085D01*
X169307Y324086D01*
X167635Y324420D01*
X167581Y324432D01*
X167525Y324440D01*
X167474Y324456D01*
X167473Y324456D01*
X167472Y324457D01*
X167471Y324455D01*
X167468Y324454D01*
X167468Y324452D01*
X167467Y324451D01*
X167678Y322839D01*
X167783Y322036D01*
X167411Y321779D01*
X167148Y321832D01*
X166348Y321992D01*
X166346Y321991D01*
X166343Y321990D01*
X166343Y321989D01*
X166344Y321986D01*
X159337Y323388D01*
X159336Y323387D01*
X159336Y323388D01*
X159077Y323392D01*
X159076Y323392D01*
X158784Y323397D01*
X158782Y323397D01*
X158491Y323402D01*
X158489Y323402D01*
X158197Y323407D01*
X158195Y323407D01*
X157904Y323412D01*
X157902Y323412D01*
X157610Y323417D01*
X157608Y323417D01*
X157317Y323422D01*
X157315Y323422D01*
X157023Y323427D01*
X157022Y323427D01*
X156730Y323432D01*
X156728Y323432D01*
X156436Y323437D01*
X156435Y323437D01*
X156143Y323442D01*
X156141Y323442D01*
X155850Y323447D01*
X155849Y323447D01*
X155848Y323447D01*
X155556Y323452D01*
X155554Y323452D01*
X155263Y323457D01*
X155261Y323457D01*
X154969Y323462D01*
X154967Y323462D01*
X154676Y323467D01*
X154674Y323467D01*
X154382Y323472D01*
X154380Y323472D01*
X154089Y323477D01*
X154087Y323477D01*
X153795Y323482D01*
X153794Y323482D01*
X153502Y323487D01*
X153500Y323487D01*
X153208Y323491D01*
X153208Y323492D01*
X153207Y323492D01*
X152915Y323496D01*
X152913Y323496D01*
X152622Y323501D01*
X152620Y323501D01*
X152328Y323506D01*
X152326Y323506D01*
X152035Y323511D01*
X152033Y323511D01*
X151741Y323516D01*
X151739Y323516D01*
X151448Y323521D01*
X151446Y323521D01*
X151154Y323526D01*
X151153Y323526D01*
X150861Y323531D01*
X150859Y323531D01*
X150567Y323536D01*
X150566Y323536D01*
X150274Y323541D01*
X150272Y323541D01*
X149981Y323546D01*
X149979Y323546D01*
X149687Y323551D01*
X149685Y323551D01*
X149429Y323555D01*
X149426Y323553D01*
X149424Y323553D01*
X144881Y316007D01*
X143264Y313322D01*
X143265Y313321D01*
X143264Y313321D01*
X143078Y312702D01*
X142952Y312661D01*
X142951Y312659D01*
X142949Y312659D01*
X139916Y307520D01*
X139917Y307518D01*
X139918Y307514D01*
X139919Y307514D01*
X139919Y307513D01*
X140741Y307291D01*
X141563Y307068D01*
X142385Y306845D01*
X142386Y306845D01*
X142387Y306846D01*
X142391Y306848D01*
X142390Y306849D01*
X142391Y306850D01*
X142282Y310011D01*
X143087Y312695D01*
X148912Y314607D01*
X154609Y314774D01*
X159042Y314904D01*
X163432Y313155D01*
X167674Y312056D01*
X175332Y310073D01*
X190648Y306105D01*
X194060Y305222D01*
X197433Y304432D01*
X200633Y302887D01*
X209254Y298724D01*
X215300Y291229D01*
X215840Y288549D01*
X214652Y281800D01*
X214652Y281799D01*
X214651Y281799D01*
X214652Y281799D01*
X214655Y281794D01*
X214656Y281794D01*
X217208Y281794D01*
X217208Y281794D01*
G37*
%LPC*%
G36*
X230509Y292933D02*
X230509Y292933D01*
X235243Y304760D01*
X244480Y310783D01*
X249398Y313990D01*
X255135Y315505D01*
X260860Y316480D01*
X267100Y317542D01*
X273341Y318604D01*
X279581Y319662D01*
X283044Y320249D01*
X286503Y320910D01*
X288113Y321143D01*
X288129Y321088D01*
X288134Y321084D01*
X288134Y321085D01*
X288134Y321084D01*
X289802Y321379D01*
X289983Y321411D01*
X290148Y321436D01*
X290149Y321437D01*
X290150Y321437D01*
X290313Y321549D01*
X290435Y321634D01*
X296721Y314772D01*
X297694Y313709D01*
X288263Y311705D01*
X275388Y308968D01*
X262514Y306233D01*
X251127Y303813D01*
X251127Y303812D01*
X251127Y303813D01*
X239728Y300321D01*
X239727Y300319D01*
X239725Y300319D01*
X233220Y289716D01*
X231820Y287433D01*
X231820Y287432D01*
X231738Y287213D01*
X230509Y292933D01*
G37*
%LPD*%
%LPC*%
G36*
X190840Y344918D02*
X190840Y344918D01*
X177065Y349935D01*
X172579Y352569D01*
X173765Y360946D01*
X182397Y368639D01*
X188898Y372962D01*
X195091Y367131D01*
X202079Y360551D01*
X207927Y355044D01*
X206903Y354174D01*
X206902Y354174D01*
X202328Y349081D01*
X202328Y349080D01*
X202327Y349080D01*
X199847Y343476D01*
X199495Y342681D01*
X190840Y344918D01*
G37*
%LPD*%
%LPC*%
G36*
X223894Y376347D02*
X223894Y376347D01*
X220243Y385225D01*
X216973Y393180D01*
X223364Y396914D01*
X233101Y400336D01*
X240878Y398682D01*
X242538Y390017D01*
X244344Y380590D01*
X246016Y371860D01*
X245634Y371858D01*
X245628Y371858D01*
X244697Y371853D01*
X244691Y371853D01*
X243760Y371848D01*
X243755Y371848D01*
X242824Y371844D01*
X242818Y371844D01*
X242818Y371843D01*
X241887Y371839D01*
X241881Y371839D01*
X240950Y371834D01*
X240945Y371834D01*
X240014Y371829D01*
X240008Y371829D01*
X239077Y371824D01*
X239071Y371824D01*
X238141Y371819D01*
X238135Y371819D01*
X237204Y371814D01*
X237198Y371814D01*
X237139Y371813D01*
X237138Y371813D01*
X226966Y368878D01*
X223894Y376347D01*
G37*
%LPD*%
%LPC*%
G36*
X285785Y364959D02*
X285785Y364959D01*
X285783Y364959D01*
X285783Y364960D01*
X274463Y369630D01*
X274462Y369630D01*
X274461Y369631D01*
X268977Y370391D01*
X270166Y378326D01*
X271588Y387818D01*
X272875Y396403D01*
X275897Y396585D01*
X280180Y395994D01*
X284188Y394890D01*
X287759Y393906D01*
X291127Y392233D01*
X293863Y389718D01*
X294094Y389506D01*
X295364Y387735D01*
X295342Y387673D01*
X295127Y387070D01*
X294912Y386465D01*
X291946Y378123D01*
X288978Y369781D01*
X286867Y363846D01*
X285785Y364959D01*
G37*
%LPD*%
%LPC*%
G36*
X307375Y342760D02*
X307375Y342760D01*
X307373Y342761D01*
X307373Y342763D01*
X300484Y349845D01*
X307176Y353324D01*
X315693Y357751D01*
X323434Y361777D01*
X329120Y357733D01*
X333552Y350001D01*
X332737Y343191D01*
X324552Y340280D01*
X315509Y337063D01*
X308398Y334535D01*
X307375Y342760D01*
G37*
%LPD*%
%LPC*%
G36*
X323278Y297182D02*
X323278Y297182D01*
X314552Y298866D01*
X305825Y300550D01*
X305727Y300569D01*
X305727Y302565D01*
X308232Y302578D01*
X308237Y302583D01*
X308236Y302583D01*
X308237Y302583D01*
X308374Y304271D01*
X309348Y316251D01*
X317982Y316077D01*
X327005Y315896D01*
X334924Y315738D01*
X336029Y309811D01*
X336028Y300365D01*
X331216Y295650D01*
X323278Y297182D01*
G37*
%LPD*%
G36*
X297916Y165694D02*
X297916Y165694D01*
X297916Y165695D01*
X298611Y168248D01*
X298609Y168254D01*
X298608Y168254D01*
X296975Y168734D01*
X270193Y176598D01*
X270192Y176597D01*
X270192Y176598D01*
X270119Y176602D01*
X270035Y176607D01*
X269951Y176612D01*
X269867Y176617D01*
X269866Y176617D01*
X269783Y176622D01*
X269782Y176622D01*
X269698Y176627D01*
X269614Y176632D01*
X269530Y176637D01*
X269446Y176642D01*
X269362Y176647D01*
X269278Y176652D01*
X269194Y176657D01*
X269110Y176662D01*
X269026Y176667D01*
X269025Y176667D01*
X268942Y176672D01*
X268941Y176672D01*
X268857Y176677D01*
X268773Y176682D01*
X268689Y176687D01*
X268605Y176692D01*
X268521Y176697D01*
X268437Y176702D01*
X268353Y176707D01*
X268269Y176712D01*
X268185Y176717D01*
X268184Y176717D01*
X268101Y176722D01*
X268100Y176722D01*
X268016Y176726D01*
X268016Y176727D01*
X267932Y176731D01*
X267848Y176736D01*
X267764Y176741D01*
X267680Y176746D01*
X267596Y176751D01*
X267512Y176756D01*
X267428Y176761D01*
X267427Y176761D01*
X267344Y176766D01*
X267343Y176766D01*
X267260Y176771D01*
X267259Y176771D01*
X267175Y176776D01*
X267091Y176781D01*
X267007Y176786D01*
X266923Y176791D01*
X266839Y176796D01*
X266755Y176801D01*
X266671Y176806D01*
X266587Y176811D01*
X266586Y176811D01*
X266503Y176816D01*
X266502Y176816D01*
X266419Y176821D01*
X266418Y176821D01*
X266334Y176826D01*
X266250Y176831D01*
X266166Y176836D01*
X266082Y176841D01*
X265998Y176846D01*
X265914Y176851D01*
X265830Y176856D01*
X265746Y176861D01*
X265745Y176861D01*
X265662Y176866D01*
X265661Y176866D01*
X265578Y176871D01*
X265577Y176871D01*
X265493Y176876D01*
X265409Y176881D01*
X265325Y176885D01*
X265325Y176886D01*
X265241Y176890D01*
X265157Y176895D01*
X265073Y176900D01*
X264989Y176905D01*
X264905Y176910D01*
X264904Y176910D01*
X264821Y176915D01*
X264820Y176915D01*
X264737Y176920D01*
X264736Y176920D01*
X264652Y176925D01*
X264568Y176930D01*
X264484Y176935D01*
X264400Y176940D01*
X264316Y176945D01*
X264232Y176950D01*
X264148Y176955D01*
X264064Y176960D01*
X264063Y176960D01*
X263980Y176965D01*
X263979Y176965D01*
X263896Y176970D01*
X263895Y176970D01*
X263811Y176975D01*
X263727Y176980D01*
X263643Y176985D01*
X263559Y176990D01*
X263475Y176995D01*
X263391Y177000D01*
X263307Y177005D01*
X263223Y177010D01*
X263222Y177010D01*
X263139Y177015D01*
X263138Y177015D01*
X263054Y177020D01*
X262970Y177025D01*
X262886Y177030D01*
X262802Y177035D01*
X262718Y177040D01*
X262634Y177044D01*
X262634Y177045D01*
X262550Y177049D01*
X262466Y177054D01*
X262382Y177059D01*
X262381Y177059D01*
X262298Y177064D01*
X262297Y177064D01*
X262213Y177069D01*
X262129Y177074D01*
X262045Y177079D01*
X261961Y177084D01*
X261877Y177089D01*
X261793Y177094D01*
X261709Y177099D01*
X261625Y177104D01*
X261541Y177109D01*
X261540Y177109D01*
X261457Y177114D01*
X261456Y177114D01*
X261372Y177119D01*
X261288Y177124D01*
X261204Y177129D01*
X261120Y177134D01*
X261036Y177139D01*
X260952Y177144D01*
X260868Y177149D01*
X260784Y177154D01*
X260783Y177154D01*
X260700Y177159D01*
X260699Y177159D01*
X260616Y177164D01*
X260615Y177164D01*
X260531Y177169D01*
X260447Y177174D01*
X260363Y177179D01*
X260279Y177184D01*
X260195Y177189D01*
X260111Y177194D01*
X260027Y177199D01*
X259943Y177203D01*
X259943Y177204D01*
X259942Y177204D01*
X259859Y177208D01*
X259858Y177208D01*
X259775Y177213D01*
X259774Y177213D01*
X259690Y177218D01*
X259606Y177223D01*
X259522Y177228D01*
X259438Y177233D01*
X259354Y177238D01*
X259270Y177243D01*
X259186Y177248D01*
X259102Y177253D01*
X259101Y177253D01*
X259018Y177258D01*
X259017Y177258D01*
X258934Y177263D01*
X258933Y177263D01*
X258849Y177268D01*
X258765Y177273D01*
X258681Y177278D01*
X258597Y177283D01*
X258513Y177288D01*
X258429Y177293D01*
X258345Y177298D01*
X258261Y177303D01*
X258260Y177303D01*
X258177Y177308D01*
X258176Y177308D01*
X258093Y177313D01*
X258092Y177313D01*
X258008Y177318D01*
X257924Y177323D01*
X257840Y177328D01*
X257756Y177333D01*
X257672Y177338D01*
X257588Y177343D01*
X257504Y177348D01*
X257420Y177353D01*
X257419Y177353D01*
X257336Y177358D01*
X257335Y177358D01*
X257251Y177362D01*
X257251Y177363D01*
X257167Y177367D01*
X257083Y177372D01*
X256999Y177377D01*
X256915Y177382D01*
X256831Y177387D01*
X256747Y177392D01*
X256663Y177397D01*
X256579Y177402D01*
X256578Y177402D01*
X256495Y177407D01*
X256494Y177407D01*
X256410Y177412D01*
X256326Y177417D01*
X256242Y177422D01*
X256158Y177427D01*
X256074Y177432D01*
X255990Y177437D01*
X255906Y177442D01*
X255822Y177447D01*
X255738Y177452D01*
X255737Y177452D01*
X255654Y177457D01*
X255653Y177457D01*
X255569Y177462D01*
X255485Y177467D01*
X255401Y177472D01*
X255317Y177477D01*
X255233Y177482D01*
X255149Y177487D01*
X255065Y177492D01*
X254981Y177497D01*
X254980Y177497D01*
X254897Y177502D01*
X254896Y177502D01*
X254813Y177507D01*
X254812Y177507D01*
X254728Y177512D01*
X254644Y177517D01*
X254560Y177521D01*
X254560Y177522D01*
X254476Y177526D01*
X254392Y177531D01*
X254308Y177536D01*
X254224Y177541D01*
X254140Y177546D01*
X254139Y177546D01*
X254056Y177551D01*
X254055Y177551D01*
X253972Y177556D01*
X253971Y177556D01*
X253887Y177561D01*
X253803Y177566D01*
X253719Y177571D01*
X253635Y177576D01*
X253551Y177581D01*
X253467Y177586D01*
X253383Y177591D01*
X253299Y177596D01*
X253298Y177596D01*
X253215Y177601D01*
X253214Y177601D01*
X253131Y177606D01*
X253130Y177606D01*
X253046Y177611D01*
X252962Y177616D01*
X252878Y177621D01*
X252794Y177626D01*
X252710Y177631D01*
X252626Y177636D01*
X252542Y177641D01*
X252458Y177646D01*
X252457Y177646D01*
X252374Y177651D01*
X252373Y177651D01*
X252290Y177656D01*
X252289Y177656D01*
X252205Y177661D01*
X252121Y177666D01*
X252037Y177671D01*
X251953Y177676D01*
X251869Y177680D01*
X251869Y177681D01*
X251785Y177685D01*
X251701Y177690D01*
X251617Y177695D01*
X251616Y177695D01*
X251533Y177700D01*
X251532Y177700D01*
X251449Y177705D01*
X251448Y177705D01*
X251364Y177710D01*
X251280Y177715D01*
X251196Y177720D01*
X251112Y177725D01*
X251028Y177730D01*
X250944Y177735D01*
X250860Y177740D01*
X250776Y177745D01*
X250775Y177745D01*
X250692Y177750D01*
X250691Y177750D01*
X250607Y177755D01*
X250523Y177760D01*
X250439Y177765D01*
X250355Y177770D01*
X250271Y177775D01*
X250187Y177780D01*
X250103Y177785D01*
X250019Y177790D01*
X249935Y177795D01*
X249934Y177795D01*
X249851Y177800D01*
X249850Y177800D01*
X249766Y177805D01*
X249682Y177810D01*
X249598Y177815D01*
X249514Y177820D01*
X249430Y177825D01*
X249346Y177830D01*
X249262Y177835D01*
X249178Y177839D01*
X249178Y177840D01*
X249094Y177844D01*
X249093Y177844D01*
X249010Y177849D01*
X249009Y177849D01*
X248925Y177854D01*
X248841Y177859D01*
X248757Y177864D01*
X248673Y177869D01*
X248589Y177874D01*
X248505Y177879D01*
X248421Y177884D01*
X248337Y177889D01*
X248336Y177889D01*
X248253Y177894D01*
X248252Y177894D01*
X248169Y177899D01*
X248168Y177899D01*
X248084Y177904D01*
X248000Y177909D01*
X247916Y177914D01*
X247832Y177919D01*
X247748Y177924D01*
X247664Y177929D01*
X247580Y177934D01*
X247496Y177939D01*
X247495Y177939D01*
X247412Y177944D01*
X247411Y177944D01*
X247328Y177949D01*
X247327Y177949D01*
X247243Y177954D01*
X247159Y177959D01*
X247075Y177964D01*
X246991Y177969D01*
X246907Y177974D01*
X246823Y177979D01*
X246739Y177984D01*
X246655Y177989D01*
X246654Y177989D01*
X246571Y177994D01*
X246570Y177994D01*
X246487Y177998D01*
X246487Y177999D01*
X246486Y177999D01*
X246402Y178003D01*
X246318Y178008D01*
X246234Y178013D01*
X246150Y178018D01*
X246066Y178023D01*
X245982Y178028D01*
X245898Y178033D01*
X245814Y178038D01*
X245813Y178038D01*
X245730Y178043D01*
X245729Y178043D01*
X245646Y178048D01*
X245645Y178048D01*
X245561Y178053D01*
X245477Y178058D01*
X245393Y178063D01*
X245309Y178068D01*
X245225Y178073D01*
X245141Y178078D01*
X245057Y178083D01*
X244973Y178088D01*
X244972Y178088D01*
X244889Y178093D01*
X244888Y178093D01*
X244804Y178098D01*
X244720Y178103D01*
X244636Y178108D01*
X244552Y178113D01*
X244468Y178118D01*
X244384Y178123D01*
X244300Y178128D01*
X244216Y178133D01*
X244132Y178138D01*
X244131Y178138D01*
X244048Y178143D01*
X244047Y178143D01*
X243963Y178148D01*
X243879Y178153D01*
X243795Y178158D01*
X243711Y178162D01*
X243627Y178167D01*
X243543Y178172D01*
X243459Y178177D01*
X243375Y178182D01*
X243291Y178187D01*
X243290Y178187D01*
X243207Y178192D01*
X243206Y178192D01*
X243122Y178197D01*
X243038Y178202D01*
X242954Y178207D01*
X242870Y178212D01*
X242786Y178217D01*
X242702Y178222D01*
X242618Y178227D01*
X242534Y178232D01*
X242533Y178232D01*
X242450Y178237D01*
X242449Y178237D01*
X242366Y178242D01*
X242365Y178242D01*
X242281Y178247D01*
X242197Y178252D01*
X242113Y178257D01*
X242029Y178262D01*
X241945Y178267D01*
X241871Y178271D01*
X241870Y178271D01*
X241762Y178267D01*
X241640Y178262D01*
X241639Y178262D01*
X241517Y178257D01*
X241516Y178257D01*
X241394Y178252D01*
X241272Y178247D01*
X241271Y178247D01*
X241149Y178242D01*
X241026Y178237D01*
X240904Y178232D01*
X240903Y178232D01*
X240781Y178227D01*
X240659Y178222D01*
X240658Y178222D01*
X240536Y178217D01*
X240535Y178217D01*
X240413Y178212D01*
X240291Y178207D01*
X240290Y178207D01*
X240168Y178202D01*
X240167Y178202D01*
X240045Y178197D01*
X239923Y178192D01*
X239922Y178192D01*
X239800Y178187D01*
X239678Y178182D01*
X239677Y178182D01*
X239555Y178177D01*
X239554Y178177D01*
X239432Y178172D01*
X239310Y178167D01*
X239309Y178167D01*
X239187Y178162D01*
X239186Y178162D01*
X239064Y178158D01*
X239064Y178157D01*
X238942Y178153D01*
X238941Y178153D01*
X238819Y178148D01*
X238818Y178148D01*
X238696Y178143D01*
X238574Y178138D01*
X238573Y178138D01*
X238451Y178133D01*
X238329Y178128D01*
X238328Y178128D01*
X238206Y178123D01*
X238205Y178123D01*
X238083Y178118D01*
X237961Y178113D01*
X237960Y178113D01*
X237838Y178108D01*
X237837Y178108D01*
X237715Y178103D01*
X237593Y178098D01*
X237592Y178098D01*
X237470Y178093D01*
X237347Y178088D01*
X237225Y178083D01*
X237224Y178083D01*
X237102Y178078D01*
X236980Y178073D01*
X236979Y178073D01*
X236857Y178068D01*
X236856Y178068D01*
X236734Y178063D01*
X236612Y178058D01*
X236611Y178058D01*
X236489Y178053D01*
X236488Y178053D01*
X236366Y178048D01*
X236244Y178043D01*
X236243Y178043D01*
X236121Y178038D01*
X235998Y178033D01*
X235876Y178028D01*
X235875Y178028D01*
X235753Y178023D01*
X235631Y178018D01*
X235630Y178018D01*
X235508Y178013D01*
X235507Y178013D01*
X235385Y178008D01*
X235263Y178003D01*
X235262Y178003D01*
X235140Y177999D01*
X235139Y177999D01*
X235139Y177998D01*
X235017Y177994D01*
X234895Y177989D01*
X234894Y177989D01*
X234772Y177984D01*
X234650Y177979D01*
X234649Y177979D01*
X234527Y177974D01*
X234526Y177974D01*
X234404Y177969D01*
X234282Y177964D01*
X234281Y177964D01*
X234159Y177959D01*
X234158Y177959D01*
X234036Y177954D01*
X233914Y177949D01*
X233913Y177949D01*
X233791Y177944D01*
X233790Y177944D01*
X233668Y177939D01*
X233546Y177934D01*
X233545Y177934D01*
X233423Y177929D01*
X233301Y177924D01*
X233300Y177924D01*
X233178Y177919D01*
X233177Y177919D01*
X233055Y177914D01*
X232933Y177909D01*
X232932Y177909D01*
X232810Y177904D01*
X232809Y177904D01*
X232687Y177899D01*
X232565Y177894D01*
X232564Y177894D01*
X232442Y177889D01*
X232319Y177884D01*
X232197Y177879D01*
X232196Y177879D01*
X232074Y177874D01*
X231952Y177869D01*
X231951Y177869D01*
X231829Y177864D01*
X231828Y177864D01*
X231706Y177859D01*
X231584Y177854D01*
X231583Y177854D01*
X231461Y177849D01*
X231460Y177849D01*
X231338Y177844D01*
X231216Y177840D01*
X231215Y177840D01*
X231215Y177839D01*
X231093Y177835D01*
X230971Y177830D01*
X230970Y177830D01*
X230848Y177825D01*
X230847Y177825D01*
X230725Y177820D01*
X230603Y177815D01*
X230602Y177815D01*
X230480Y177810D01*
X230479Y177810D01*
X230357Y177805D01*
X230235Y177800D01*
X230234Y177800D01*
X230112Y177795D01*
X230111Y177795D01*
X229989Y177790D01*
X229867Y177785D01*
X229866Y177785D01*
X229744Y177780D01*
X229622Y177775D01*
X229621Y177775D01*
X229499Y177770D01*
X229498Y177770D01*
X229376Y177765D01*
X229254Y177760D01*
X229253Y177760D01*
X229131Y177755D01*
X229130Y177755D01*
X229008Y177750D01*
X228886Y177745D01*
X228885Y177745D01*
X228763Y177740D01*
X228762Y177740D01*
X228640Y177735D01*
X228518Y177730D01*
X228517Y177730D01*
X228395Y177725D01*
X228273Y177720D01*
X228272Y177720D01*
X228150Y177715D01*
X228149Y177715D01*
X228027Y177710D01*
X227905Y177705D01*
X227904Y177705D01*
X227782Y177700D01*
X227781Y177700D01*
X227659Y177695D01*
X227537Y177690D01*
X227536Y177690D01*
X227414Y177685D01*
X227291Y177681D01*
X227291Y177680D01*
X227169Y177676D01*
X227168Y177676D01*
X227046Y177671D01*
X226924Y177666D01*
X226923Y177666D01*
X226801Y177661D01*
X226800Y177661D01*
X226678Y177656D01*
X226556Y177651D01*
X226555Y177651D01*
X226433Y177646D01*
X226432Y177646D01*
X226310Y177641D01*
X226188Y177636D01*
X226187Y177636D01*
X226065Y177631D01*
X225943Y177626D01*
X225942Y177626D01*
X225820Y177621D01*
X225819Y177621D01*
X225697Y177616D01*
X225575Y177611D01*
X225574Y177611D01*
X225452Y177606D01*
X225451Y177606D01*
X225329Y177601D01*
X225207Y177596D01*
X225206Y177596D01*
X225084Y177591D01*
X225083Y177591D01*
X224961Y177586D01*
X224839Y177581D01*
X224838Y177581D01*
X224716Y177576D01*
X224594Y177571D01*
X224593Y177571D01*
X224471Y177566D01*
X224470Y177566D01*
X224348Y177561D01*
X224226Y177556D01*
X224225Y177556D01*
X224103Y177551D01*
X224102Y177551D01*
X223980Y177546D01*
X223858Y177541D01*
X223857Y177541D01*
X223735Y177536D01*
X223612Y177531D01*
X223490Y177526D01*
X223489Y177526D01*
X223367Y177522D01*
X223367Y177521D01*
X223245Y177517D01*
X223244Y177517D01*
X223122Y177512D01*
X223121Y177512D01*
X222999Y177507D01*
X222877Y177502D01*
X222876Y177502D01*
X222754Y177497D01*
X222753Y177497D01*
X222631Y177492D01*
X222509Y177487D01*
X222508Y177487D01*
X222386Y177482D01*
X222263Y177477D01*
X222141Y177472D01*
X222140Y177472D01*
X222018Y177467D01*
X221896Y177462D01*
X221895Y177462D01*
X221773Y177457D01*
X221772Y177457D01*
X221650Y177452D01*
X221528Y177447D01*
X221527Y177447D01*
X221405Y177442D01*
X221404Y177442D01*
X221282Y177437D01*
X221160Y177432D01*
X221159Y177432D01*
X221037Y177427D01*
X220915Y177422D01*
X220914Y177422D01*
X220792Y177417D01*
X220791Y177417D01*
X220669Y177412D01*
X220547Y177407D01*
X220546Y177407D01*
X220424Y177402D01*
X220423Y177402D01*
X220301Y177397D01*
X220179Y177392D01*
X220178Y177392D01*
X220056Y177387D01*
X220055Y177387D01*
X219933Y177382D01*
X219811Y177377D01*
X219810Y177377D01*
X219688Y177372D01*
X219566Y177367D01*
X219565Y177367D01*
X219443Y177363D01*
X219442Y177363D01*
X219442Y177362D01*
X219320Y177358D01*
X219198Y177353D01*
X219197Y177353D01*
X219075Y177348D01*
X219074Y177348D01*
X218952Y177343D01*
X218830Y177338D01*
X218829Y177338D01*
X218707Y177333D01*
X218584Y177328D01*
X218462Y177323D01*
X218461Y177323D01*
X218339Y177318D01*
X218217Y177313D01*
X218216Y177313D01*
X218094Y177308D01*
X218093Y177308D01*
X217971Y177303D01*
X217849Y177298D01*
X217848Y177298D01*
X217726Y177293D01*
X217725Y177293D01*
X217603Y177288D01*
X217481Y177283D01*
X217480Y177283D01*
X217358Y177278D01*
X217236Y177273D01*
X217235Y177273D01*
X217113Y177268D01*
X217112Y177268D01*
X216990Y177263D01*
X216868Y177258D01*
X216867Y177258D01*
X216745Y177253D01*
X216744Y177253D01*
X216622Y177248D01*
X216500Y177243D01*
X216499Y177243D01*
X216377Y177238D01*
X216376Y177238D01*
X216254Y177233D01*
X216132Y177228D01*
X216131Y177228D01*
X216009Y177223D01*
X215887Y177218D01*
X215886Y177218D01*
X215764Y177213D01*
X215763Y177213D01*
X215641Y177208D01*
X215519Y177204D01*
X215518Y177204D01*
X215518Y177203D01*
X215396Y177199D01*
X215395Y177199D01*
X215273Y177194D01*
X215151Y177189D01*
X215150Y177189D01*
X215028Y177184D01*
X215027Y177184D01*
X214905Y177179D01*
X214783Y177174D01*
X214782Y177174D01*
X214660Y177169D01*
X214538Y177164D01*
X214537Y177164D01*
X214415Y177159D01*
X214414Y177159D01*
X214292Y177154D01*
X214170Y177149D01*
X214169Y177149D01*
X214103Y177146D01*
X214047Y177144D01*
X214046Y177144D01*
X213924Y177139D01*
X213802Y177134D01*
X213801Y177134D01*
X213679Y177129D01*
X213557Y177124D01*
X213556Y177124D01*
X213434Y177119D01*
X213312Y177114D01*
X213311Y177114D01*
X213189Y177109D01*
X213188Y177109D01*
X213067Y177104D01*
X213066Y177104D01*
X212944Y177099D01*
X212943Y177099D01*
X212821Y177094D01*
X212699Y177089D01*
X212698Y177089D01*
X212576Y177084D01*
X212454Y177079D01*
X212453Y177079D01*
X212331Y177074D01*
X212209Y177069D01*
X212208Y177069D01*
X212086Y177064D01*
X212085Y177064D01*
X211963Y177059D01*
X211841Y177054D01*
X211840Y177054D01*
X211718Y177049D01*
X211596Y177045D01*
X211595Y177045D01*
X211595Y177044D01*
X211473Y177040D01*
X211351Y177035D01*
X211350Y177035D01*
X211228Y177030D01*
X211227Y177030D01*
X211105Y177025D01*
X210983Y177020D01*
X210982Y177020D01*
X210860Y177015D01*
X210738Y177010D01*
X210737Y177010D01*
X210615Y177005D01*
X210493Y177000D01*
X210492Y177000D01*
X210370Y176995D01*
X210369Y176995D01*
X210247Y176990D01*
X210125Y176985D01*
X210124Y176985D01*
X210002Y176980D01*
X209880Y176975D01*
X209879Y176975D01*
X209757Y176970D01*
X209635Y176965D01*
X209634Y176965D01*
X209512Y176960D01*
X209511Y176960D01*
X209389Y176955D01*
X209267Y176950D01*
X209266Y176950D01*
X209144Y176945D01*
X209022Y176940D01*
X209021Y176940D01*
X208899Y176935D01*
X208777Y176930D01*
X208776Y176930D01*
X208654Y176925D01*
X208653Y176925D01*
X208532Y176920D01*
X208531Y176920D01*
X208409Y176915D01*
X208408Y176915D01*
X208286Y176910D01*
X208164Y176905D01*
X208163Y176905D01*
X208041Y176900D01*
X207919Y176895D01*
X207918Y176895D01*
X207796Y176890D01*
X207674Y176886D01*
X207673Y176886D01*
X207673Y176885D01*
X207551Y176881D01*
X207550Y176881D01*
X207428Y176876D01*
X207306Y176871D01*
X207305Y176871D01*
X207183Y176866D01*
X207061Y176861D01*
X207060Y176861D01*
X206938Y176856D01*
X206816Y176851D01*
X206815Y176851D01*
X206693Y176846D01*
X206692Y176846D01*
X206570Y176841D01*
X206448Y176836D01*
X206447Y176836D01*
X206325Y176831D01*
X206203Y176826D01*
X206202Y176826D01*
X206080Y176821D01*
X205958Y176816D01*
X205957Y176816D01*
X205835Y176811D01*
X205834Y176811D01*
X205712Y176806D01*
X205590Y176801D01*
X205589Y176801D01*
X205467Y176796D01*
X205345Y176791D01*
X205344Y176791D01*
X205222Y176786D01*
X205100Y176781D01*
X205099Y176781D01*
X204977Y176776D01*
X204976Y176776D01*
X204854Y176771D01*
X204732Y176766D01*
X204731Y176766D01*
X204609Y176761D01*
X204487Y176756D01*
X204486Y176756D01*
X204364Y176751D01*
X204242Y176746D01*
X204241Y176746D01*
X204119Y176741D01*
X204118Y176741D01*
X203997Y176736D01*
X203996Y176736D01*
X203874Y176731D01*
X203873Y176731D01*
X203751Y176727D01*
X203751Y176726D01*
X203629Y176722D01*
X203628Y176722D01*
X203506Y176717D01*
X203384Y176712D01*
X203383Y176712D01*
X203261Y176707D01*
X203139Y176702D01*
X203138Y176702D01*
X203016Y176697D01*
X203015Y176697D01*
X202893Y176692D01*
X202771Y176687D01*
X202770Y176687D01*
X202648Y176682D01*
X202526Y176677D01*
X202525Y176677D01*
X202403Y176672D01*
X202281Y176667D01*
X202280Y176667D01*
X202158Y176662D01*
X202157Y176662D01*
X202035Y176657D01*
X201913Y176652D01*
X201912Y176652D01*
X201790Y176647D01*
X201668Y176642D01*
X201667Y176642D01*
X201545Y176637D01*
X201423Y176632D01*
X201422Y176632D01*
X201300Y176627D01*
X201299Y176627D01*
X201177Y176622D01*
X201055Y176617D01*
X201054Y176617D01*
X200932Y176612D01*
X200810Y176607D01*
X200809Y176607D01*
X200687Y176602D01*
X200565Y176597D01*
X200564Y176597D01*
X200442Y176592D01*
X200441Y176592D01*
X200319Y176587D01*
X200197Y176582D01*
X200196Y176582D01*
X200074Y176577D01*
X199952Y176572D01*
X199951Y176572D01*
X199829Y176568D01*
X199829Y176567D01*
X199707Y176563D01*
X199706Y176563D01*
X199584Y176558D01*
X199583Y176558D01*
X199462Y176553D01*
X199461Y176553D01*
X199339Y176548D01*
X199338Y176548D01*
X199216Y176543D01*
X199094Y176538D01*
X199093Y176538D01*
X198971Y176533D01*
X198849Y176528D01*
X198848Y176528D01*
X198726Y176523D01*
X198604Y176518D01*
X198603Y176518D01*
X198481Y176513D01*
X198480Y176513D01*
X198358Y176508D01*
X198236Y176503D01*
X198235Y176503D01*
X198113Y176498D01*
X197991Y176493D01*
X197990Y176493D01*
X197868Y176488D01*
X197746Y176483D01*
X197745Y176483D01*
X197623Y176478D01*
X197622Y176478D01*
X197500Y176473D01*
X197378Y176468D01*
X197377Y176468D01*
X197255Y176463D01*
X197133Y176458D01*
X197132Y176458D01*
X197010Y176453D01*
X196888Y176448D01*
X196887Y176448D01*
X196765Y176443D01*
X196764Y176443D01*
X196642Y176438D01*
X196520Y176433D01*
X196519Y176433D01*
X196397Y176428D01*
X196275Y176423D01*
X196274Y176423D01*
X196152Y176418D01*
X196030Y176413D01*
X196029Y176413D01*
X195907Y176409D01*
X195906Y176409D01*
X195906Y176408D01*
X195784Y176404D01*
X195662Y176399D01*
X195661Y176399D01*
X195539Y176394D01*
X195417Y176389D01*
X195416Y176389D01*
X195294Y176384D01*
X195172Y176379D01*
X195171Y176379D01*
X195049Y176374D01*
X195048Y176374D01*
X194927Y176369D01*
X194926Y176369D01*
X194804Y176364D01*
X194803Y176364D01*
X194681Y176359D01*
X194559Y176354D01*
X194558Y176354D01*
X194436Y176349D01*
X194354Y176346D01*
X194354Y176345D01*
X194353Y176346D01*
X174601Y174043D01*
X155189Y170318D01*
X152644Y169829D01*
X150097Y169327D01*
X147573Y168734D01*
X145913Y168343D01*
X145909Y168338D01*
X145910Y168338D01*
X145909Y168337D01*
X146614Y165786D01*
X146619Y165782D01*
X146619Y165783D01*
X148279Y166173D01*
X159995Y168927D01*
X172017Y170654D01*
X183956Y172069D01*
X209866Y175140D01*
X236215Y175935D01*
X262170Y172970D01*
X273696Y171654D01*
X285135Y169442D01*
X296268Y166173D01*
X297910Y165691D01*
X297916Y165694D01*
G37*
G36*
X246431Y186160D02*
X246431Y186160D01*
X246431Y186161D01*
X246432Y186161D01*
X246421Y188808D01*
X246417Y188813D01*
X246416Y188813D01*
X246393Y188815D01*
X246312Y188820D01*
X246232Y188825D01*
X246231Y188825D01*
X246151Y188830D01*
X246070Y188835D01*
X245989Y188840D01*
X245909Y188844D01*
X245908Y188844D01*
X245828Y188849D01*
X245747Y188854D01*
X245666Y188859D01*
X245586Y188864D01*
X245585Y188864D01*
X245505Y188869D01*
X245424Y188874D01*
X245343Y188879D01*
X245263Y188884D01*
X245262Y188884D01*
X245182Y188889D01*
X245101Y188894D01*
X245020Y188899D01*
X244940Y188904D01*
X244939Y188904D01*
X244859Y188909D01*
X244778Y188914D01*
X244722Y188917D01*
X244697Y188919D01*
X244617Y188924D01*
X244536Y188929D01*
X244456Y188934D01*
X244375Y188939D01*
X244295Y188944D01*
X244214Y188949D01*
X244134Y188954D01*
X244053Y188959D01*
X243973Y188964D01*
X243892Y188969D01*
X243812Y188974D01*
X243731Y188979D01*
X243651Y188984D01*
X243570Y188989D01*
X243490Y188994D01*
X243409Y188999D01*
X243329Y189003D01*
X243248Y189008D01*
X243168Y189013D01*
X243087Y189018D01*
X243007Y189023D01*
X242926Y189028D01*
X242846Y189033D01*
X242765Y189038D01*
X242685Y189043D01*
X242604Y189048D01*
X242524Y189053D01*
X242443Y189058D01*
X242363Y189063D01*
X242282Y189068D01*
X242202Y189073D01*
X242121Y189078D01*
X242041Y189083D01*
X241960Y189088D01*
X241880Y189093D01*
X241799Y189098D01*
X241719Y189103D01*
X241638Y189108D01*
X241558Y189113D01*
X241477Y189118D01*
X241397Y189123D01*
X241316Y189128D01*
X241236Y189133D01*
X241155Y189138D01*
X241075Y189143D01*
X240994Y189148D01*
X240914Y189153D01*
X240833Y189158D01*
X240753Y189162D01*
X240672Y189167D01*
X240592Y189172D01*
X240511Y189177D01*
X240431Y189182D01*
X240376Y189186D01*
X236365Y191867D01*
X234491Y195756D01*
X233751Y197293D01*
X233745Y197296D01*
X233745Y197295D01*
X233744Y197295D01*
X231463Y195953D01*
X231461Y195946D01*
X232198Y194417D01*
X234485Y189669D01*
X234486Y189669D01*
X234486Y189667D01*
X239482Y186586D01*
X239483Y186586D01*
X239484Y186585D01*
X244721Y186262D01*
X246426Y186156D01*
X246431Y186160D01*
G37*
G36*
X198628Y185424D02*
X198628Y185424D01*
X203865Y185746D01*
X203866Y185747D01*
X203867Y185747D01*
X208862Y188829D01*
X208863Y188831D01*
X208864Y188831D01*
X211152Y193578D01*
X211888Y195108D01*
X211886Y195114D01*
X209606Y196457D01*
X209605Y196457D01*
X209599Y196456D01*
X209599Y196455D01*
X209598Y196455D01*
X208858Y194918D01*
X206984Y191028D01*
X202973Y188347D01*
X202927Y188344D01*
X202847Y188339D01*
X202766Y188334D01*
X202686Y188329D01*
X202605Y188324D01*
X202525Y188319D01*
X202444Y188314D01*
X202364Y188309D01*
X202283Y188304D01*
X202203Y188299D01*
X202122Y188294D01*
X202042Y188290D01*
X201961Y188285D01*
X201881Y188280D01*
X201800Y188275D01*
X201720Y188270D01*
X201639Y188265D01*
X201559Y188260D01*
X201478Y188255D01*
X201398Y188250D01*
X201397Y188250D01*
X201317Y188245D01*
X201237Y188240D01*
X201236Y188240D01*
X201156Y188235D01*
X201076Y188230D01*
X201075Y188230D01*
X200995Y188225D01*
X200915Y188220D01*
X200914Y188220D01*
X200834Y188215D01*
X200754Y188210D01*
X200753Y188210D01*
X200673Y188205D01*
X200593Y188200D01*
X200592Y188200D01*
X200512Y188195D01*
X200432Y188190D01*
X200431Y188190D01*
X200351Y188185D01*
X200271Y188180D01*
X200270Y188180D01*
X200190Y188175D01*
X200110Y188170D01*
X200109Y188170D01*
X200029Y188165D01*
X199949Y188160D01*
X199948Y188160D01*
X199868Y188155D01*
X199788Y188150D01*
X199787Y188150D01*
X199707Y188145D01*
X199627Y188140D01*
X199626Y188140D01*
X199546Y188135D01*
X199466Y188131D01*
X199465Y188131D01*
X199385Y188126D01*
X199305Y188121D01*
X199304Y188121D01*
X199224Y188116D01*
X199144Y188111D01*
X199143Y188111D01*
X199063Y188106D01*
X198983Y188101D01*
X198982Y188101D01*
X198902Y188096D01*
X198822Y188091D01*
X198821Y188091D01*
X198741Y188086D01*
X198661Y188081D01*
X198660Y188081D01*
X198628Y188079D01*
X198580Y188076D01*
X198499Y188071D01*
X198498Y188071D01*
X198417Y188066D01*
X198336Y188061D01*
X198255Y188056D01*
X198174Y188051D01*
X198093Y188046D01*
X198012Y188041D01*
X198011Y188041D01*
X197930Y188036D01*
X197849Y188031D01*
X197768Y188026D01*
X197687Y188021D01*
X197606Y188016D01*
X197605Y188016D01*
X197524Y188011D01*
X197443Y188006D01*
X197362Y188001D01*
X197281Y187996D01*
X197200Y187991D01*
X197119Y187986D01*
X197118Y187986D01*
X197037Y187981D01*
X196956Y187976D01*
X196933Y187975D01*
X196928Y187970D01*
X196918Y185323D01*
X196922Y185318D01*
X196923Y185319D01*
X196923Y185318D01*
X198628Y185424D01*
G37*
%LPC*%
G36*
X318106Y190794D02*
X318106Y190794D01*
X318748Y191169D01*
X318749Y191172D01*
X318750Y191173D01*
X318750Y191174D01*
X318750Y191175D01*
X318750Y191176D01*
X318106Y192343D01*
X318106Y193304D01*
X318103Y193307D01*
X318103Y193308D01*
X317474Y193488D01*
X316651Y194979D01*
X316649Y194980D01*
X316648Y194981D01*
X314006Y196015D01*
X313691Y196210D01*
X317131Y198262D01*
X322453Y201437D01*
X324211Y202485D01*
X322517Y198667D01*
X319074Y190906D01*
X318106Y188724D01*
X318106Y190794D01*
G37*
%LPD*%
%LPC*%
G36*
X124617Y191656D02*
X124617Y191656D01*
X121174Y199416D01*
X119481Y203235D01*
X121238Y202187D01*
X126561Y199012D01*
X130000Y196960D01*
X129686Y196765D01*
X127043Y195731D01*
X127042Y195729D01*
X127041Y195729D01*
X126218Y194239D01*
X125588Y194058D01*
X125586Y194054D01*
X125584Y194053D01*
X125584Y193091D01*
X124939Y191925D01*
X124941Y191918D01*
X125584Y191542D01*
X125584Y189475D01*
X124617Y191656D01*
G37*
%LPD*%
%LPC*%
G36*
X125594Y189427D02*
X125594Y189427D01*
X128048Y183896D01*
X127232Y183674D01*
X126410Y183452D01*
X125594Y183231D01*
X125594Y189427D01*
G37*
%LPD*%
%LPC*%
G36*
X317281Y182702D02*
X317281Y182702D01*
X316459Y182925D01*
X315643Y183146D01*
X318096Y188677D01*
X318096Y182481D01*
X317281Y182702D01*
G37*
%LPD*%
%LPC*%
G36*
X230248Y282285D02*
X230248Y282285D01*
X230881Y284870D01*
X231736Y287177D01*
X232787Y282285D01*
X230248Y282285D01*
G37*
%LPD*%
%LPC*%
G36*
X325966Y206417D02*
X325966Y206417D01*
X326564Y205819D01*
X327167Y205216D01*
X327766Y204617D01*
X324232Y202510D01*
X325966Y206417D01*
G37*
%LPD*%
%LPC*%
G36*
X115926Y205367D02*
X115926Y205367D01*
X117726Y207167D01*
X119459Y203259D01*
X115926Y205367D01*
G37*
%LPD*%
%LPC*%
G36*
X317925Y191330D02*
X317925Y191330D01*
X317925Y191331D01*
X317926Y191332D01*
X317924Y191333D01*
X317924Y191336D01*
X317923Y191336D01*
X317922Y191337D01*
X317100Y191560D01*
X316278Y191782D01*
X315490Y191996D01*
X315331Y192116D01*
X315640Y192665D01*
X316289Y193817D01*
X317467Y193480D01*
X317917Y192665D01*
X318096Y192340D01*
X318096Y190799D01*
X317395Y190390D01*
X317925Y191330D01*
G37*
%LPD*%
%LPC*%
G36*
X125594Y191548D02*
X125594Y191548D01*
X125594Y193089D01*
X125775Y193415D01*
X126225Y194230D01*
X127401Y194567D01*
X128050Y193415D01*
X128302Y192967D01*
X128074Y192711D01*
X127411Y192532D01*
X126590Y192309D01*
X125768Y192087D01*
X125768Y192086D01*
X125767Y192086D01*
X125767Y192085D01*
X125764Y192081D01*
X125765Y192080D01*
X125765Y192079D01*
X126294Y191139D01*
X125594Y191548D01*
G37*
%LPD*%
%LPC*%
G36*
X335096Y212130D02*
X335096Y212130D01*
X335027Y212337D01*
X335013Y212720D01*
X335021Y212720D01*
X335022Y212703D01*
X335040Y212479D01*
X335044Y212475D01*
X335045Y212475D01*
X335911Y212592D01*
X336777Y212709D01*
X336975Y212736D01*
X337476Y212740D01*
X337481Y212744D01*
X337489Y212805D01*
X337644Y212826D01*
X337644Y212827D01*
X337645Y212827D01*
X337646Y212829D01*
X337714Y210923D01*
X337687Y210921D01*
X337612Y210916D01*
X337611Y210916D01*
X337536Y210911D01*
X337460Y210906D01*
X337384Y210901D01*
X337309Y210896D01*
X337308Y210896D01*
X337233Y210891D01*
X337157Y210886D01*
X337081Y210882D01*
X337006Y210877D01*
X337005Y210877D01*
X336930Y210872D01*
X336854Y210867D01*
X336778Y210862D01*
X336703Y210857D01*
X336702Y210857D01*
X336627Y210852D01*
X336551Y210847D01*
X336475Y210842D01*
X336400Y210837D01*
X336399Y210837D01*
X336324Y210832D01*
X336248Y210827D01*
X336172Y210822D01*
X336097Y210817D01*
X336096Y210817D01*
X336021Y210812D01*
X335945Y210807D01*
X335869Y210802D01*
X335794Y210797D01*
X335793Y210797D01*
X335718Y210792D01*
X335642Y210787D01*
X335566Y210782D01*
X335544Y210781D01*
X335096Y212130D01*
G37*
%LPD*%
%LPC*%
G36*
X299924Y179203D02*
X299924Y179203D01*
X299925Y179208D01*
X299928Y179228D01*
X299930Y179248D01*
X299931Y179253D01*
X299933Y179268D01*
X299933Y179273D01*
X299936Y179292D01*
X299936Y179293D01*
X299939Y179312D01*
X299939Y179317D01*
X299941Y179332D01*
X299942Y179337D01*
X299944Y179357D01*
X299947Y179377D01*
X299948Y179382D01*
X299950Y179402D01*
X299953Y179422D01*
X299954Y179427D01*
X299955Y179442D01*
X299956Y179442D01*
X299956Y179446D01*
X299956Y179447D01*
X299959Y179466D01*
X299961Y179486D01*
X299962Y179491D01*
X299965Y179511D01*
X299967Y179531D01*
X299968Y179536D01*
X299970Y179551D01*
X299970Y179556D01*
X299973Y179576D01*
X299976Y179596D01*
X299976Y179601D01*
X299979Y179620D01*
X299981Y179640D01*
X299982Y179645D01*
X299984Y179660D01*
X299985Y179665D01*
X299987Y179685D01*
X299990Y179705D01*
X299991Y179710D01*
X299992Y179725D01*
X299993Y179725D01*
X299993Y179730D01*
X299996Y179750D01*
X299998Y179769D01*
X299998Y179770D01*
X299999Y179774D01*
X300002Y179794D01*
X300004Y179814D01*
X300005Y179819D01*
X300007Y179834D01*
X300007Y179839D01*
X300010Y179859D01*
X300013Y179879D01*
X300013Y179884D01*
X300016Y179904D01*
X300018Y179923D01*
X300018Y179924D01*
X300019Y179928D01*
X300019Y179929D01*
X300021Y179943D01*
X300022Y179948D01*
X300024Y179968D01*
X300027Y179988D01*
X300028Y179993D01*
X300028Y179998D01*
X300029Y180008D01*
X300030Y180008D01*
X300030Y180013D01*
X300033Y180033D01*
X300035Y180053D01*
X300036Y180058D01*
X300038Y180073D01*
X300039Y180078D01*
X300041Y180097D01*
X300044Y180117D01*
X300044Y180122D01*
X300046Y180137D01*
X300047Y180142D01*
X300050Y180162D01*
X300052Y180182D01*
X300053Y180187D01*
X300055Y180202D01*
X300055Y180207D01*
X300058Y180227D01*
X300061Y180246D01*
X300061Y180247D01*
X300061Y180251D01*
X300063Y180266D01*
X300064Y180271D01*
X300066Y180291D01*
X300067Y180291D01*
X300066Y180291D01*
X300069Y180311D01*
X300070Y180316D01*
X300072Y180331D01*
X300072Y180336D01*
X300075Y180356D01*
X300078Y180376D01*
X300078Y180381D01*
X300080Y180396D01*
X300081Y180400D01*
X300081Y180401D01*
X300083Y180420D01*
X300086Y180440D01*
X300087Y180445D01*
X300089Y180460D01*
X300089Y180465D01*
X300092Y180485D01*
X300094Y180505D01*
X300095Y180510D01*
X300097Y180525D01*
X300098Y180530D01*
X300100Y180550D01*
X300103Y180569D01*
X300103Y180574D01*
X300104Y180574D01*
X300103Y180574D01*
X300105Y180589D01*
X300106Y180594D01*
X300109Y180614D01*
X300111Y180634D01*
X300112Y180639D01*
X300114Y180654D01*
X300115Y180659D01*
X300117Y180679D01*
X300120Y180699D01*
X300120Y180704D01*
X300122Y180718D01*
X300122Y180719D01*
X300123Y180723D01*
X300123Y180724D01*
X300126Y180743D01*
X300128Y180763D01*
X300129Y180768D01*
X300131Y180783D01*
X300131Y180788D01*
X300133Y180804D01*
X300134Y180808D01*
X300137Y180828D01*
X300137Y180833D01*
X300140Y180853D01*
X300140Y180858D01*
X300141Y180858D01*
X300140Y180858D01*
X300143Y180877D01*
X300143Y180878D01*
X300146Y180897D01*
X300146Y180902D01*
X300149Y180922D01*
X300150Y180927D01*
X300152Y180947D01*
X300155Y180967D01*
X300155Y180972D01*
X300158Y180992D01*
X300159Y180997D01*
X300161Y181012D01*
X300161Y181017D01*
X300164Y181036D01*
X300164Y181037D01*
X300165Y181041D01*
X300165Y181042D01*
X300167Y181061D01*
X300170Y181081D01*
X300170Y181086D01*
X300173Y181106D01*
X300174Y181111D01*
X300176Y181131D01*
X300179Y181151D01*
X300179Y181156D01*
X300182Y181176D01*
X300183Y181181D01*
X300185Y181200D01*
X300185Y181201D01*
X300188Y181220D01*
X300189Y181225D01*
X300191Y181245D01*
X300192Y181250D01*
X300194Y181265D01*
X300194Y181270D01*
X300197Y181290D01*
X300198Y181295D01*
X300200Y181315D01*
X300203Y181335D01*
X300203Y181340D01*
X300204Y181340D01*
X300203Y181340D01*
X300206Y181359D01*
X300206Y181360D01*
X300207Y181364D01*
X300209Y181384D01*
X300212Y181404D01*
X300213Y181409D01*
X300215Y181429D01*
X300216Y181434D01*
X300218Y181454D01*
X300221Y181474D01*
X300222Y181479D01*
X300224Y181499D01*
X300227Y181518D01*
X300227Y181519D01*
X300228Y181523D01*
X300230Y181543D01*
X300231Y181548D01*
X300233Y181568D01*
X300236Y181588D01*
X300237Y181593D01*
X300238Y181602D01*
X303615Y179802D01*
X299924Y179198D01*
X299924Y179203D01*
G37*
%LPD*%
%LPC*%
G36*
X287426Y323635D02*
X287426Y323635D01*
X288438Y323814D01*
X289202Y322980D01*
X289415Y322193D01*
X289633Y321387D01*
X289526Y321372D01*
X289524Y321370D01*
X289522Y321368D01*
X289522Y321367D01*
X289524Y321365D01*
X289527Y321362D01*
X289572Y321364D01*
X288120Y321154D01*
X287426Y323635D01*
G37*
%LPD*%
%LPC*%
G36*
X140858Y180423D02*
X140858Y180423D01*
X143452Y182350D01*
X143556Y181553D01*
X143662Y180747D01*
X143766Y179948D01*
X140858Y180423D01*
G37*
%LPD*%
%LPC*%
G36*
X126321Y191112D02*
X126321Y191112D01*
X127227Y190583D01*
X127228Y190583D01*
X127229Y190583D01*
X127231Y190584D01*
X127233Y190584D01*
X127233Y190585D01*
X127234Y190585D01*
X128058Y192079D01*
X128160Y192265D01*
X128230Y192390D01*
X128230Y187724D01*
X126321Y191112D01*
G37*
%LPD*%
%LPC*%
G36*
X315460Y191640D02*
X315460Y191640D01*
X315631Y191331D01*
X316456Y189836D01*
X316463Y189833D01*
X316463Y189834D01*
X317369Y190363D01*
X315460Y186976D01*
X315460Y191640D01*
G37*
%LPD*%
%LPC*%
G36*
X311810Y197366D02*
X311810Y197366D01*
X313672Y196211D01*
X311810Y195100D01*
X311810Y197366D01*
G37*
%LPD*%
%LPC*%
G36*
X130019Y196960D02*
X130019Y196960D01*
X131881Y198116D01*
X131881Y195850D01*
X130019Y196960D01*
G37*
%LPD*%
%LPC*%
G36*
X298599Y316650D02*
X298599Y316650D01*
X296529Y318910D01*
X301156Y314445D01*
X301136Y314440D01*
X300706Y314349D01*
X298599Y316650D01*
G37*
%LPD*%
%LPC*%
G36*
X173443Y147490D02*
X173443Y147490D01*
X176561Y147543D01*
X169423Y146741D01*
X173443Y147490D01*
G37*
%LPD*%
%LPC*%
G36*
X173483Y130937D02*
X173483Y130937D01*
X176566Y130991D01*
X169508Y130198D01*
X173483Y130937D01*
G37*
%LPD*%
%LPC*%
G36*
X305285Y289393D02*
X305285Y289393D01*
X304844Y289834D01*
X304411Y290266D01*
X305717Y290266D01*
X305717Y288960D01*
X305285Y289393D01*
G37*
%LPD*%
%LPC*%
G36*
X284296Y332264D02*
X284296Y332264D01*
X284681Y332424D01*
X285427Y332733D01*
X285427Y331962D01*
X284960Y331539D01*
X284296Y332264D01*
G37*
%LPD*%
%LPC*%
G36*
X216188Y393102D02*
X216188Y393102D01*
X216390Y393600D01*
X216589Y394087D01*
X216960Y393184D01*
X215991Y392618D01*
X216188Y393102D01*
G37*
%LPD*%
%LPC*%
G36*
X335997Y315726D02*
X335997Y315726D01*
X335996Y315726D01*
X335749Y315731D01*
X335748Y315731D01*
X335502Y315736D01*
X335500Y315736D01*
X335254Y315741D01*
X335253Y315741D01*
X335006Y315746D01*
X335005Y315746D01*
X334932Y315747D01*
X334758Y316680D01*
X335173Y316364D01*
X335598Y316040D01*
X336012Y315726D01*
X335997Y315726D01*
G37*
%LPD*%
%LPC*%
G36*
X188121Y373708D02*
X188121Y373708D01*
X188640Y373641D01*
X189174Y373571D01*
X189696Y373504D01*
X188899Y372975D01*
X188121Y373708D01*
G37*
%LPD*%
%LPC*%
G36*
X272158Y396659D02*
X272158Y396659D01*
X272583Y396983D01*
X272999Y397299D01*
X272866Y396413D01*
X272789Y396408D01*
X272788Y396408D01*
X272706Y396403D01*
X272623Y396398D01*
X272540Y396393D01*
X272458Y396388D01*
X272375Y396383D01*
X272292Y396378D01*
X272210Y396373D01*
X272209Y396373D01*
X272127Y396368D01*
X272044Y396363D01*
X271961Y396358D01*
X271879Y396353D01*
X271878Y396353D01*
X271796Y396348D01*
X271746Y396345D01*
X272158Y396659D01*
G37*
%LPD*%
%LPC*%
G36*
X282793Y333906D02*
X282793Y333906D01*
X282957Y333971D01*
X284096Y334022D01*
X283360Y333286D01*
X282793Y333906D01*
G37*
%LPD*%
%LPC*%
G36*
X332635Y342255D02*
X332635Y342255D01*
X332636Y342260D01*
X332637Y342265D01*
X332637Y342270D01*
X332638Y342275D01*
X332638Y342280D01*
X332639Y342285D01*
X332640Y342290D01*
X332640Y342295D01*
X332641Y342300D01*
X332641Y342305D01*
X332642Y342309D01*
X332642Y342310D01*
X332643Y342314D01*
X332643Y342315D01*
X332643Y342319D01*
X332644Y342324D01*
X332644Y342329D01*
X332645Y342334D01*
X332646Y342339D01*
X332646Y342344D01*
X332647Y342349D01*
X332647Y342354D01*
X332648Y342359D01*
X332649Y342364D01*
X332657Y342439D01*
X332658Y342444D01*
X332659Y342449D01*
X332659Y342454D01*
X332660Y342459D01*
X332660Y342464D01*
X332661Y342468D01*
X332661Y342469D01*
X332662Y342473D01*
X332662Y342474D01*
X332662Y342478D01*
X332663Y342483D01*
X332663Y342488D01*
X332664Y342493D01*
X332665Y342498D01*
X332665Y342503D01*
X332666Y342508D01*
X332666Y342513D01*
X332667Y342518D01*
X332668Y342523D01*
X332668Y342528D01*
X332669Y342533D01*
X332669Y342538D01*
X332670Y342543D01*
X332671Y342548D01*
X332679Y342623D01*
X332680Y342627D01*
X332680Y342628D01*
X332681Y342632D01*
X332681Y342633D01*
X332681Y342637D01*
X332682Y342642D01*
X332682Y342647D01*
X332683Y342652D01*
X332684Y342657D01*
X332684Y342662D01*
X332685Y342667D01*
X332685Y342672D01*
X332686Y342677D01*
X332687Y342682D01*
X332687Y342687D01*
X332688Y342692D01*
X332688Y342697D01*
X332689Y342702D01*
X332690Y342707D01*
X332690Y342712D01*
X332691Y342717D01*
X332691Y342722D01*
X332692Y342727D01*
X332693Y342732D01*
X332701Y342806D01*
X332702Y342811D01*
X332703Y342816D01*
X332703Y342821D01*
X332704Y342826D01*
X332704Y342831D01*
X332705Y342836D01*
X332706Y342841D01*
X332706Y342846D01*
X332707Y342851D01*
X332707Y342856D01*
X332708Y342861D01*
X332709Y342866D01*
X332709Y342871D01*
X332710Y342876D01*
X332710Y342881D01*
X332711Y342886D01*
X332712Y342891D01*
X332712Y342896D01*
X332713Y342901D01*
X332713Y342906D01*
X332714Y342911D01*
X332715Y342916D01*
X332723Y342990D01*
X332724Y342995D01*
X332725Y343000D01*
X332725Y343005D01*
X332726Y343010D01*
X332726Y343015D01*
X332727Y343020D01*
X332728Y343025D01*
X332728Y343030D01*
X332729Y343035D01*
X332729Y343040D01*
X332730Y343045D01*
X332731Y343050D01*
X332731Y343055D01*
X332732Y343060D01*
X332732Y343065D01*
X332733Y343070D01*
X332734Y343075D01*
X332734Y343080D01*
X332735Y343085D01*
X332735Y343090D01*
X332736Y343095D01*
X332737Y343100D01*
X332745Y343174D01*
X332746Y343179D01*
X332747Y343183D01*
X333583Y343481D01*
X333269Y343069D01*
X332945Y342644D01*
X332633Y342233D01*
X332635Y342255D01*
G37*
%LPD*%
%LPC*%
G36*
X156549Y359421D02*
X156549Y359421D01*
X157066Y359354D01*
X157600Y359285D01*
X158117Y359218D01*
X157274Y358844D01*
X156549Y359421D01*
G37*
%LPD*%
%LPC*%
G36*
X240887Y398690D02*
X240887Y398690D01*
X240745Y399429D01*
X241349Y398825D01*
X241645Y398529D01*
X240887Y398690D01*
G37*
%LPD*%
%LPC*%
G36*
X335507Y287630D02*
X335507Y287630D01*
X335235Y288269D01*
X335603Y288058D01*
X335983Y287840D01*
X336348Y287630D01*
X335507Y287630D01*
G37*
%LPD*%
%LPC*%
G36*
X322886Y362178D02*
X322886Y362178D01*
X324185Y362178D01*
X323435Y361788D01*
X322886Y362178D01*
G37*
%LPD*%
%LPC*%
G36*
X331220Y295639D02*
X331220Y295639D01*
X331981Y295492D01*
X331572Y295384D01*
X331144Y295270D01*
X330733Y295162D01*
X331220Y295639D01*
G37*
%LPD*%
%LPC*%
G36*
X135469Y215500D02*
X135469Y215500D01*
X135661Y215321D01*
X135793Y215197D01*
X135794Y215197D01*
X135906Y215094D01*
X135972Y214855D01*
X136256Y213823D01*
X135469Y215500D01*
G37*
%LPD*%
%LPC*%
G36*
X303471Y312226D02*
X303471Y312226D01*
X303510Y312234D01*
X303512Y312237D01*
X303514Y312238D01*
X303514Y312239D01*
X303514Y312240D01*
X303246Y313207D01*
X303926Y311787D01*
X303471Y312226D01*
G37*
%LPD*%
%LPC*%
G36*
X305727Y305961D02*
X305727Y305961D01*
X305867Y306101D01*
X305727Y304382D01*
X305727Y305961D01*
G37*
%LPD*%
%LPC*%
G36*
X128315Y192966D02*
X128315Y192966D01*
X128897Y193620D01*
X128513Y192925D01*
X128383Y192844D01*
X128315Y192966D01*
G37*
%LPD*%
%LPC*%
G36*
X334936Y214870D02*
X334936Y214870D01*
X335097Y214867D01*
X335039Y214414D01*
X334972Y213887D01*
X334936Y214870D01*
G37*
%LPD*%
%LPC*%
G36*
X307302Y214584D02*
X307302Y214584D01*
X307935Y214959D01*
X307352Y214427D01*
X307302Y214382D01*
X307302Y214584D01*
G37*
%LPD*%
%LPC*%
G36*
X166456Y321953D02*
X166456Y321953D01*
X166929Y321859D01*
X167392Y321766D01*
X167248Y321667D01*
X166456Y321953D01*
G37*
%LPD*%
%LPC*%
G36*
X256892Y196106D02*
X256892Y196106D01*
X257314Y195975D01*
X257797Y195566D01*
X256892Y196106D01*
G37*
%LPD*%
%LPC*%
G36*
X302784Y312080D02*
X302784Y312080D01*
X303072Y312141D01*
X303072Y311767D01*
X302784Y312080D01*
G37*
%LPD*%
%LPC*%
G36*
X128240Y192743D02*
X128240Y192743D01*
X128380Y192830D01*
X128421Y192757D01*
X128357Y192641D01*
X128254Y192455D01*
X128240Y192429D01*
X128240Y192743D01*
G37*
%LPD*%
%LPC*%
G36*
X315295Y191961D02*
X315295Y191961D01*
X315269Y192007D01*
X315311Y192080D01*
X315450Y191989D01*
X315450Y191679D01*
X315295Y191961D01*
G37*
%LPD*%
%LPC*%
G36*
X337543Y213149D02*
X337543Y213149D01*
X337634Y213149D01*
X337635Y213141D01*
X337645Y212841D01*
X337543Y213149D01*
G37*
%LPD*%
%LPC*%
G36*
X315307Y192095D02*
X315307Y192095D01*
X315176Y192176D01*
X315133Y192254D01*
X315318Y192114D01*
X315307Y192095D01*
X315307Y192095D01*
G37*
%LPD*%
%LPC*%
G36*
X128080Y192702D02*
X128080Y192702D01*
X128213Y192739D01*
X127987Y192598D01*
X128080Y192702D01*
G37*
%LPD*%
%LPC*%
G36*
X315462Y191993D02*
X315462Y191993D01*
X315485Y191987D01*
X315496Y191979D01*
X315521Y191955D01*
X315462Y191993D01*
G37*
%LPD*%
%LPC*%
G36*
X289646Y321378D02*
X289646Y321378D01*
X289728Y321387D01*
X289647Y321375D01*
X289646Y321378D01*
G37*
%LPD*%
D10*
X326238Y438762D02*
X326238Y455018D01*
X321722Y455018D01*
X321589Y455016D01*
X321457Y455010D01*
X321325Y455000D01*
X321193Y454987D01*
X321061Y454969D01*
X320931Y454948D01*
X320800Y454923D01*
X320671Y454894D01*
X320543Y454861D01*
X320415Y454825D01*
X320289Y454785D01*
X320164Y454741D01*
X320040Y454693D01*
X319918Y454642D01*
X319797Y454587D01*
X319678Y454529D01*
X319560Y454467D01*
X319445Y454402D01*
X319331Y454333D01*
X319220Y454262D01*
X319111Y454186D01*
X319004Y454108D01*
X318899Y454027D01*
X318797Y453942D01*
X318697Y453855D01*
X318600Y453765D01*
X318505Y453672D01*
X318414Y453576D01*
X318325Y453478D01*
X318239Y453377D01*
X318156Y453273D01*
X318076Y453167D01*
X318000Y453059D01*
X317926Y452949D01*
X317856Y452836D01*
X317789Y452722D01*
X317726Y452605D01*
X317666Y452487D01*
X317609Y452367D01*
X317556Y452245D01*
X317507Y452122D01*
X317461Y451998D01*
X317419Y451872D01*
X317381Y451745D01*
X317346Y451617D01*
X317315Y451488D01*
X317288Y451359D01*
X317265Y451228D01*
X317245Y451097D01*
X317230Y450965D01*
X317218Y450833D01*
X317210Y450701D01*
X317206Y450568D01*
X317206Y450436D01*
X317210Y450303D01*
X317218Y450171D01*
X317230Y450039D01*
X317245Y449907D01*
X317265Y449776D01*
X317288Y449645D01*
X317315Y449516D01*
X317346Y449387D01*
X317381Y449259D01*
X317419Y449132D01*
X317461Y449006D01*
X317507Y448882D01*
X317556Y448759D01*
X317609Y448637D01*
X317666Y448517D01*
X317726Y448399D01*
X317789Y448282D01*
X317856Y448168D01*
X317926Y448055D01*
X318000Y447945D01*
X318076Y447837D01*
X318156Y447731D01*
X318239Y447627D01*
X318325Y447526D01*
X318414Y447428D01*
X318505Y447332D01*
X318600Y447239D01*
X318697Y447149D01*
X318797Y447062D01*
X318899Y446977D01*
X319004Y446896D01*
X319111Y446818D01*
X319220Y446742D01*
X319331Y446671D01*
X319445Y446602D01*
X319560Y446537D01*
X319678Y446475D01*
X319797Y446417D01*
X319918Y446362D01*
X320040Y446311D01*
X320164Y446263D01*
X320289Y446219D01*
X320415Y446179D01*
X320543Y446143D01*
X320671Y446110D01*
X320800Y446081D01*
X320931Y446056D01*
X321061Y446035D01*
X321193Y446017D01*
X321325Y446004D01*
X321457Y445994D01*
X321589Y445988D01*
X321722Y445986D01*
X321722Y445987D02*
X326238Y445987D01*
X320819Y445987D02*
X317207Y438762D01*
X310698Y443278D02*
X310698Y450502D01*
X310699Y450502D02*
X310697Y450635D01*
X310691Y450767D01*
X310681Y450899D01*
X310668Y451031D01*
X310650Y451163D01*
X310629Y451293D01*
X310604Y451424D01*
X310575Y451553D01*
X310542Y451681D01*
X310506Y451809D01*
X310466Y451935D01*
X310422Y452060D01*
X310374Y452184D01*
X310323Y452306D01*
X310268Y452427D01*
X310210Y452546D01*
X310148Y452664D01*
X310083Y452779D01*
X310014Y452893D01*
X309943Y453004D01*
X309867Y453113D01*
X309789Y453220D01*
X309708Y453325D01*
X309623Y453427D01*
X309536Y453527D01*
X309446Y453624D01*
X309353Y453719D01*
X309257Y453810D01*
X309159Y453899D01*
X309058Y453985D01*
X308954Y454068D01*
X308848Y454148D01*
X308740Y454224D01*
X308630Y454298D01*
X308517Y454368D01*
X308403Y454435D01*
X308286Y454498D01*
X308168Y454558D01*
X308048Y454615D01*
X307926Y454668D01*
X307803Y454717D01*
X307679Y454763D01*
X307553Y454805D01*
X307426Y454843D01*
X307298Y454878D01*
X307169Y454909D01*
X307040Y454936D01*
X306909Y454959D01*
X306778Y454979D01*
X306646Y454994D01*
X306514Y455006D01*
X306382Y455014D01*
X306249Y455018D01*
X306117Y455018D01*
X305984Y455014D01*
X305852Y455006D01*
X305720Y454994D01*
X305588Y454979D01*
X305457Y454959D01*
X305326Y454936D01*
X305197Y454909D01*
X305068Y454878D01*
X304940Y454843D01*
X304813Y454805D01*
X304687Y454763D01*
X304563Y454717D01*
X304440Y454668D01*
X304318Y454615D01*
X304198Y454558D01*
X304080Y454498D01*
X303963Y454435D01*
X303849Y454368D01*
X303736Y454298D01*
X303626Y454224D01*
X303518Y454148D01*
X303412Y454068D01*
X303308Y453985D01*
X303207Y453899D01*
X303109Y453810D01*
X303013Y453719D01*
X302920Y453624D01*
X302830Y453527D01*
X302743Y453427D01*
X302658Y453325D01*
X302577Y453220D01*
X302499Y453113D01*
X302423Y453004D01*
X302352Y452893D01*
X302283Y452779D01*
X302218Y452664D01*
X302156Y452546D01*
X302098Y452427D01*
X302043Y452306D01*
X301992Y452184D01*
X301944Y452060D01*
X301900Y451935D01*
X301860Y451809D01*
X301824Y451681D01*
X301791Y451553D01*
X301762Y451424D01*
X301737Y451293D01*
X301716Y451163D01*
X301698Y451031D01*
X301685Y450899D01*
X301675Y450767D01*
X301669Y450635D01*
X301667Y450502D01*
X301667Y443278D01*
X301669Y443145D01*
X301675Y443013D01*
X301685Y442881D01*
X301698Y442749D01*
X301716Y442617D01*
X301737Y442487D01*
X301762Y442356D01*
X301791Y442227D01*
X301824Y442099D01*
X301860Y441971D01*
X301900Y441845D01*
X301944Y441720D01*
X301992Y441596D01*
X302043Y441474D01*
X302098Y441353D01*
X302156Y441234D01*
X302218Y441116D01*
X302283Y441001D01*
X302352Y440887D01*
X302423Y440776D01*
X302499Y440667D01*
X302577Y440560D01*
X302658Y440455D01*
X302743Y440353D01*
X302830Y440253D01*
X302920Y440156D01*
X303013Y440061D01*
X303109Y439970D01*
X303207Y439881D01*
X303308Y439795D01*
X303412Y439712D01*
X303518Y439632D01*
X303626Y439556D01*
X303736Y439482D01*
X303849Y439412D01*
X303963Y439345D01*
X304080Y439282D01*
X304198Y439222D01*
X304318Y439165D01*
X304440Y439112D01*
X304563Y439063D01*
X304687Y439017D01*
X304813Y438975D01*
X304940Y438937D01*
X305068Y438902D01*
X305197Y438871D01*
X305326Y438844D01*
X305457Y438821D01*
X305588Y438801D01*
X305720Y438786D01*
X305852Y438774D01*
X305984Y438766D01*
X306117Y438762D01*
X306249Y438762D01*
X306382Y438766D01*
X306514Y438774D01*
X306646Y438786D01*
X306778Y438801D01*
X306909Y438821D01*
X307040Y438844D01*
X307169Y438871D01*
X307298Y438902D01*
X307426Y438937D01*
X307553Y438975D01*
X307679Y439017D01*
X307803Y439063D01*
X307926Y439112D01*
X308048Y439165D01*
X308168Y439222D01*
X308286Y439282D01*
X308403Y439345D01*
X308517Y439412D01*
X308630Y439482D01*
X308740Y439556D01*
X308848Y439632D01*
X308954Y439712D01*
X309058Y439795D01*
X309159Y439881D01*
X309257Y439970D01*
X309353Y440061D01*
X309446Y440156D01*
X309536Y440253D01*
X309623Y440353D01*
X309708Y440455D01*
X309789Y440560D01*
X309867Y440667D01*
X309943Y440776D01*
X310014Y440887D01*
X310083Y441001D01*
X310148Y441116D01*
X310210Y441234D01*
X310268Y441353D01*
X310323Y441474D01*
X310374Y441596D01*
X310422Y441720D01*
X310466Y441845D01*
X310506Y441971D01*
X310542Y442099D01*
X310575Y442227D01*
X310604Y442356D01*
X310629Y442487D01*
X310650Y442617D01*
X310668Y442749D01*
X310681Y442881D01*
X310691Y443013D01*
X310697Y443145D01*
X310699Y443278D01*
X294335Y447793D02*
X289820Y447793D01*
X289820Y447794D02*
X289687Y447792D01*
X289555Y447786D01*
X289423Y447776D01*
X289291Y447763D01*
X289159Y447745D01*
X289029Y447724D01*
X288898Y447699D01*
X288769Y447670D01*
X288641Y447637D01*
X288513Y447601D01*
X288387Y447561D01*
X288262Y447517D01*
X288138Y447469D01*
X288016Y447418D01*
X287895Y447363D01*
X287776Y447305D01*
X287658Y447243D01*
X287543Y447178D01*
X287429Y447109D01*
X287318Y447038D01*
X287209Y446962D01*
X287102Y446884D01*
X286997Y446803D01*
X286895Y446718D01*
X286795Y446631D01*
X286698Y446541D01*
X286603Y446448D01*
X286512Y446352D01*
X286423Y446254D01*
X286337Y446153D01*
X286254Y446049D01*
X286174Y445943D01*
X286098Y445835D01*
X286024Y445725D01*
X285954Y445612D01*
X285887Y445498D01*
X285824Y445381D01*
X285764Y445263D01*
X285707Y445143D01*
X285654Y445021D01*
X285605Y444898D01*
X285559Y444774D01*
X285517Y444648D01*
X285479Y444521D01*
X285444Y444393D01*
X285413Y444264D01*
X285386Y444135D01*
X285363Y444004D01*
X285343Y443873D01*
X285328Y443741D01*
X285316Y443609D01*
X285308Y443477D01*
X285304Y443344D01*
X285304Y443212D01*
X285308Y443079D01*
X285316Y442947D01*
X285328Y442815D01*
X285343Y442683D01*
X285363Y442552D01*
X285386Y442421D01*
X285413Y442292D01*
X285444Y442163D01*
X285479Y442035D01*
X285517Y441908D01*
X285559Y441782D01*
X285605Y441658D01*
X285654Y441535D01*
X285707Y441413D01*
X285764Y441293D01*
X285824Y441175D01*
X285887Y441058D01*
X285954Y440944D01*
X286024Y440831D01*
X286098Y440721D01*
X286174Y440613D01*
X286254Y440507D01*
X286337Y440403D01*
X286423Y440302D01*
X286512Y440204D01*
X286603Y440108D01*
X286698Y440015D01*
X286795Y439925D01*
X286895Y439838D01*
X286997Y439753D01*
X287102Y439672D01*
X287209Y439594D01*
X287318Y439518D01*
X287429Y439447D01*
X287543Y439378D01*
X287658Y439313D01*
X287776Y439251D01*
X287895Y439193D01*
X288016Y439138D01*
X288138Y439087D01*
X288262Y439039D01*
X288387Y438995D01*
X288513Y438955D01*
X288641Y438919D01*
X288769Y438886D01*
X288898Y438857D01*
X289029Y438832D01*
X289159Y438811D01*
X289291Y438793D01*
X289423Y438780D01*
X289555Y438770D01*
X289687Y438764D01*
X289820Y438762D01*
X294335Y438762D01*
X294335Y455018D01*
X289820Y455018D01*
X289701Y455016D01*
X289581Y455010D01*
X289462Y455000D01*
X289344Y454986D01*
X289225Y454969D01*
X289108Y454947D01*
X288991Y454922D01*
X288876Y454892D01*
X288761Y454859D01*
X288647Y454822D01*
X288535Y454782D01*
X288424Y454737D01*
X288315Y454689D01*
X288207Y454638D01*
X288101Y454583D01*
X287997Y454524D01*
X287895Y454462D01*
X287795Y454397D01*
X287697Y454328D01*
X287601Y454256D01*
X287508Y454181D01*
X287418Y454104D01*
X287330Y454023D01*
X287245Y453939D01*
X287163Y453852D01*
X287083Y453763D01*
X287007Y453671D01*
X286933Y453577D01*
X286863Y453480D01*
X286796Y453382D01*
X286732Y453281D01*
X286672Y453177D01*
X286615Y453072D01*
X286562Y452965D01*
X286512Y452857D01*
X286466Y452747D01*
X286424Y452635D01*
X286385Y452522D01*
X286350Y452408D01*
X286319Y452293D01*
X286291Y452176D01*
X286268Y452059D01*
X286248Y451942D01*
X286232Y451823D01*
X286220Y451704D01*
X286212Y451585D01*
X286208Y451466D01*
X286208Y451346D01*
X286212Y451227D01*
X286220Y451108D01*
X286232Y450989D01*
X286248Y450870D01*
X286268Y450753D01*
X286291Y450636D01*
X286319Y450519D01*
X286350Y450404D01*
X286385Y450290D01*
X286424Y450177D01*
X286466Y450065D01*
X286512Y449955D01*
X286562Y449847D01*
X286615Y449740D01*
X286672Y449635D01*
X286732Y449531D01*
X286796Y449430D01*
X286863Y449332D01*
X286933Y449235D01*
X287007Y449141D01*
X287083Y449049D01*
X287163Y448960D01*
X287245Y448873D01*
X287330Y448789D01*
X287418Y448708D01*
X287508Y448631D01*
X287601Y448556D01*
X287697Y448484D01*
X287795Y448415D01*
X287895Y448350D01*
X287997Y448288D01*
X288101Y448229D01*
X288207Y448174D01*
X288315Y448123D01*
X288424Y448075D01*
X288535Y448030D01*
X288647Y447990D01*
X288761Y447953D01*
X288876Y447920D01*
X288991Y447890D01*
X289108Y447865D01*
X289225Y447843D01*
X289344Y447826D01*
X289462Y447812D01*
X289581Y447802D01*
X289701Y447796D01*
X289820Y447794D01*
X279436Y450502D02*
X279436Y443278D01*
X279436Y450502D02*
X279434Y450635D01*
X279428Y450767D01*
X279418Y450899D01*
X279405Y451031D01*
X279387Y451163D01*
X279366Y451293D01*
X279341Y451424D01*
X279312Y451553D01*
X279279Y451681D01*
X279243Y451809D01*
X279203Y451935D01*
X279159Y452060D01*
X279111Y452184D01*
X279060Y452306D01*
X279005Y452427D01*
X278947Y452546D01*
X278885Y452664D01*
X278820Y452779D01*
X278751Y452893D01*
X278680Y453004D01*
X278604Y453113D01*
X278526Y453220D01*
X278445Y453325D01*
X278360Y453427D01*
X278273Y453527D01*
X278183Y453624D01*
X278090Y453719D01*
X277994Y453810D01*
X277896Y453899D01*
X277795Y453985D01*
X277691Y454068D01*
X277585Y454148D01*
X277477Y454224D01*
X277367Y454298D01*
X277254Y454368D01*
X277140Y454435D01*
X277023Y454498D01*
X276905Y454558D01*
X276785Y454615D01*
X276663Y454668D01*
X276540Y454717D01*
X276416Y454763D01*
X276290Y454805D01*
X276163Y454843D01*
X276035Y454878D01*
X275906Y454909D01*
X275777Y454936D01*
X275646Y454959D01*
X275515Y454979D01*
X275383Y454994D01*
X275251Y455006D01*
X275119Y455014D01*
X274986Y455018D01*
X274854Y455018D01*
X274721Y455014D01*
X274589Y455006D01*
X274457Y454994D01*
X274325Y454979D01*
X274194Y454959D01*
X274063Y454936D01*
X273934Y454909D01*
X273805Y454878D01*
X273677Y454843D01*
X273550Y454805D01*
X273424Y454763D01*
X273300Y454717D01*
X273177Y454668D01*
X273055Y454615D01*
X272935Y454558D01*
X272817Y454498D01*
X272700Y454435D01*
X272586Y454368D01*
X272473Y454298D01*
X272363Y454224D01*
X272255Y454148D01*
X272149Y454068D01*
X272045Y453985D01*
X271944Y453899D01*
X271846Y453810D01*
X271750Y453719D01*
X271657Y453624D01*
X271567Y453527D01*
X271480Y453427D01*
X271395Y453325D01*
X271314Y453220D01*
X271236Y453113D01*
X271160Y453004D01*
X271089Y452893D01*
X271020Y452779D01*
X270955Y452664D01*
X270893Y452546D01*
X270835Y452427D01*
X270780Y452306D01*
X270729Y452184D01*
X270681Y452060D01*
X270637Y451935D01*
X270597Y451809D01*
X270561Y451681D01*
X270528Y451553D01*
X270499Y451424D01*
X270474Y451293D01*
X270453Y451163D01*
X270435Y451031D01*
X270422Y450899D01*
X270412Y450767D01*
X270406Y450635D01*
X270404Y450502D01*
X270405Y450502D02*
X270405Y443278D01*
X270404Y443278D02*
X270406Y443145D01*
X270412Y443013D01*
X270422Y442881D01*
X270435Y442749D01*
X270453Y442617D01*
X270474Y442487D01*
X270499Y442356D01*
X270528Y442227D01*
X270561Y442099D01*
X270597Y441971D01*
X270637Y441845D01*
X270681Y441720D01*
X270729Y441596D01*
X270780Y441474D01*
X270835Y441353D01*
X270893Y441234D01*
X270955Y441116D01*
X271020Y441001D01*
X271089Y440887D01*
X271160Y440776D01*
X271236Y440667D01*
X271314Y440560D01*
X271395Y440455D01*
X271480Y440353D01*
X271567Y440253D01*
X271657Y440156D01*
X271750Y440061D01*
X271846Y439970D01*
X271944Y439881D01*
X272045Y439795D01*
X272149Y439712D01*
X272255Y439632D01*
X272363Y439556D01*
X272473Y439482D01*
X272586Y439412D01*
X272700Y439345D01*
X272817Y439282D01*
X272935Y439222D01*
X273055Y439165D01*
X273177Y439112D01*
X273300Y439063D01*
X273424Y439017D01*
X273550Y438975D01*
X273677Y438937D01*
X273805Y438902D01*
X273934Y438871D01*
X274063Y438844D01*
X274194Y438821D01*
X274325Y438801D01*
X274457Y438786D01*
X274589Y438774D01*
X274721Y438766D01*
X274854Y438762D01*
X274986Y438762D01*
X275119Y438766D01*
X275251Y438774D01*
X275383Y438786D01*
X275515Y438801D01*
X275646Y438821D01*
X275777Y438844D01*
X275906Y438871D01*
X276035Y438902D01*
X276163Y438937D01*
X276290Y438975D01*
X276416Y439017D01*
X276540Y439063D01*
X276663Y439112D01*
X276785Y439165D01*
X276905Y439222D01*
X277023Y439282D01*
X277140Y439345D01*
X277254Y439412D01*
X277367Y439482D01*
X277477Y439556D01*
X277585Y439632D01*
X277691Y439712D01*
X277795Y439795D01*
X277896Y439881D01*
X277994Y439970D01*
X278090Y440061D01*
X278183Y440156D01*
X278273Y440253D01*
X278360Y440353D01*
X278445Y440455D01*
X278526Y440560D01*
X278604Y440667D01*
X278680Y440776D01*
X278751Y440887D01*
X278820Y441001D01*
X278885Y441116D01*
X278947Y441234D01*
X279005Y441353D01*
X279060Y441474D01*
X279111Y441596D01*
X279159Y441720D01*
X279203Y441845D01*
X279243Y441971D01*
X279279Y442099D01*
X279312Y442227D01*
X279341Y442356D01*
X279366Y442487D01*
X279387Y442617D01*
X279405Y442749D01*
X279418Y442881D01*
X279428Y443013D01*
X279434Y443145D01*
X279436Y443278D01*
X260331Y438762D02*
X260331Y455018D01*
X255816Y455018D02*
X264847Y455018D01*
X248868Y455018D02*
X248868Y438762D01*
X247062Y438762D02*
X250675Y438762D01*
X250675Y455018D02*
X247062Y455018D01*
X240147Y455018D02*
X240147Y438762D01*
X240147Y445084D02*
X231116Y455018D01*
X236534Y448696D02*
X231116Y438762D01*
X216390Y443278D02*
X216390Y455018D01*
X216390Y443278D02*
X216388Y443145D01*
X216382Y443013D01*
X216372Y442881D01*
X216359Y442749D01*
X216341Y442617D01*
X216320Y442487D01*
X216295Y442356D01*
X216266Y442227D01*
X216233Y442099D01*
X216197Y441971D01*
X216157Y441845D01*
X216113Y441720D01*
X216065Y441596D01*
X216014Y441474D01*
X215959Y441353D01*
X215901Y441234D01*
X215839Y441116D01*
X215774Y441001D01*
X215705Y440887D01*
X215634Y440776D01*
X215558Y440667D01*
X215480Y440560D01*
X215399Y440455D01*
X215314Y440353D01*
X215227Y440253D01*
X215137Y440156D01*
X215044Y440061D01*
X214948Y439970D01*
X214850Y439881D01*
X214749Y439795D01*
X214645Y439712D01*
X214539Y439632D01*
X214431Y439556D01*
X214321Y439482D01*
X214208Y439412D01*
X214094Y439345D01*
X213977Y439282D01*
X213859Y439222D01*
X213739Y439165D01*
X213617Y439112D01*
X213494Y439063D01*
X213370Y439017D01*
X213244Y438975D01*
X213117Y438937D01*
X212989Y438902D01*
X212860Y438871D01*
X212731Y438844D01*
X212600Y438821D01*
X212469Y438801D01*
X212337Y438786D01*
X212205Y438774D01*
X212073Y438766D01*
X211940Y438762D01*
X211808Y438762D01*
X211675Y438766D01*
X211543Y438774D01*
X211411Y438786D01*
X211279Y438801D01*
X211148Y438821D01*
X211017Y438844D01*
X210888Y438871D01*
X210759Y438902D01*
X210631Y438937D01*
X210504Y438975D01*
X210378Y439017D01*
X210254Y439063D01*
X210131Y439112D01*
X210009Y439165D01*
X209889Y439222D01*
X209771Y439282D01*
X209654Y439345D01*
X209540Y439412D01*
X209427Y439482D01*
X209317Y439556D01*
X209209Y439632D01*
X209103Y439712D01*
X208999Y439795D01*
X208898Y439881D01*
X208800Y439970D01*
X208704Y440061D01*
X208611Y440156D01*
X208521Y440253D01*
X208434Y440353D01*
X208349Y440455D01*
X208268Y440560D01*
X208190Y440667D01*
X208114Y440776D01*
X208043Y440887D01*
X207974Y441001D01*
X207909Y441116D01*
X207847Y441234D01*
X207789Y441353D01*
X207734Y441474D01*
X207683Y441596D01*
X207635Y441720D01*
X207591Y441845D01*
X207551Y441971D01*
X207515Y442099D01*
X207482Y442227D01*
X207453Y442356D01*
X207428Y442487D01*
X207407Y442617D01*
X207389Y442749D01*
X207376Y442881D01*
X207366Y443013D01*
X207360Y443145D01*
X207358Y443278D01*
X207359Y443278D02*
X207359Y455018D01*
X196764Y455018D02*
X196764Y438762D01*
X201280Y455018D02*
X192249Y455018D01*
X183217Y455018D02*
X183217Y438762D01*
X187733Y455018D02*
X178702Y455018D01*
X159840Y455018D02*
X159715Y455016D01*
X159590Y455010D01*
X159465Y455001D01*
X159341Y454987D01*
X159217Y454970D01*
X159093Y454949D01*
X158971Y454924D01*
X158849Y454895D01*
X158728Y454863D01*
X158608Y454827D01*
X158489Y454787D01*
X158372Y454744D01*
X158256Y454697D01*
X158141Y454646D01*
X158029Y454592D01*
X157917Y454534D01*
X157808Y454474D01*
X157701Y454409D01*
X157595Y454342D01*
X157492Y454271D01*
X157391Y454197D01*
X157292Y454120D01*
X157196Y454040D01*
X157102Y453957D01*
X157011Y453872D01*
X156922Y453783D01*
X156837Y453692D01*
X156754Y453598D01*
X156674Y453502D01*
X156597Y453403D01*
X156523Y453302D01*
X156452Y453199D01*
X156385Y453093D01*
X156320Y452986D01*
X156260Y452877D01*
X156202Y452765D01*
X156148Y452653D01*
X156097Y452538D01*
X156050Y452422D01*
X156007Y452305D01*
X155967Y452186D01*
X155931Y452066D01*
X155899Y451945D01*
X155870Y451823D01*
X155845Y451701D01*
X155824Y451577D01*
X155807Y451453D01*
X155793Y451329D01*
X155784Y451204D01*
X155778Y451079D01*
X155776Y450954D01*
X159840Y455018D02*
X159983Y455016D01*
X160125Y455010D01*
X160268Y455000D01*
X160410Y454987D01*
X160551Y454969D01*
X160693Y454948D01*
X160833Y454923D01*
X160973Y454894D01*
X161112Y454861D01*
X161250Y454824D01*
X161387Y454784D01*
X161522Y454740D01*
X161657Y454692D01*
X161790Y454640D01*
X161922Y454585D01*
X162052Y454526D01*
X162180Y454464D01*
X162307Y454398D01*
X162432Y454329D01*
X162555Y454257D01*
X162676Y454181D01*
X162794Y454102D01*
X162911Y454019D01*
X163025Y453934D01*
X163137Y453845D01*
X163246Y453754D01*
X163353Y453659D01*
X163458Y453562D01*
X163559Y453461D01*
X163658Y453358D01*
X163754Y453253D01*
X163847Y453144D01*
X163937Y453033D01*
X164024Y452920D01*
X164108Y452805D01*
X164188Y452687D01*
X164266Y452567D01*
X164340Y452445D01*
X164410Y452321D01*
X164478Y452195D01*
X164541Y452067D01*
X164602Y451938D01*
X164659Y451807D01*
X164712Y451675D01*
X164761Y451541D01*
X164807Y451406D01*
X157131Y447793D02*
X157037Y447885D01*
X156947Y447979D01*
X156859Y448076D01*
X156774Y448176D01*
X156692Y448278D01*
X156613Y448383D01*
X156538Y448490D01*
X156466Y448599D01*
X156397Y448710D01*
X156331Y448824D01*
X156269Y448939D01*
X156210Y449056D01*
X156155Y449175D01*
X156104Y449295D01*
X156056Y449417D01*
X156011Y449540D01*
X155971Y449664D01*
X155934Y449790D01*
X155901Y449917D01*
X155872Y450044D01*
X155846Y450173D01*
X155825Y450302D01*
X155807Y450432D01*
X155794Y450562D01*
X155784Y450692D01*
X155778Y450823D01*
X155776Y450954D01*
X157130Y447793D02*
X164807Y438762D01*
X155776Y438762D01*
X149175Y446890D02*
X149171Y447210D01*
X149160Y447529D01*
X149141Y447849D01*
X149114Y448167D01*
X149080Y448485D01*
X149038Y448802D01*
X148988Y449118D01*
X148931Y449433D01*
X148867Y449746D01*
X148795Y450058D01*
X148716Y450368D01*
X148629Y450675D01*
X148535Y450981D01*
X148434Y451284D01*
X148325Y451585D01*
X148210Y451883D01*
X148087Y452179D01*
X147957Y452471D01*
X147820Y452760D01*
X147821Y452761D02*
X147782Y452869D01*
X147739Y452976D01*
X147693Y453081D01*
X147642Y453185D01*
X147589Y453287D01*
X147532Y453387D01*
X147471Y453485D01*
X147407Y453580D01*
X147340Y453674D01*
X147269Y453765D01*
X147196Y453854D01*
X147119Y453940D01*
X147040Y454023D01*
X146958Y454104D01*
X146873Y454182D01*
X146785Y454256D01*
X146695Y454328D01*
X146603Y454396D01*
X146508Y454462D01*
X146411Y454524D01*
X146312Y454582D01*
X146210Y454638D01*
X146108Y454689D01*
X146003Y454737D01*
X145897Y454782D01*
X145789Y454823D01*
X145680Y454860D01*
X145570Y454893D01*
X145458Y454922D01*
X145346Y454948D01*
X145233Y454970D01*
X145119Y454987D01*
X145005Y455001D01*
X144890Y455011D01*
X144775Y455017D01*
X144660Y455019D01*
X144660Y455018D02*
X144545Y455016D01*
X144430Y455010D01*
X144315Y455000D01*
X144201Y454986D01*
X144087Y454969D01*
X143974Y454947D01*
X143862Y454921D01*
X143750Y454892D01*
X143640Y454859D01*
X143531Y454822D01*
X143423Y454781D01*
X143317Y454736D01*
X143213Y454688D01*
X143110Y454637D01*
X143009Y454581D01*
X142909Y454523D01*
X142812Y454461D01*
X142718Y454396D01*
X142625Y454327D01*
X142535Y454255D01*
X142447Y454181D01*
X142362Y454103D01*
X142280Y454022D01*
X142201Y453939D01*
X142124Y453853D01*
X142051Y453764D01*
X141980Y453673D01*
X141913Y453579D01*
X141849Y453484D01*
X141788Y453386D01*
X141731Y453286D01*
X141678Y453184D01*
X141627Y453080D01*
X141581Y452975D01*
X141538Y452868D01*
X141499Y452760D01*
X141500Y452760D02*
X141363Y452471D01*
X141233Y452179D01*
X141110Y451883D01*
X140995Y451585D01*
X140886Y451284D01*
X140785Y450981D01*
X140691Y450675D01*
X140604Y450368D01*
X140525Y450058D01*
X140453Y449746D01*
X140389Y449433D01*
X140332Y449118D01*
X140282Y448802D01*
X140240Y448485D01*
X140206Y448167D01*
X140179Y447849D01*
X140160Y447529D01*
X140149Y447210D01*
X140145Y446890D01*
X149175Y446890D02*
X149171Y446570D01*
X149160Y446251D01*
X149141Y445931D01*
X149114Y445613D01*
X149080Y445295D01*
X149038Y444978D01*
X148988Y444662D01*
X148931Y444347D01*
X148867Y444034D01*
X148795Y443722D01*
X148716Y443412D01*
X148629Y443105D01*
X148535Y442799D01*
X148434Y442496D01*
X148325Y442195D01*
X148210Y441897D01*
X148087Y441601D01*
X147957Y441309D01*
X147820Y441020D01*
X147821Y441020D02*
X147782Y440912D01*
X147739Y440805D01*
X147693Y440700D01*
X147642Y440596D01*
X147589Y440494D01*
X147532Y440394D01*
X147471Y440296D01*
X147407Y440201D01*
X147340Y440107D01*
X147269Y440016D01*
X147196Y439927D01*
X147119Y439841D01*
X147040Y439758D01*
X146958Y439677D01*
X146873Y439599D01*
X146785Y439525D01*
X146695Y439453D01*
X146602Y439384D01*
X146508Y439319D01*
X146411Y439257D01*
X146311Y439199D01*
X146210Y439143D01*
X146108Y439092D01*
X146003Y439044D01*
X145897Y438999D01*
X145789Y438958D01*
X145680Y438921D01*
X145570Y438888D01*
X145458Y438859D01*
X145346Y438833D01*
X145233Y438811D01*
X145119Y438794D01*
X145005Y438780D01*
X144890Y438770D01*
X144775Y438764D01*
X144660Y438762D01*
X141500Y441020D02*
X141363Y441309D01*
X141233Y441601D01*
X141110Y441897D01*
X140995Y442195D01*
X140886Y442496D01*
X140785Y442799D01*
X140691Y443105D01*
X140604Y443412D01*
X140525Y443722D01*
X140453Y444034D01*
X140389Y444347D01*
X140332Y444662D01*
X140282Y444978D01*
X140240Y445295D01*
X140206Y445613D01*
X140179Y445931D01*
X140160Y446251D01*
X140149Y446570D01*
X140145Y446890D01*
X141499Y441020D02*
X141538Y440912D01*
X141581Y440805D01*
X141627Y440700D01*
X141678Y440596D01*
X141731Y440494D01*
X141789Y440394D01*
X141849Y440296D01*
X141913Y440201D01*
X141980Y440107D01*
X142051Y440016D01*
X142124Y439927D01*
X142201Y439841D01*
X142280Y439758D01*
X142362Y439677D01*
X142447Y439599D01*
X142535Y439525D01*
X142625Y439453D01*
X142718Y439384D01*
X142812Y439319D01*
X142909Y439257D01*
X143009Y439199D01*
X143110Y439143D01*
X143213Y439092D01*
X143317Y439044D01*
X143423Y438999D01*
X143531Y438958D01*
X143640Y438921D01*
X143750Y438888D01*
X143862Y438859D01*
X143974Y438833D01*
X144087Y438811D01*
X144201Y438794D01*
X144315Y438780D01*
X144430Y438770D01*
X144545Y438764D01*
X144660Y438762D01*
X148273Y442374D02*
X141048Y451406D01*
X128577Y455018D02*
X128452Y455016D01*
X128327Y455010D01*
X128202Y455001D01*
X128078Y454987D01*
X127954Y454970D01*
X127830Y454949D01*
X127708Y454924D01*
X127586Y454895D01*
X127465Y454863D01*
X127345Y454827D01*
X127226Y454787D01*
X127109Y454744D01*
X126993Y454697D01*
X126878Y454646D01*
X126766Y454592D01*
X126654Y454534D01*
X126545Y454474D01*
X126438Y454409D01*
X126332Y454342D01*
X126229Y454271D01*
X126128Y454197D01*
X126029Y454120D01*
X125933Y454040D01*
X125839Y453957D01*
X125748Y453872D01*
X125659Y453783D01*
X125574Y453692D01*
X125491Y453598D01*
X125411Y453502D01*
X125334Y453403D01*
X125260Y453302D01*
X125189Y453199D01*
X125122Y453093D01*
X125057Y452986D01*
X124997Y452877D01*
X124939Y452765D01*
X124885Y452653D01*
X124834Y452538D01*
X124787Y452422D01*
X124744Y452305D01*
X124704Y452186D01*
X124668Y452066D01*
X124636Y451945D01*
X124607Y451823D01*
X124582Y451701D01*
X124561Y451577D01*
X124544Y451453D01*
X124530Y451329D01*
X124521Y451204D01*
X124515Y451079D01*
X124513Y450954D01*
X128577Y455018D02*
X128720Y455016D01*
X128862Y455010D01*
X129005Y455000D01*
X129147Y454987D01*
X129288Y454969D01*
X129430Y454948D01*
X129570Y454923D01*
X129710Y454894D01*
X129849Y454861D01*
X129987Y454824D01*
X130124Y454784D01*
X130259Y454740D01*
X130394Y454692D01*
X130527Y454640D01*
X130659Y454585D01*
X130789Y454526D01*
X130917Y454464D01*
X131044Y454398D01*
X131169Y454329D01*
X131292Y454257D01*
X131413Y454181D01*
X131531Y454102D01*
X131648Y454019D01*
X131762Y453934D01*
X131874Y453845D01*
X131983Y453754D01*
X132090Y453659D01*
X132195Y453562D01*
X132296Y453461D01*
X132395Y453358D01*
X132491Y453253D01*
X132584Y453144D01*
X132674Y453033D01*
X132761Y452920D01*
X132845Y452805D01*
X132925Y452687D01*
X133003Y452567D01*
X133077Y452445D01*
X133147Y452321D01*
X133215Y452195D01*
X133278Y452067D01*
X133339Y451938D01*
X133396Y451807D01*
X133449Y451675D01*
X133498Y451541D01*
X133544Y451406D01*
X125868Y447793D02*
X125774Y447885D01*
X125684Y447979D01*
X125596Y448076D01*
X125511Y448176D01*
X125429Y448278D01*
X125350Y448383D01*
X125275Y448490D01*
X125203Y448599D01*
X125134Y448710D01*
X125068Y448824D01*
X125006Y448939D01*
X124947Y449056D01*
X124892Y449175D01*
X124841Y449295D01*
X124793Y449417D01*
X124748Y449540D01*
X124708Y449664D01*
X124671Y449790D01*
X124638Y449917D01*
X124609Y450044D01*
X124583Y450173D01*
X124562Y450302D01*
X124544Y450432D01*
X124531Y450562D01*
X124521Y450692D01*
X124515Y450823D01*
X124513Y450954D01*
X125868Y447793D02*
X133544Y438762D01*
X124513Y438762D01*
X117913Y451406D02*
X113398Y455018D01*
X113398Y438762D01*
X117913Y438762D02*
X108882Y438762D01*
X312819Y400762D02*
X318238Y417018D01*
X307401Y417018D02*
X312819Y400762D01*
X301878Y400762D02*
X301878Y411599D01*
X302329Y416115D02*
X302329Y417018D01*
X301426Y417018D01*
X301426Y416115D01*
X302329Y416115D01*
X292881Y400762D02*
X288365Y400762D01*
X292881Y400762D02*
X292982Y400764D01*
X293083Y400770D01*
X293184Y400779D01*
X293285Y400792D01*
X293385Y400809D01*
X293484Y400830D01*
X293582Y400854D01*
X293679Y400882D01*
X293776Y400914D01*
X293871Y400949D01*
X293964Y400988D01*
X294056Y401030D01*
X294147Y401076D01*
X294236Y401125D01*
X294322Y401177D01*
X294407Y401233D01*
X294490Y401291D01*
X294570Y401353D01*
X294648Y401418D01*
X294724Y401485D01*
X294797Y401555D01*
X294867Y401628D01*
X294934Y401704D01*
X294999Y401782D01*
X295061Y401862D01*
X295119Y401945D01*
X295175Y402030D01*
X295227Y402117D01*
X295276Y402205D01*
X295322Y402296D01*
X295364Y402388D01*
X295403Y402481D01*
X295438Y402576D01*
X295470Y402673D01*
X295498Y402770D01*
X295522Y402868D01*
X295543Y402967D01*
X295560Y403067D01*
X295573Y403168D01*
X295582Y403269D01*
X295588Y403370D01*
X295590Y403471D01*
X295590Y407987D01*
X295588Y408106D01*
X295582Y408226D01*
X295572Y408345D01*
X295558Y408463D01*
X295541Y408582D01*
X295519Y408699D01*
X295494Y408816D01*
X295464Y408931D01*
X295431Y409046D01*
X295394Y409160D01*
X295354Y409272D01*
X295309Y409383D01*
X295261Y409492D01*
X295210Y409600D01*
X295155Y409706D01*
X295096Y409810D01*
X295034Y409912D01*
X294969Y410012D01*
X294900Y410110D01*
X294828Y410206D01*
X294753Y410299D01*
X294676Y410389D01*
X294595Y410477D01*
X294511Y410562D01*
X294424Y410644D01*
X294335Y410724D01*
X294243Y410800D01*
X294149Y410874D01*
X294052Y410944D01*
X293954Y411011D01*
X293853Y411075D01*
X293749Y411135D01*
X293644Y411192D01*
X293537Y411245D01*
X293429Y411295D01*
X293319Y411341D01*
X293207Y411383D01*
X293094Y411422D01*
X292980Y411457D01*
X292865Y411488D01*
X292748Y411516D01*
X292631Y411539D01*
X292514Y411559D01*
X292395Y411575D01*
X292276Y411587D01*
X292157Y411595D01*
X292038Y411599D01*
X291918Y411599D01*
X291799Y411595D01*
X291680Y411587D01*
X291561Y411575D01*
X291442Y411559D01*
X291325Y411539D01*
X291208Y411516D01*
X291091Y411488D01*
X290976Y411457D01*
X290862Y411422D01*
X290749Y411383D01*
X290637Y411341D01*
X290527Y411295D01*
X290419Y411245D01*
X290312Y411192D01*
X290207Y411135D01*
X290103Y411075D01*
X290002Y411011D01*
X289904Y410944D01*
X289807Y410874D01*
X289713Y410800D01*
X289621Y410724D01*
X289532Y410644D01*
X289445Y410562D01*
X289361Y410477D01*
X289280Y410389D01*
X289203Y410299D01*
X289128Y410206D01*
X289056Y410110D01*
X288987Y410012D01*
X288922Y409912D01*
X288860Y409810D01*
X288801Y409706D01*
X288746Y409600D01*
X288695Y409492D01*
X288647Y409383D01*
X288602Y409272D01*
X288562Y409160D01*
X288525Y409046D01*
X288492Y408931D01*
X288462Y408816D01*
X288437Y408699D01*
X288415Y408582D01*
X288398Y408463D01*
X288384Y408345D01*
X288374Y408226D01*
X288368Y408106D01*
X288366Y407987D01*
X288365Y407987D02*
X288365Y406181D01*
X295590Y406181D01*
X283340Y411599D02*
X277922Y411599D01*
X281534Y417018D02*
X281534Y403471D01*
X281532Y403370D01*
X281526Y403269D01*
X281517Y403168D01*
X281504Y403067D01*
X281487Y402967D01*
X281466Y402868D01*
X281442Y402770D01*
X281414Y402673D01*
X281382Y402576D01*
X281347Y402481D01*
X281308Y402388D01*
X281266Y402296D01*
X281220Y402205D01*
X281171Y402117D01*
X281119Y402030D01*
X281063Y401945D01*
X281005Y401862D01*
X280943Y401782D01*
X280878Y401704D01*
X280811Y401628D01*
X280741Y401555D01*
X280668Y401485D01*
X280592Y401418D01*
X280514Y401353D01*
X280434Y401291D01*
X280351Y401233D01*
X280266Y401177D01*
X280180Y401125D01*
X280091Y401076D01*
X280000Y401030D01*
X279908Y400988D01*
X279815Y400949D01*
X279720Y400914D01*
X279623Y400882D01*
X279526Y400854D01*
X279428Y400830D01*
X279329Y400809D01*
X279229Y400792D01*
X279128Y400779D01*
X279027Y400770D01*
X278926Y400764D01*
X278825Y400762D01*
X277922Y400762D01*
X262936Y400762D02*
X262936Y417018D01*
X258420Y417018D01*
X258287Y417016D01*
X258155Y417010D01*
X258023Y417000D01*
X257891Y416987D01*
X257759Y416969D01*
X257629Y416948D01*
X257498Y416923D01*
X257369Y416894D01*
X257241Y416861D01*
X257113Y416825D01*
X256987Y416785D01*
X256862Y416741D01*
X256738Y416693D01*
X256616Y416642D01*
X256495Y416587D01*
X256376Y416529D01*
X256258Y416467D01*
X256143Y416402D01*
X256029Y416333D01*
X255918Y416262D01*
X255809Y416186D01*
X255702Y416108D01*
X255597Y416027D01*
X255495Y415942D01*
X255395Y415855D01*
X255298Y415765D01*
X255203Y415672D01*
X255112Y415576D01*
X255023Y415478D01*
X254937Y415377D01*
X254854Y415273D01*
X254774Y415167D01*
X254698Y415059D01*
X254624Y414949D01*
X254554Y414836D01*
X254487Y414722D01*
X254424Y414605D01*
X254364Y414487D01*
X254307Y414367D01*
X254254Y414245D01*
X254205Y414122D01*
X254159Y413998D01*
X254117Y413872D01*
X254079Y413745D01*
X254044Y413617D01*
X254013Y413488D01*
X253986Y413359D01*
X253963Y413228D01*
X253943Y413097D01*
X253928Y412965D01*
X253916Y412833D01*
X253908Y412701D01*
X253904Y412568D01*
X253904Y412436D01*
X253908Y412303D01*
X253916Y412171D01*
X253928Y412039D01*
X253943Y411907D01*
X253963Y411776D01*
X253986Y411645D01*
X254013Y411516D01*
X254044Y411387D01*
X254079Y411259D01*
X254117Y411132D01*
X254159Y411006D01*
X254205Y410882D01*
X254254Y410759D01*
X254307Y410637D01*
X254364Y410517D01*
X254424Y410399D01*
X254487Y410282D01*
X254554Y410168D01*
X254624Y410055D01*
X254698Y409945D01*
X254774Y409837D01*
X254854Y409731D01*
X254937Y409627D01*
X255023Y409526D01*
X255112Y409428D01*
X255203Y409332D01*
X255298Y409239D01*
X255395Y409149D01*
X255495Y409062D01*
X255597Y408977D01*
X255702Y408896D01*
X255809Y408818D01*
X255918Y408742D01*
X256029Y408671D01*
X256143Y408602D01*
X256258Y408537D01*
X256376Y408475D01*
X256495Y408417D01*
X256616Y408362D01*
X256738Y408311D01*
X256862Y408263D01*
X256987Y408219D01*
X257113Y408179D01*
X257241Y408143D01*
X257369Y408110D01*
X257498Y408081D01*
X257629Y408056D01*
X257759Y408035D01*
X257891Y408017D01*
X258023Y408004D01*
X258155Y407994D01*
X258287Y407988D01*
X258420Y407986D01*
X258420Y407987D02*
X262936Y407987D01*
X247654Y400762D02*
X247654Y417018D01*
X247654Y411599D02*
X243139Y411599D01*
X243035Y411597D01*
X242932Y411591D01*
X242828Y411581D01*
X242725Y411567D01*
X242623Y411549D01*
X242522Y411528D01*
X242421Y411502D01*
X242322Y411473D01*
X242223Y411440D01*
X242126Y411403D01*
X242031Y411362D01*
X241937Y411318D01*
X241845Y411270D01*
X241755Y411219D01*
X241666Y411164D01*
X241580Y411106D01*
X241497Y411044D01*
X241415Y410980D01*
X241337Y410912D01*
X241261Y410842D01*
X241187Y410769D01*
X241117Y410692D01*
X241049Y410614D01*
X240985Y410532D01*
X240923Y410449D01*
X240865Y410363D01*
X240810Y410274D01*
X240759Y410184D01*
X240711Y410092D01*
X240667Y409998D01*
X240626Y409903D01*
X240589Y409806D01*
X240556Y409707D01*
X240527Y409608D01*
X240501Y409507D01*
X240480Y409406D01*
X240462Y409304D01*
X240448Y409201D01*
X240438Y409097D01*
X240432Y408994D01*
X240430Y408890D01*
X240430Y400762D01*
X233065Y403471D02*
X233065Y411599D01*
X233065Y403471D02*
X233063Y403370D01*
X233057Y403269D01*
X233048Y403168D01*
X233035Y403067D01*
X233018Y402967D01*
X232997Y402868D01*
X232973Y402770D01*
X232945Y402673D01*
X232913Y402576D01*
X232878Y402481D01*
X232839Y402388D01*
X232797Y402296D01*
X232751Y402205D01*
X232702Y402117D01*
X232650Y402030D01*
X232594Y401945D01*
X232536Y401862D01*
X232474Y401782D01*
X232409Y401704D01*
X232342Y401628D01*
X232272Y401555D01*
X232199Y401485D01*
X232123Y401418D01*
X232045Y401353D01*
X231965Y401291D01*
X231882Y401233D01*
X231797Y401177D01*
X231711Y401125D01*
X231622Y401076D01*
X231531Y401030D01*
X231439Y400988D01*
X231346Y400949D01*
X231251Y400914D01*
X231154Y400882D01*
X231057Y400854D01*
X230959Y400830D01*
X230860Y400809D01*
X230760Y400792D01*
X230659Y400779D01*
X230558Y400770D01*
X230457Y400764D01*
X230356Y400762D01*
X225840Y400762D01*
X225840Y411599D01*
X218997Y407987D02*
X218997Y404374D01*
X218997Y407987D02*
X218995Y408106D01*
X218989Y408226D01*
X218979Y408345D01*
X218965Y408463D01*
X218948Y408582D01*
X218926Y408699D01*
X218901Y408816D01*
X218871Y408931D01*
X218838Y409046D01*
X218801Y409160D01*
X218761Y409272D01*
X218716Y409383D01*
X218668Y409492D01*
X218617Y409600D01*
X218562Y409706D01*
X218503Y409810D01*
X218441Y409912D01*
X218376Y410012D01*
X218307Y410110D01*
X218235Y410206D01*
X218160Y410299D01*
X218083Y410389D01*
X218002Y410477D01*
X217918Y410562D01*
X217831Y410644D01*
X217742Y410724D01*
X217650Y410800D01*
X217556Y410874D01*
X217459Y410944D01*
X217361Y411011D01*
X217260Y411075D01*
X217156Y411135D01*
X217051Y411192D01*
X216944Y411245D01*
X216836Y411295D01*
X216726Y411341D01*
X216614Y411383D01*
X216501Y411422D01*
X216387Y411457D01*
X216272Y411488D01*
X216155Y411516D01*
X216038Y411539D01*
X215921Y411559D01*
X215802Y411575D01*
X215683Y411587D01*
X215564Y411595D01*
X215445Y411599D01*
X215325Y411599D01*
X215206Y411595D01*
X215087Y411587D01*
X214968Y411575D01*
X214849Y411559D01*
X214732Y411539D01*
X214615Y411516D01*
X214498Y411488D01*
X214383Y411457D01*
X214269Y411422D01*
X214156Y411383D01*
X214044Y411341D01*
X213934Y411295D01*
X213826Y411245D01*
X213719Y411192D01*
X213614Y411135D01*
X213510Y411075D01*
X213409Y411011D01*
X213311Y410944D01*
X213214Y410874D01*
X213120Y410800D01*
X213028Y410724D01*
X212939Y410644D01*
X212852Y410562D01*
X212768Y410477D01*
X212687Y410389D01*
X212610Y410299D01*
X212535Y410206D01*
X212463Y410110D01*
X212394Y410012D01*
X212329Y409912D01*
X212267Y409810D01*
X212208Y409706D01*
X212153Y409600D01*
X212102Y409492D01*
X212054Y409383D01*
X212009Y409272D01*
X211969Y409160D01*
X211932Y409046D01*
X211899Y408931D01*
X211869Y408816D01*
X211844Y408699D01*
X211822Y408582D01*
X211805Y408463D01*
X211791Y408345D01*
X211781Y408226D01*
X211775Y408106D01*
X211773Y407987D01*
X211772Y407987D02*
X211772Y404374D01*
X211773Y404374D02*
X211775Y404255D01*
X211781Y404135D01*
X211791Y404016D01*
X211805Y403898D01*
X211822Y403779D01*
X211844Y403662D01*
X211869Y403545D01*
X211899Y403430D01*
X211932Y403315D01*
X211969Y403201D01*
X212009Y403089D01*
X212054Y402978D01*
X212102Y402869D01*
X212153Y402761D01*
X212208Y402655D01*
X212267Y402551D01*
X212329Y402449D01*
X212394Y402349D01*
X212463Y402251D01*
X212535Y402155D01*
X212610Y402062D01*
X212687Y401972D01*
X212768Y401884D01*
X212852Y401799D01*
X212939Y401717D01*
X213028Y401637D01*
X213120Y401561D01*
X213214Y401487D01*
X213311Y401417D01*
X213409Y401350D01*
X213510Y401286D01*
X213614Y401226D01*
X213719Y401169D01*
X213826Y401116D01*
X213934Y401066D01*
X214044Y401020D01*
X214156Y400978D01*
X214269Y400939D01*
X214383Y400904D01*
X214498Y400873D01*
X214615Y400845D01*
X214732Y400822D01*
X214849Y400802D01*
X214968Y400786D01*
X215087Y400774D01*
X215206Y400766D01*
X215325Y400762D01*
X215445Y400762D01*
X215564Y400766D01*
X215683Y400774D01*
X215802Y400786D01*
X215921Y400802D01*
X216038Y400822D01*
X216155Y400845D01*
X216272Y400873D01*
X216387Y400904D01*
X216501Y400939D01*
X216614Y400978D01*
X216726Y401020D01*
X216836Y401066D01*
X216944Y401116D01*
X217051Y401169D01*
X217156Y401226D01*
X217260Y401286D01*
X217361Y401350D01*
X217459Y401417D01*
X217556Y401487D01*
X217650Y401561D01*
X217742Y401637D01*
X217831Y401717D01*
X217918Y401799D01*
X218002Y401884D01*
X218083Y401972D01*
X218160Y402062D01*
X218235Y402155D01*
X218307Y402251D01*
X218376Y402349D01*
X218441Y402449D01*
X218503Y402551D01*
X218562Y402655D01*
X218617Y402761D01*
X218668Y402869D01*
X218716Y402978D01*
X218761Y403089D01*
X218801Y403201D01*
X218838Y403315D01*
X218871Y403430D01*
X218901Y403545D01*
X218926Y403662D01*
X218948Y403779D01*
X218965Y403898D01*
X218979Y404016D01*
X218989Y404135D01*
X218995Y404255D01*
X218997Y404374D01*
X204929Y400762D02*
X204929Y411599D01*
X200414Y411599D01*
X200310Y411597D01*
X200207Y411591D01*
X200103Y411581D01*
X200000Y411567D01*
X199898Y411549D01*
X199797Y411528D01*
X199696Y411502D01*
X199597Y411473D01*
X199498Y411440D01*
X199401Y411403D01*
X199306Y411362D01*
X199212Y411318D01*
X199120Y411270D01*
X199030Y411219D01*
X198941Y411164D01*
X198855Y411106D01*
X198772Y411044D01*
X198690Y410980D01*
X198612Y410912D01*
X198536Y410842D01*
X198462Y410769D01*
X198392Y410692D01*
X198324Y410614D01*
X198260Y410532D01*
X198198Y410449D01*
X198140Y410363D01*
X198085Y410274D01*
X198034Y410184D01*
X197986Y410092D01*
X197942Y409998D01*
X197901Y409903D01*
X197864Y409806D01*
X197831Y409707D01*
X197802Y409608D01*
X197776Y409507D01*
X197755Y409406D01*
X197737Y409304D01*
X197723Y409201D01*
X197713Y409097D01*
X197707Y408994D01*
X197705Y408890D01*
X197704Y408890D02*
X197704Y400762D01*
X188225Y400762D02*
X183709Y400762D01*
X188225Y400762D02*
X188326Y400764D01*
X188427Y400770D01*
X188528Y400779D01*
X188629Y400792D01*
X188729Y400809D01*
X188828Y400830D01*
X188926Y400854D01*
X189023Y400882D01*
X189120Y400914D01*
X189215Y400949D01*
X189308Y400988D01*
X189400Y401030D01*
X189491Y401076D01*
X189580Y401125D01*
X189666Y401177D01*
X189751Y401233D01*
X189834Y401291D01*
X189914Y401353D01*
X189992Y401418D01*
X190068Y401485D01*
X190141Y401555D01*
X190211Y401628D01*
X190278Y401704D01*
X190343Y401782D01*
X190405Y401862D01*
X190463Y401945D01*
X190519Y402030D01*
X190571Y402117D01*
X190620Y402205D01*
X190666Y402296D01*
X190708Y402388D01*
X190747Y402481D01*
X190782Y402576D01*
X190814Y402673D01*
X190842Y402770D01*
X190866Y402868D01*
X190887Y402967D01*
X190904Y403067D01*
X190917Y403168D01*
X190926Y403269D01*
X190932Y403370D01*
X190934Y403471D01*
X190934Y408890D01*
X190932Y408991D01*
X190926Y409092D01*
X190917Y409193D01*
X190904Y409294D01*
X190887Y409394D01*
X190866Y409493D01*
X190842Y409591D01*
X190814Y409688D01*
X190782Y409785D01*
X190747Y409880D01*
X190708Y409973D01*
X190666Y410065D01*
X190620Y410156D01*
X190571Y410245D01*
X190519Y410331D01*
X190463Y410416D01*
X190405Y410499D01*
X190343Y410579D01*
X190278Y410657D01*
X190211Y410733D01*
X190141Y410806D01*
X190068Y410876D01*
X189992Y410943D01*
X189914Y411008D01*
X189834Y411070D01*
X189751Y411128D01*
X189666Y411184D01*
X189580Y411236D01*
X189491Y411285D01*
X189400Y411331D01*
X189308Y411373D01*
X189215Y411412D01*
X189120Y411447D01*
X189023Y411479D01*
X188926Y411507D01*
X188828Y411531D01*
X188729Y411552D01*
X188629Y411569D01*
X188528Y411582D01*
X188427Y411591D01*
X188326Y411597D01*
X188225Y411599D01*
X183709Y411599D01*
X183709Y398053D01*
X183710Y398053D02*
X183712Y397952D01*
X183718Y397851D01*
X183727Y397750D01*
X183740Y397649D01*
X183757Y397549D01*
X183778Y397450D01*
X183802Y397352D01*
X183830Y397255D01*
X183862Y397158D01*
X183897Y397063D01*
X183936Y396970D01*
X183978Y396878D01*
X184024Y396787D01*
X184073Y396699D01*
X184125Y396612D01*
X184181Y396527D01*
X184239Y396444D01*
X184301Y396364D01*
X184366Y396286D01*
X184433Y396210D01*
X184503Y396137D01*
X184576Y396067D01*
X184652Y396000D01*
X184730Y395935D01*
X184810Y395873D01*
X184893Y395815D01*
X184978Y395759D01*
X185065Y395707D01*
X185153Y395658D01*
X185244Y395612D01*
X185336Y395570D01*
X185429Y395531D01*
X185524Y395496D01*
X185621Y395464D01*
X185718Y395436D01*
X185816Y395412D01*
X185915Y395391D01*
X186015Y395374D01*
X186116Y395361D01*
X186217Y395352D01*
X186318Y395346D01*
X186419Y395344D01*
X186419Y395343D02*
X190031Y395343D01*
X167796Y400762D02*
X167796Y417018D01*
X163281Y417018D01*
X163150Y417016D01*
X163018Y417010D01*
X162887Y417001D01*
X162757Y416987D01*
X162626Y416970D01*
X162497Y416949D01*
X162368Y416925D01*
X162240Y416896D01*
X162112Y416864D01*
X161986Y416828D01*
X161861Y416789D01*
X161736Y416746D01*
X161614Y416699D01*
X161492Y416649D01*
X161372Y416595D01*
X161254Y416538D01*
X161138Y416477D01*
X161023Y416413D01*
X160910Y416346D01*
X160799Y416275D01*
X160691Y416201D01*
X160584Y416124D01*
X160480Y416044D01*
X160378Y415961D01*
X160279Y415876D01*
X160182Y415787D01*
X160088Y415695D01*
X159996Y415601D01*
X159907Y415504D01*
X159822Y415405D01*
X159739Y415303D01*
X159659Y415199D01*
X159582Y415092D01*
X159508Y414984D01*
X159437Y414873D01*
X159370Y414760D01*
X159306Y414645D01*
X159245Y414529D01*
X159188Y414411D01*
X159134Y414291D01*
X159084Y414169D01*
X159037Y414047D01*
X158994Y413922D01*
X158955Y413797D01*
X158919Y413671D01*
X158887Y413543D01*
X158858Y413415D01*
X158834Y413286D01*
X158813Y413157D01*
X158796Y413026D01*
X158782Y412896D01*
X158773Y412765D01*
X158767Y412633D01*
X158765Y412502D01*
X158765Y405278D01*
X158767Y405147D01*
X158773Y405015D01*
X158782Y404884D01*
X158796Y404754D01*
X158813Y404623D01*
X158834Y404494D01*
X158858Y404365D01*
X158887Y404237D01*
X158919Y404109D01*
X158955Y403983D01*
X158994Y403858D01*
X159037Y403733D01*
X159084Y403611D01*
X159134Y403489D01*
X159188Y403369D01*
X159245Y403251D01*
X159306Y403135D01*
X159370Y403020D01*
X159437Y402907D01*
X159508Y402796D01*
X159582Y402688D01*
X159659Y402581D01*
X159739Y402477D01*
X159822Y402375D01*
X159907Y402276D01*
X159996Y402179D01*
X160088Y402085D01*
X160182Y401993D01*
X160279Y401904D01*
X160378Y401819D01*
X160480Y401736D01*
X160584Y401656D01*
X160691Y401579D01*
X160799Y401505D01*
X160910Y401434D01*
X161023Y401367D01*
X161138Y401303D01*
X161254Y401242D01*
X161372Y401185D01*
X161492Y401131D01*
X161614Y401081D01*
X161736Y401034D01*
X161861Y400991D01*
X161986Y400952D01*
X162112Y400916D01*
X162240Y400884D01*
X162368Y400855D01*
X162497Y400831D01*
X162626Y400810D01*
X162757Y400793D01*
X162887Y400779D01*
X163018Y400770D01*
X163150Y400764D01*
X163281Y400762D01*
X167796Y400762D01*
X150255Y400762D02*
X150255Y417018D01*
X152061Y400762D02*
X148449Y400762D01*
X148449Y417018D02*
X152061Y417018D01*
X141744Y417018D02*
X141744Y400762D01*
X132713Y400762D02*
X141744Y417018D01*
X132713Y417018D02*
X132713Y400762D01*
X125071Y400762D02*
X125071Y417018D01*
X125071Y409793D02*
X116040Y409793D01*
X116040Y417018D02*
X116040Y400762D01*
X359100Y302650D02*
X359100Y289950D01*
X365450Y283600D01*
X359100Y277250D01*
X359100Y264550D01*
X365450Y258200D01*
X359100Y302650D02*
X365450Y309000D01*
X365450Y258200D02*
X359100Y251850D01*
X359100Y239150D01*
X365450Y232800D01*
X359100Y226450D02*
X359100Y213750D01*
X359100Y226450D02*
X365450Y232800D01*
X359100Y213750D02*
X365450Y207400D01*
X403550Y207400D01*
X403550Y283600D02*
X409900Y289950D01*
X409900Y264550D02*
X403550Y258200D01*
X409900Y264550D02*
X409900Y277250D01*
X403550Y283600D01*
X403550Y309000D02*
X365450Y309000D01*
X403550Y309000D02*
X409900Y302650D01*
X409900Y289950D01*
X409900Y239150D02*
X403550Y232800D01*
X409900Y239150D02*
X409900Y251850D01*
X403550Y258200D01*
X403550Y232800D02*
X409900Y226450D01*
X409900Y213750D01*
X403550Y207400D01*
D11*
X423235Y294395D02*
X425775Y297570D01*
X414345Y297570D01*
X414345Y294395D02*
X414345Y300745D01*
X346400Y219465D02*
X346511Y219463D01*
X346621Y219457D01*
X346732Y219448D01*
X346842Y219434D01*
X346951Y219417D01*
X347060Y219396D01*
X347168Y219371D01*
X347275Y219342D01*
X347381Y219310D01*
X347486Y219274D01*
X347589Y219234D01*
X347691Y219191D01*
X347792Y219144D01*
X347891Y219093D01*
X347988Y219040D01*
X348082Y218983D01*
X348175Y218922D01*
X348266Y218859D01*
X348355Y218792D01*
X348441Y218722D01*
X348524Y218649D01*
X348606Y218574D01*
X348684Y218496D01*
X348759Y218414D01*
X348832Y218331D01*
X348902Y218245D01*
X348969Y218156D01*
X349032Y218065D01*
X349093Y217972D01*
X349150Y217877D01*
X349203Y217781D01*
X349254Y217682D01*
X349301Y217581D01*
X349344Y217479D01*
X349384Y217376D01*
X349420Y217271D01*
X349452Y217165D01*
X349481Y217058D01*
X349506Y216950D01*
X349527Y216841D01*
X349544Y216732D01*
X349558Y216622D01*
X349567Y216511D01*
X349573Y216401D01*
X349575Y216290D01*
X349573Y216179D01*
X349567Y216069D01*
X349558Y215958D01*
X349544Y215848D01*
X349527Y215739D01*
X349506Y215630D01*
X349481Y215522D01*
X349452Y215415D01*
X349420Y215309D01*
X349384Y215204D01*
X349344Y215101D01*
X349301Y214999D01*
X349254Y214898D01*
X349203Y214799D01*
X349150Y214702D01*
X349093Y214608D01*
X349032Y214515D01*
X348969Y214424D01*
X348902Y214335D01*
X348832Y214249D01*
X348759Y214166D01*
X348684Y214084D01*
X348606Y214006D01*
X348524Y213931D01*
X348441Y213858D01*
X348355Y213788D01*
X348266Y213721D01*
X348175Y213658D01*
X348082Y213597D01*
X347988Y213540D01*
X347891Y213487D01*
X347792Y213436D01*
X347691Y213389D01*
X347589Y213346D01*
X347486Y213306D01*
X347381Y213270D01*
X347275Y213238D01*
X347168Y213209D01*
X347060Y213184D01*
X346951Y213163D01*
X346842Y213146D01*
X346732Y213132D01*
X346621Y213123D01*
X346511Y213117D01*
X346400Y213115D01*
X346289Y213117D01*
X346179Y213123D01*
X346068Y213132D01*
X345958Y213146D01*
X345849Y213163D01*
X345740Y213184D01*
X345632Y213209D01*
X345525Y213238D01*
X345419Y213270D01*
X345314Y213306D01*
X345211Y213346D01*
X345109Y213389D01*
X345008Y213436D01*
X344909Y213487D01*
X344813Y213540D01*
X344718Y213597D01*
X344625Y213658D01*
X344534Y213721D01*
X344445Y213788D01*
X344359Y213858D01*
X344276Y213931D01*
X344194Y214006D01*
X344116Y214084D01*
X344041Y214166D01*
X343968Y214249D01*
X343898Y214335D01*
X343831Y214424D01*
X343768Y214515D01*
X343707Y214608D01*
X343650Y214703D01*
X343597Y214799D01*
X343546Y214898D01*
X343499Y214999D01*
X343456Y215101D01*
X343416Y215204D01*
X343380Y215309D01*
X343348Y215415D01*
X343319Y215522D01*
X343294Y215630D01*
X343273Y215739D01*
X343256Y215848D01*
X343242Y215958D01*
X343233Y216069D01*
X343227Y216179D01*
X343225Y216290D01*
X343227Y216401D01*
X343233Y216511D01*
X343242Y216622D01*
X343256Y216732D01*
X343273Y216841D01*
X343294Y216950D01*
X343319Y217058D01*
X343348Y217165D01*
X343380Y217271D01*
X343416Y217376D01*
X343456Y217479D01*
X343499Y217581D01*
X343546Y217682D01*
X343597Y217781D01*
X343650Y217878D01*
X343707Y217972D01*
X343768Y218065D01*
X343831Y218156D01*
X343898Y218245D01*
X343968Y218331D01*
X344041Y218414D01*
X344116Y218496D01*
X344194Y218574D01*
X344276Y218649D01*
X344359Y218722D01*
X344445Y218792D01*
X344534Y218859D01*
X344625Y218922D01*
X344718Y218983D01*
X344813Y219040D01*
X344909Y219093D01*
X345008Y219144D01*
X345109Y219191D01*
X345211Y219234D01*
X345314Y219274D01*
X345419Y219310D01*
X345525Y219342D01*
X345632Y219371D01*
X345740Y219396D01*
X345849Y219417D01*
X345958Y219434D01*
X346068Y219448D01*
X346179Y219457D01*
X346289Y219463D01*
X346400Y219465D01*
X352115Y218830D02*
X352215Y218828D01*
X352314Y218822D01*
X352414Y218812D01*
X352512Y218799D01*
X352611Y218781D01*
X352708Y218760D01*
X352804Y218735D01*
X352900Y218706D01*
X352994Y218673D01*
X353087Y218637D01*
X353178Y218597D01*
X353268Y218553D01*
X353356Y218506D01*
X353442Y218456D01*
X353526Y218402D01*
X353608Y218345D01*
X353687Y218285D01*
X353765Y218221D01*
X353839Y218155D01*
X353911Y218086D01*
X353980Y218014D01*
X354046Y217940D01*
X354110Y217862D01*
X354170Y217783D01*
X354227Y217701D01*
X354281Y217617D01*
X354331Y217531D01*
X354378Y217443D01*
X354422Y217353D01*
X354462Y217262D01*
X354498Y217169D01*
X354531Y217075D01*
X354560Y216979D01*
X354585Y216883D01*
X354606Y216786D01*
X354624Y216687D01*
X354637Y216589D01*
X354647Y216489D01*
X354653Y216390D01*
X354655Y216290D01*
X354653Y216190D01*
X354647Y216091D01*
X354637Y215991D01*
X354624Y215893D01*
X354606Y215794D01*
X354585Y215697D01*
X354560Y215601D01*
X354531Y215505D01*
X354498Y215411D01*
X354462Y215318D01*
X354422Y215227D01*
X354378Y215137D01*
X354331Y215049D01*
X354281Y214963D01*
X354227Y214879D01*
X354170Y214797D01*
X354110Y214718D01*
X354046Y214640D01*
X353980Y214566D01*
X353911Y214494D01*
X353839Y214425D01*
X353765Y214359D01*
X353687Y214295D01*
X353608Y214235D01*
X353526Y214178D01*
X353442Y214124D01*
X353356Y214074D01*
X353268Y214027D01*
X353178Y213983D01*
X353087Y213943D01*
X352994Y213907D01*
X352900Y213874D01*
X352804Y213845D01*
X352708Y213820D01*
X352611Y213799D01*
X352512Y213781D01*
X352414Y213768D01*
X352314Y213758D01*
X352215Y213752D01*
X352115Y213750D01*
X352015Y213752D01*
X351916Y213758D01*
X351816Y213768D01*
X351718Y213781D01*
X351619Y213799D01*
X351522Y213820D01*
X351426Y213845D01*
X351330Y213874D01*
X351236Y213907D01*
X351143Y213943D01*
X351052Y213983D01*
X350962Y214027D01*
X350874Y214074D01*
X350788Y214124D01*
X350704Y214178D01*
X350622Y214235D01*
X350543Y214295D01*
X350465Y214359D01*
X350391Y214425D01*
X350319Y214494D01*
X350250Y214566D01*
X350184Y214640D01*
X350120Y214718D01*
X350060Y214797D01*
X350003Y214879D01*
X349949Y214963D01*
X349899Y215049D01*
X349852Y215137D01*
X349808Y215227D01*
X349768Y215318D01*
X349732Y215411D01*
X349699Y215505D01*
X349670Y215601D01*
X349645Y215697D01*
X349624Y215794D01*
X349606Y215893D01*
X349593Y215991D01*
X349583Y216091D01*
X349577Y216190D01*
X349575Y216290D01*
X349577Y216390D01*
X349583Y216489D01*
X349593Y216589D01*
X349606Y216687D01*
X349624Y216786D01*
X349645Y216883D01*
X349670Y216979D01*
X349699Y217075D01*
X349732Y217169D01*
X349768Y217262D01*
X349808Y217353D01*
X349852Y217443D01*
X349899Y217531D01*
X349949Y217617D01*
X350003Y217701D01*
X350060Y217783D01*
X350120Y217862D01*
X350184Y217940D01*
X350250Y218014D01*
X350319Y218086D01*
X350391Y218155D01*
X350465Y218221D01*
X350543Y218285D01*
X350622Y218345D01*
X350704Y218402D01*
X350788Y218456D01*
X350874Y218506D01*
X350962Y218553D01*
X351052Y218597D01*
X351143Y218637D01*
X351236Y218673D01*
X351330Y218706D01*
X351426Y218735D01*
X351522Y218760D01*
X351619Y218781D01*
X351718Y218799D01*
X351816Y218812D01*
X351916Y218822D01*
X352015Y218828D01*
X352115Y218830D01*
X354655Y296606D02*
X345765Y296606D01*
X345665Y296604D01*
X345566Y296598D01*
X345466Y296588D01*
X345368Y296575D01*
X345269Y296557D01*
X345172Y296536D01*
X345076Y296511D01*
X344980Y296482D01*
X344886Y296449D01*
X344793Y296413D01*
X344702Y296373D01*
X344612Y296329D01*
X344524Y296282D01*
X344438Y296232D01*
X344354Y296178D01*
X344272Y296121D01*
X344193Y296061D01*
X344115Y295997D01*
X344041Y295931D01*
X343969Y295862D01*
X343900Y295790D01*
X343834Y295716D01*
X343770Y295638D01*
X343710Y295559D01*
X343653Y295477D01*
X343599Y295393D01*
X343549Y295307D01*
X343502Y295219D01*
X343458Y295129D01*
X343418Y295038D01*
X343382Y294945D01*
X343349Y294851D01*
X343320Y294755D01*
X343295Y294659D01*
X343274Y294562D01*
X343256Y294463D01*
X343243Y294365D01*
X343233Y294265D01*
X343227Y294166D01*
X343225Y294066D01*
X343225Y292796D01*
X354656Y305508D02*
X354654Y305612D01*
X354648Y305717D01*
X354639Y305821D01*
X354626Y305924D01*
X354608Y306027D01*
X354588Y306129D01*
X354563Y306231D01*
X354535Y306331D01*
X354503Y306431D01*
X354467Y306529D01*
X354428Y306626D01*
X354386Y306721D01*
X354340Y306815D01*
X354290Y306907D01*
X354238Y306997D01*
X354182Y307085D01*
X354122Y307171D01*
X354060Y307255D01*
X353995Y307336D01*
X353927Y307415D01*
X353855Y307492D01*
X353782Y307565D01*
X353705Y307637D01*
X353626Y307705D01*
X353545Y307770D01*
X353461Y307832D01*
X353375Y307892D01*
X353287Y307948D01*
X353197Y308000D01*
X353105Y308050D01*
X353011Y308096D01*
X352916Y308138D01*
X352819Y308177D01*
X352721Y308213D01*
X352621Y308245D01*
X352521Y308273D01*
X352419Y308298D01*
X352317Y308318D01*
X352214Y308336D01*
X352111Y308349D01*
X352007Y308358D01*
X351902Y308364D01*
X351798Y308366D01*
X354655Y305508D02*
X354653Y305390D01*
X354647Y305271D01*
X354638Y305153D01*
X354625Y305036D01*
X354607Y304919D01*
X354587Y304802D01*
X354562Y304686D01*
X354534Y304571D01*
X354501Y304458D01*
X354466Y304345D01*
X354426Y304233D01*
X354384Y304123D01*
X354337Y304014D01*
X354287Y303906D01*
X354234Y303801D01*
X354177Y303697D01*
X354117Y303595D01*
X354054Y303495D01*
X353987Y303397D01*
X353918Y303301D01*
X353845Y303208D01*
X353769Y303117D01*
X353691Y303028D01*
X353609Y302942D01*
X353525Y302859D01*
X353439Y302778D01*
X353349Y302701D01*
X353258Y302626D01*
X353164Y302554D01*
X353067Y302485D01*
X352969Y302420D01*
X352868Y302357D01*
X352765Y302298D01*
X352661Y302242D01*
X352555Y302190D01*
X352447Y302141D01*
X352338Y302096D01*
X352227Y302054D01*
X352115Y302016D01*
X349576Y307413D02*
X349651Y307489D01*
X349730Y307564D01*
X349811Y307635D01*
X349895Y307704D01*
X349981Y307769D01*
X350069Y307831D01*
X350159Y307891D01*
X350251Y307947D01*
X350346Y308000D01*
X350442Y308049D01*
X350540Y308095D01*
X350639Y308138D01*
X350740Y308177D01*
X350842Y308212D01*
X350945Y308244D01*
X351049Y308272D01*
X351154Y308297D01*
X351261Y308318D01*
X351367Y308335D01*
X351474Y308348D01*
X351582Y308357D01*
X351690Y308363D01*
X351798Y308365D01*
X349575Y307413D02*
X343225Y302015D01*
X343225Y308365D01*
D12*
X26650Y37700D02*
X20300Y31350D01*
X20300Y18650D01*
X26650Y12300D01*
X39350Y12300D02*
X45700Y18650D01*
X45700Y31350D01*
X39350Y37700D01*
X20300Y69450D02*
X20300Y82150D01*
X20300Y69450D02*
X26650Y63100D01*
X39350Y63100D02*
X45700Y69450D01*
X26650Y63100D02*
X20300Y56750D01*
X20300Y44050D01*
X26650Y37700D01*
X39350Y37700D02*
X45700Y44050D01*
X45700Y56750D01*
X39350Y63100D01*
X39350Y88500D02*
X26650Y88500D01*
X20300Y82150D01*
X39350Y88500D02*
X45700Y82150D01*
X45700Y69450D01*
X39350Y12300D02*
X26650Y12300D01*
D11*
X18395Y78881D02*
X13569Y78881D01*
X15714Y80489D02*
X18395Y78881D01*
X15714Y80489D02*
X18395Y82098D01*
X13569Y82098D01*
X18395Y86658D02*
X18393Y86726D01*
X18387Y86793D01*
X18378Y86860D01*
X18365Y86927D01*
X18348Y86992D01*
X18327Y87057D01*
X18303Y87120D01*
X18275Y87182D01*
X18244Y87242D01*
X18210Y87300D01*
X18172Y87356D01*
X18132Y87411D01*
X18088Y87462D01*
X18041Y87511D01*
X17992Y87558D01*
X17941Y87602D01*
X17886Y87642D01*
X17830Y87680D01*
X17772Y87714D01*
X17712Y87745D01*
X17650Y87773D01*
X17587Y87797D01*
X17522Y87818D01*
X17457Y87835D01*
X17390Y87848D01*
X17323Y87857D01*
X17256Y87863D01*
X17188Y87865D01*
X18395Y86658D02*
X18393Y86580D01*
X18387Y86502D01*
X18377Y86425D01*
X18364Y86348D01*
X18346Y86272D01*
X18325Y86197D01*
X18300Y86123D01*
X18271Y86051D01*
X18239Y85980D01*
X18203Y85911D01*
X18164Y85843D01*
X18121Y85778D01*
X18075Y85715D01*
X18026Y85654D01*
X17974Y85596D01*
X17919Y85541D01*
X17862Y85488D01*
X17802Y85439D01*
X17739Y85392D01*
X17674Y85349D01*
X17608Y85309D01*
X17539Y85272D01*
X17468Y85239D01*
X17396Y85209D01*
X17323Y85183D01*
X16250Y87463D02*
X16299Y87512D01*
X16351Y87559D01*
X16406Y87602D01*
X16463Y87643D01*
X16522Y87681D01*
X16583Y87715D01*
X16646Y87746D01*
X16710Y87774D01*
X16776Y87798D01*
X16842Y87818D01*
X16910Y87835D01*
X16979Y87848D01*
X17048Y87857D01*
X17118Y87863D01*
X17188Y87865D01*
X16250Y87463D02*
X13569Y85184D01*
X13569Y87865D01*
M02*
