G04 EAGLE Gerber RS-274X export*
G75*
%MOMM*%
%FSLAX34Y34*%
%LPD*%
%INSolderpaste Top*%
%IPPOS*%
%AMOC8*
5,1,8,0,0,1.08239X$1,22.5*%
G01*
%ADD10R,1.550000X1.300000*%
%ADD11R,0.304800X0.990600*%
%ADD12C,0.150000*%
%ADD13R,1.981200X0.558800*%
%ADD14R,1.930400X5.334000*%


D10*
X998850Y80300D03*
X1078350Y80300D03*
X998850Y35300D03*
X1078350Y35300D03*
D11*
X135550Y283622D03*
X142050Y283622D03*
X148550Y283622D03*
X155050Y283622D03*
X161550Y283622D03*
X168050Y283622D03*
X174550Y283622D03*
X181050Y283622D03*
X187550Y283622D03*
X194050Y283622D03*
X200550Y283622D03*
X207050Y283622D03*
X213550Y283622D03*
X220050Y283622D03*
X220050Y341978D03*
X213550Y341978D03*
X207050Y341978D03*
X200550Y341978D03*
X194050Y341978D03*
X187550Y341978D03*
X181050Y341978D03*
X174550Y341978D03*
X168050Y341978D03*
X161550Y341978D03*
X155050Y341978D03*
X148550Y341978D03*
X142050Y341978D03*
X135550Y341978D03*
D12*
X878900Y224850D02*
X878900Y210550D01*
X878900Y224850D02*
X883400Y224850D01*
X883400Y210550D01*
X878900Y210550D01*
X878900Y211975D02*
X883400Y211975D01*
X883400Y213400D02*
X878900Y213400D01*
X878900Y214825D02*
X883400Y214825D01*
X883400Y216250D02*
X878900Y216250D01*
X878900Y217675D02*
X883400Y217675D01*
X883400Y219100D02*
X878900Y219100D01*
X878900Y220525D02*
X883400Y220525D01*
X883400Y221950D02*
X878900Y221950D01*
X878900Y223375D02*
X883400Y223375D01*
X883400Y224800D02*
X878900Y224800D01*
X866200Y224850D02*
X866200Y210550D01*
X866200Y224850D02*
X870700Y224850D01*
X870700Y210550D01*
X866200Y210550D01*
X866200Y211975D02*
X870700Y211975D01*
X870700Y213400D02*
X866200Y213400D01*
X866200Y214825D02*
X870700Y214825D01*
X870700Y216250D02*
X866200Y216250D01*
X866200Y217675D02*
X870700Y217675D01*
X870700Y219100D02*
X866200Y219100D01*
X866200Y220525D02*
X870700Y220525D01*
X870700Y221950D02*
X866200Y221950D01*
X866200Y223375D02*
X870700Y223375D01*
X870700Y224800D02*
X866200Y224800D01*
X853500Y224850D02*
X853500Y210550D01*
X853500Y224850D02*
X858000Y224850D01*
X858000Y210550D01*
X853500Y210550D01*
X853500Y211975D02*
X858000Y211975D01*
X858000Y213400D02*
X853500Y213400D01*
X853500Y214825D02*
X858000Y214825D01*
X858000Y216250D02*
X853500Y216250D01*
X853500Y217675D02*
X858000Y217675D01*
X858000Y219100D02*
X853500Y219100D01*
X853500Y220525D02*
X858000Y220525D01*
X858000Y221950D02*
X853500Y221950D01*
X853500Y223375D02*
X858000Y223375D01*
X858000Y224800D02*
X853500Y224800D01*
X840800Y224850D02*
X840800Y210550D01*
X840800Y224850D02*
X845300Y224850D01*
X845300Y210550D01*
X840800Y210550D01*
X840800Y211975D02*
X845300Y211975D01*
X845300Y213400D02*
X840800Y213400D01*
X840800Y214825D02*
X845300Y214825D01*
X845300Y216250D02*
X840800Y216250D01*
X840800Y217675D02*
X845300Y217675D01*
X845300Y219100D02*
X840800Y219100D01*
X840800Y220525D02*
X845300Y220525D01*
X845300Y221950D02*
X840800Y221950D01*
X840800Y223375D02*
X845300Y223375D01*
X845300Y224800D02*
X840800Y224800D01*
X840800Y171450D02*
X840800Y157150D01*
X840800Y171450D02*
X845300Y171450D01*
X845300Y157150D01*
X840800Y157150D01*
X840800Y158575D02*
X845300Y158575D01*
X845300Y160000D02*
X840800Y160000D01*
X840800Y161425D02*
X845300Y161425D01*
X845300Y162850D02*
X840800Y162850D01*
X840800Y164275D02*
X845300Y164275D01*
X845300Y165700D02*
X840800Y165700D01*
X840800Y167125D02*
X845300Y167125D01*
X845300Y168550D02*
X840800Y168550D01*
X840800Y169975D02*
X845300Y169975D01*
X845300Y171400D02*
X840800Y171400D01*
X853500Y171450D02*
X853500Y157150D01*
X853500Y171450D02*
X858000Y171450D01*
X858000Y157150D01*
X853500Y157150D01*
X853500Y158575D02*
X858000Y158575D01*
X858000Y160000D02*
X853500Y160000D01*
X853500Y161425D02*
X858000Y161425D01*
X858000Y162850D02*
X853500Y162850D01*
X853500Y164275D02*
X858000Y164275D01*
X858000Y165700D02*
X853500Y165700D01*
X853500Y167125D02*
X858000Y167125D01*
X858000Y168550D02*
X853500Y168550D01*
X853500Y169975D02*
X858000Y169975D01*
X858000Y171400D02*
X853500Y171400D01*
X866200Y171450D02*
X866200Y157150D01*
X866200Y171450D02*
X870700Y171450D01*
X870700Y157150D01*
X866200Y157150D01*
X866200Y158575D02*
X870700Y158575D01*
X870700Y160000D02*
X866200Y160000D01*
X866200Y161425D02*
X870700Y161425D01*
X870700Y162850D02*
X866200Y162850D01*
X866200Y164275D02*
X870700Y164275D01*
X870700Y165700D02*
X866200Y165700D01*
X866200Y167125D02*
X870700Y167125D01*
X870700Y168550D02*
X866200Y168550D01*
X866200Y169975D02*
X870700Y169975D01*
X870700Y171400D02*
X866200Y171400D01*
X878900Y171450D02*
X878900Y157150D01*
X878900Y171450D02*
X883400Y171450D01*
X883400Y157150D01*
X878900Y157150D01*
X878900Y158575D02*
X883400Y158575D01*
X883400Y160000D02*
X878900Y160000D01*
X878900Y161425D02*
X883400Y161425D01*
X883400Y162850D02*
X878900Y162850D01*
X878900Y164275D02*
X883400Y164275D01*
X883400Y165700D02*
X878900Y165700D01*
X878900Y167125D02*
X883400Y167125D01*
X883400Y168550D02*
X878900Y168550D01*
X878900Y169975D02*
X883400Y169975D01*
X883400Y171400D02*
X878900Y171400D01*
D13*
X812088Y401400D03*
X812088Y388700D03*
X812088Y376000D03*
X812088Y363300D03*
X812088Y350600D03*
X812088Y337900D03*
X812088Y325200D03*
X812088Y312500D03*
X812088Y299800D03*
X902512Y299800D03*
X902512Y312500D03*
X902512Y325200D03*
X902512Y337900D03*
X902512Y350600D03*
X902512Y363300D03*
X902512Y376000D03*
X902512Y388700D03*
X902512Y401400D03*
D14*
X1041800Y406460D03*
X1041800Y309940D03*
M02*
