G04 EAGLE Gerber RS-274X export*
G75*
%MOMM*%
%FSLAX34Y34*%
%LPD*%
%INSoldermask Bottom*%
%IPPOS*%
%AMOC8*
5,1,8,0,0,1.08239X$1,22.5*%
G01*
%ADD10P,1.649562X8X112.500000*%
%ADD11P,1.951982X8X22.500000*%
%ADD12C,1.803400*%
%ADD13P,1.649562X8X292.500000*%
%ADD14P,1.649562X8X22.500000*%
%ADD15C,1.511200*%
%ADD16P,1.869504X8X292.500000*%
%ADD17C,1.853200*%
%ADD18C,1.625600*%
%ADD19R,1.711200X1.711200*%
%ADD20C,1.711200*%
%ADD21C,1.854200*%
%ADD22C,2.082800*%
%ADD23P,1.649562X8X202.500000*%
%ADD24P,1.869504X8X22.500000*%
%ADD25C,1.727200*%
%ADD26P,1.869504X8X112.500000*%
%ADD27C,0.959600*%


D10*
X102600Y332100D03*
X102600Y357500D03*
D11*
X218700Y420100D03*
D12*
X193300Y420100D03*
D10*
X971600Y303600D03*
X971600Y329000D03*
D13*
X971700Y381100D03*
X971700Y355700D03*
D10*
X915600Y178600D03*
X915600Y204000D03*
D14*
X845100Y432400D03*
X870500Y432400D03*
D15*
X780900Y252300D03*
X780900Y232300D03*
X780900Y212300D03*
X780900Y192300D03*
X780900Y172300D03*
X780900Y152300D03*
D16*
X397200Y296300D03*
X397200Y270900D03*
X397200Y245500D03*
X397200Y220100D03*
X371800Y296300D03*
X371800Y270900D03*
X371800Y245500D03*
X371800Y220100D03*
D17*
X93500Y518100D03*
X68100Y518100D03*
X68100Y492700D03*
X93500Y492700D03*
X118900Y518100D03*
X118900Y492700D03*
X144300Y518100D03*
X144300Y492700D03*
X169700Y518100D03*
X169700Y492700D03*
X195100Y518100D03*
X195100Y492700D03*
X220500Y518100D03*
X220500Y492700D03*
X245900Y518100D03*
X245900Y492700D03*
X271300Y518100D03*
X271300Y492700D03*
X296700Y518100D03*
X296700Y492700D03*
X322100Y518100D03*
X322100Y492700D03*
X347500Y518100D03*
X347500Y492700D03*
X372900Y518100D03*
X372900Y492700D03*
X398300Y518100D03*
X398300Y492700D03*
X423700Y518100D03*
X423700Y492700D03*
X449100Y518100D03*
X449100Y492700D03*
D18*
X494688Y490000D02*
X508912Y490000D01*
X508912Y515400D02*
X494688Y515400D01*
D14*
X746500Y312000D03*
X771900Y312000D03*
X746900Y360000D03*
X772300Y360000D03*
X736300Y41000D03*
X761700Y41000D03*
D19*
X497800Y420200D03*
D20*
X497800Y394800D03*
X497800Y369400D03*
X497800Y344000D03*
X497800Y318600D03*
X497800Y293200D03*
X497800Y267800D03*
X497800Y242400D03*
X497800Y217000D03*
X497800Y191600D03*
X497800Y166200D03*
X497800Y140800D03*
X650200Y420200D03*
X650200Y394800D03*
X650200Y369400D03*
X650200Y344000D03*
X650200Y318600D03*
X650200Y293200D03*
X650200Y242400D03*
X650200Y217000D03*
X650200Y166200D03*
X650200Y140800D03*
X650200Y191600D03*
X650200Y267800D03*
X497800Y115400D03*
X497800Y90000D03*
X497800Y64600D03*
X650200Y115400D03*
X650200Y90000D03*
X650200Y64600D03*
D21*
X497800Y39200D03*
X650200Y39200D03*
X650200Y445600D03*
X497800Y445600D03*
D22*
X353200Y74800D03*
X353200Y49400D03*
X353200Y24000D03*
X393200Y74700D03*
X393200Y49300D03*
X393200Y23900D03*
X33000Y75800D03*
X33000Y50400D03*
X33000Y25000D03*
X73000Y75700D03*
X73000Y50300D03*
X73000Y24900D03*
X113000Y75600D03*
X113000Y50200D03*
X113000Y24800D03*
X153000Y75500D03*
X153000Y50100D03*
X153000Y24700D03*
X193200Y75200D03*
X193200Y49800D03*
X193200Y24400D03*
X233200Y75100D03*
X233200Y49700D03*
X233200Y24300D03*
X273200Y75000D03*
X273200Y49600D03*
X273200Y24200D03*
X313200Y74900D03*
X313200Y49500D03*
X313200Y24100D03*
D23*
X304300Y364700D03*
X228100Y364700D03*
D10*
X272900Y110500D03*
X272900Y186700D03*
X313100Y110100D03*
X313100Y186300D03*
X353100Y110500D03*
X353100Y186700D03*
X393100Y109900D03*
X393100Y186100D03*
X726700Y400400D03*
X726700Y502000D03*
X766700Y399400D03*
X766700Y501000D03*
D13*
X447500Y448300D03*
X447500Y372100D03*
D14*
X735100Y80300D03*
X811300Y80300D03*
D10*
X278700Y392100D03*
X278700Y468300D03*
X302700Y391500D03*
X302700Y467700D03*
X192900Y111100D03*
X192900Y187300D03*
X152900Y110500D03*
X152900Y186700D03*
X112900Y109900D03*
X112900Y186100D03*
X72900Y109300D03*
X72900Y185500D03*
X32900Y109700D03*
X32900Y185900D03*
X233900Y111100D03*
X233900Y187300D03*
D24*
X859400Y43800D03*
X884800Y43800D03*
X910200Y43800D03*
X935600Y43800D03*
X859400Y69200D03*
X884800Y69200D03*
X910200Y69200D03*
X935600Y69200D03*
D16*
X333800Y416900D03*
X333800Y391500D03*
X333800Y366100D03*
X333800Y340700D03*
X359200Y416900D03*
X359200Y391500D03*
X359200Y366100D03*
X359200Y340700D03*
D25*
X33800Y346500D03*
D16*
X33800Y321100D03*
X33800Y295700D03*
X59200Y346500D03*
X59200Y321100D03*
X59200Y295700D03*
D25*
X1048700Y176600D03*
D26*
X1048700Y202000D03*
X1048700Y227400D03*
X1023300Y176600D03*
X1023300Y202000D03*
X1023300Y227400D03*
D25*
X34300Y446400D03*
D16*
X34300Y421000D03*
X34300Y395600D03*
X59700Y446400D03*
X59700Y421000D03*
X59700Y395600D03*
D14*
X546900Y496000D03*
X623100Y496000D03*
D27*
X722000Y290000D03*
X841000Y352000D03*
X901000Y265000D03*
X624000Y284000D03*
X845000Y376000D03*
X932000Y370000D03*
X745000Y252000D03*
X683000Y280000D03*
X730000Y322000D03*
X833000Y250000D03*
X937000Y325000D03*
X829000Y265000D03*
X867000Y321000D03*
X132000Y265000D03*
X160000Y300000D03*
X153000Y233000D03*
X154000Y209000D03*
X207000Y210000D03*
X86000Y206000D03*
X231000Y227000D03*
X229000Y206000D03*
X862068Y258000D03*
X849000Y258000D03*
X790291Y285291D03*
X764000Y284000D03*
X707000Y324000D03*
X646000Y495000D03*
X693000Y218368D03*
X694000Y146000D03*
X630000Y243732D03*
X544000Y332000D03*
X706000Y219000D03*
X706000Y185000D03*
X576000Y282000D03*
X519000Y320000D03*
X52000Y179000D03*
X52000Y194000D03*
X92000Y179000D03*
X92000Y195000D03*
X132000Y180000D03*
X132000Y195000D03*
X172000Y179000D03*
X172000Y196000D03*
X206000Y180000D03*
X206000Y196000D03*
X293000Y179000D03*
X292000Y196000D03*
X374000Y178000D03*
X320000Y221000D03*
X331000Y193000D03*
X331000Y180000D03*
X255000Y180000D03*
X255000Y196000D03*
X220000Y180000D03*
X220000Y196000D03*
X871709Y358709D03*
X882682Y367900D03*
X795000Y130000D03*
X936000Y235000D03*
X925000Y309932D03*
X923000Y345068D03*
X948622Y341068D03*
X953000Y221332D03*
X856000Y235000D03*
X856000Y249000D03*
X870791Y345209D03*
X881000Y398068D03*
X416000Y459000D03*
X378000Y383000D03*
X759000Y324000D03*
X608000Y302000D03*
X542000Y354000D03*
X620791Y301209D03*
X544000Y379000D03*
X793000Y390068D03*
X783000Y324932D03*
X776000Y390068D03*
X848000Y307000D03*
X864000Y307000D03*
X954690Y324932D03*
X849000Y324932D03*
X869000Y334000D03*
M02*
