G04 EAGLE Gerber RS-274X export*
G75*
%MOMM*%
%FSLAX34Y34*%
%LPD*%
%INVias*%
%IPPOS*%
%AMOC8*
5,1,8,0,0,1.08239X$1,22.5*%
G01*
%ADD10C,0.756400*%


D10*
X722000Y290000D03*
X841000Y352000D03*
X901000Y265000D03*
X624000Y284000D03*
X845000Y376000D03*
X932000Y370000D03*
X745000Y252000D03*
X683000Y280000D03*
X730000Y322000D03*
X833000Y250000D03*
X937000Y325000D03*
X829000Y265000D03*
X867000Y321000D03*
X132000Y265000D03*
X160000Y300000D03*
X153000Y233000D03*
X154000Y209000D03*
X207000Y210000D03*
X86000Y206000D03*
X231000Y227000D03*
X229000Y206000D03*
X862068Y258000D03*
X849000Y258000D03*
X790291Y285291D03*
X764000Y284000D03*
X707000Y324000D03*
X646000Y495000D03*
X693000Y218368D03*
X694000Y146000D03*
X630000Y243732D03*
X544000Y332000D03*
X706000Y219000D03*
X706000Y185000D03*
X576000Y282000D03*
X519000Y320000D03*
X52000Y179000D03*
X52000Y194000D03*
X92000Y179000D03*
X92000Y195000D03*
X132000Y180000D03*
X132000Y195000D03*
X172000Y179000D03*
X172000Y196000D03*
X206000Y180000D03*
X206000Y196000D03*
X293000Y179000D03*
X292000Y196000D03*
X374000Y178000D03*
X320000Y221000D03*
X331000Y193000D03*
X331000Y180000D03*
X255000Y180000D03*
X255000Y196000D03*
X220000Y180000D03*
X220000Y196000D03*
X871709Y358709D03*
X882682Y367900D03*
X795000Y130000D03*
X936000Y235000D03*
X925000Y309932D03*
X923000Y345068D03*
X948622Y341068D03*
X953000Y221332D03*
X856000Y235000D03*
X856000Y249000D03*
X870791Y345209D03*
X881000Y398068D03*
X416000Y459000D03*
X378000Y383000D03*
X759000Y324000D03*
X608000Y302000D03*
X542000Y354000D03*
X620791Y301209D03*
X544000Y379000D03*
X793000Y390068D03*
X783000Y324932D03*
X776000Y390068D03*
X848000Y307000D03*
X864000Y307000D03*
X954690Y324932D03*
X849000Y324932D03*
X869000Y334000D03*
M02*
